M48
; DRILL file {KiCad 8.0.5} date 2024-11-09T23:44:16+0100
; FORMAT={-:-/ absolute / metric / decimal}
; #@! TF.CreationDate,2024-11-09T23:44:16+01:00
; #@! TF.GenerationSoftware,Kicad,Pcbnew,8.0.5
; #@! TF.FileFunction,Plated,1,4,PTH
FMAT,2
METRIC
; #@! TA.AperFunction,Plated,PTH,ViaDrill
T1C0.300
; #@! TA.AperFunction,Plated,PTH,ComponentDrill
T2C0.500
; #@! TA.AperFunction,Plated,PTH,ComponentDrill
T3C0.800
; #@! TA.AperFunction,Plated,PTH,ComponentDrill
T4C1.020
%
G90
G05
T1
X33.25Y-101.25
X33.25Y-105.25
X33.25Y-109.0
X33.25Y-113.0
X33.25Y-117.5
X33.25Y-121.5
X33.25Y-128.25
X33.5Y-78.25
X33.5Y-82.25
X33.5Y-85.5
X33.5Y-89.5
X37.0Y-94.25
X37.25Y-74.25
X39.5Y-77.5
X41.2Y-85.2
X41.4Y-80.8
X42.0Y-67.5
X43.21Y-72.96
X43.25Y-95.1
X43.5Y-80.5
X43.5Y-89.75
X44.5Y-100.0
X44.5Y-102.25
X44.9Y-94.495
X44.9Y-95.98
X45.0Y-85.75
X45.75Y-68.75
X46.0Y-113.25
X46.375Y-99.125
X47.0Y-68.75
X47.25Y-98.5
X47.5Y-94.03
X48.25Y-81.75
X48.25Y-98.0
X48.5Y-109.0
X48.75Y-103.25
X49.75Y-67.75
X50.0Y-78.75
X50.32Y-82.32
X50.4Y-114.837
X50.85Y-100.25
X51.0Y-87.75
X51.0Y-89.25
X51.25Y-106.25
X51.28Y-82.28
X51.5Y-88.5
X52.0Y-78.75
X52.0Y-98.75
X52.5Y-94.5
X53.05Y-70.45
X53.25Y-95.0
X53.425Y-91.5
X53.5Y-73.25
X53.5Y-74.75
X53.5Y-76.25
X53.5Y-112.7
X54.0Y-83.75
X54.25Y-120.75
X54.5Y-87.0
X54.75Y-73.25
X54.75Y-89.0
X55.0Y-81.0
X55.0Y-101.25
X55.25Y-93.75
X55.747Y-86.741
X56.0Y-87.5
X56.0Y-98.0
X56.009Y-93.497
X56.2Y-71.95
X56.25Y-73.25
X56.6Y-94.069
X56.75Y-83.6
X57.0Y-106.2
X57.25Y-94.75
X57.25Y-98.0
X57.25Y-100.485
X57.75Y-115.5
X57.997Y-87.491
X57.997Y-89.009
X58.0Y-78.75
X58.247Y-92.009
X58.25Y-88.25
X58.255Y-89.766
X58.363Y-86.78
X58.5Y-83.6
X58.75Y-91.25
X58.75Y-92.75
X58.8Y-99.55
X59.25Y-72.25
X59.25Y-74.5
X59.25Y-76.0
X59.25Y-98.75
X59.5Y-93.216
X60.0Y-96.5
X60.0Y-125.0
X60.5Y-97.5
X60.5Y-101.25
X61.0Y-74.5
X61.0Y-98.5
X61.075Y-103.8
X61.25Y-127.75
X62.0Y-70.5
X62.25Y-78.75
X62.5Y-89.75
X63.0Y-94.25
X63.25Y-76.0
X63.25Y-85.0
X63.5Y-74.5
X64.0Y-78.75
X64.0Y-125.0
X64.25Y-93.25
X64.5Y-80.75
X64.5Y-86.25
X65.0Y-76.25
X65.25Y-127.75
X66.0Y-74.25
X66.5Y-79.0
X67.5Y-96.75
X67.5Y-104.1
X67.75Y-88.75
X67.75Y-125.0
X67.825Y-112.475
X67.825Y-113.55
X67.825Y-114.8
X68.15Y-109.5
X68.25Y-117.75
X68.5Y-74.25
X69.0Y-86.75
X69.0Y-127.75
X69.5Y-76.412
X69.77Y-104.1
X70.0Y-80.75
X70.75Y-93.0
X71.75Y-125.0
X72.5Y-74.5
X72.5Y-76.75
X72.5Y-79.0
X73.0Y-127.75
X73.5Y-72.4
X74.0Y-82.75
X76.736Y-88.905
X76.75Y-85.5
X76.75Y-92.5
X76.75Y-96.5
X76.75Y-100.25
X76.75Y-104.25
X76.75Y-108.25
X76.75Y-116.0
X76.75Y-120.0
X77.5Y-78.75
T2
X34.2Y-69.275
X34.2Y-70.525
X34.2Y-71.775
X34.2Y-73.025
X75.75Y-69.275
X75.75Y-70.525
X75.75Y-71.775
X75.75Y-73.025
T4
X30.5Y-79.24
X30.5Y-81.78
X30.5Y-84.32
X30.5Y-86.86
X30.5Y-89.4
X30.5Y-91.94
X30.5Y-94.48
X30.5Y-97.02
X30.5Y-99.56
X30.5Y-102.1
X30.5Y-104.64
X30.5Y-107.18
X30.5Y-109.72
X30.5Y-112.26
X30.5Y-114.8
X30.5Y-117.34
X30.5Y-119.88
X30.5Y-122.42
X30.5Y-124.96
X30.5Y-127.5
X79.5Y-79.24
X79.5Y-81.78
X79.5Y-84.32
X79.5Y-86.86
X79.5Y-89.4
X79.5Y-91.94
X79.5Y-94.48
X79.5Y-97.02
X79.5Y-99.56
X79.5Y-102.1
X79.5Y-104.64
X79.5Y-107.18
X79.5Y-109.72
X79.5Y-112.26
X79.5Y-114.8
X79.5Y-117.34
X79.5Y-119.88
X79.5Y-122.42
X79.5Y-124.96
X79.5Y-127.5
T2
G00X54.2Y-68.35
M15
G01X54.2Y-67.65
M16
G05
G00X60.8Y-68.35
M15
G01X60.8Y-67.65
M16
G05
T3
G00X39.65Y-117.0
M15
G01X41.85Y-117.0
M16
G05
G00X39.65Y-123.0
M15
G01X41.85Y-123.0
M16
G05
G00X45.55Y-120.85
M15
G01X45.55Y-118.15
M16
G05
M30
