%TF.GenerationSoftware,KiCad,Pcbnew,8.0.5*%
%TF.CreationDate,2024-11-09T23:36:57+01:00*%
%TF.ProjectId,STM32 Development Board,53544d33-3220-4446-9576-656c6f706d65,rev?*%
%TF.SameCoordinates,Original*%
%TF.FileFunction,Legend,Top*%
%TF.FilePolarity,Positive*%
%FSLAX46Y46*%
G04 Gerber Fmt 4.6, Leading zero omitted, Abs format (unit mm)*
G04 Created by KiCad (PCBNEW 8.0.5) date 2024-11-09 23:36:57*
%MOMM*%
%LPD*%
G01*
G04 APERTURE LIST*
G04 Aperture macros list*
%AMRoundRect*
0 Rectangle with rounded corners*
0 $1 Rounding radius*
0 $2 $3 $4 $5 $6 $7 $8 $9 X,Y pos of 4 corners*
0 Add a 4 corners polygon primitive as box body*
4,1,4,$2,$3,$4,$5,$6,$7,$8,$9,$2,$3,0*
0 Add four circle primitives for the rounded corners*
1,1,$1+$1,$2,$3*
1,1,$1+$1,$4,$5*
1,1,$1+$1,$6,$7*
1,1,$1+$1,$8,$9*
0 Add four rect primitives between the rounded corners*
20,1,$1+$1,$2,$3,$4,$5,0*
20,1,$1+$1,$4,$5,$6,$7,0*
20,1,$1+$1,$6,$7,$8,$9,0*
20,1,$1+$1,$8,$9,$2,$3,0*%
G04 Aperture macros list end*
%ADD10C,0.100000*%
%ADD11C,0.150000*%
%ADD12C,0.127000*%
%ADD13C,0.200000*%
%ADD14C,0.120000*%
%ADD15C,0.000000*%
%ADD16RoundRect,0.102000X0.200000X0.675000X-0.200000X0.675000X-0.200000X-0.675000X0.200000X-0.675000X0*%
%ADD17RoundRect,0.102000X0.800000X0.700000X-0.800000X0.700000X-0.800000X-0.700000X0.800000X-0.700000X0*%
%ADD18RoundRect,0.102000X0.950000X0.950000X-0.950000X0.950000X-0.950000X-0.950000X0.950000X-0.950000X0*%
%ADD19O,1.104000X2.004000*%
%ADD20RoundRect,0.225000X0.250000X-0.225000X0.250000X0.225000X-0.250000X0.225000X-0.250000X-0.225000X0*%
%ADD21RoundRect,0.250000X0.650000X-0.325000X0.650000X0.325000X-0.650000X0.325000X-0.650000X-0.325000X0*%
%ADD22RoundRect,0.140000X-0.170000X0.140000X-0.170000X-0.140000X0.170000X-0.140000X0.170000X0.140000X0*%
%ADD23RoundRect,0.102000X0.237500X0.125000X-0.237500X0.125000X-0.237500X-0.125000X0.237500X-0.125000X0*%
%ADD24RoundRect,0.102000X0.125000X0.237500X-0.125000X0.237500X-0.125000X-0.237500X0.125000X-0.237500X0*%
%ADD25RoundRect,0.135000X-0.135000X-0.185000X0.135000X-0.185000X0.135000X0.185000X-0.135000X0.185000X0*%
%ADD26RoundRect,0.225000X0.225000X0.375000X-0.225000X0.375000X-0.225000X-0.375000X0.225000X-0.375000X0*%
%ADD27RoundRect,0.102000X-0.925000X-1.700000X0.925000X-1.700000X0.925000X1.700000X-0.925000X1.700000X0*%
%ADD28RoundRect,0.200000X-0.275000X0.200000X-0.275000X-0.200000X0.275000X-0.200000X0.275000X0.200000X0*%
%ADD29RoundRect,0.140000X0.140000X0.170000X-0.140000X0.170000X-0.140000X-0.170000X0.140000X-0.170000X0*%
%ADD30RoundRect,0.225000X-0.375000X0.225000X-0.375000X-0.225000X0.375000X-0.225000X0.375000X0.225000X0*%
%ADD31RoundRect,0.135000X0.135000X0.185000X-0.135000X0.185000X-0.135000X-0.185000X0.135000X-0.185000X0*%
%ADD32RoundRect,0.225000X0.225000X0.250000X-0.225000X0.250000X-0.225000X-0.250000X0.225000X-0.250000X0*%
%ADD33RoundRect,0.140000X0.170000X-0.140000X0.170000X0.140000X-0.170000X0.140000X-0.170000X-0.140000X0*%
%ADD34O,1.300000X0.800000*%
%ADD35RoundRect,0.200000X0.450000X-0.200000X0.450000X0.200000X-0.450000X0.200000X-0.450000X-0.200000X0*%
%ADD36RoundRect,0.200000X0.275000X-0.200000X0.275000X0.200000X-0.275000X0.200000X-0.275000X-0.200000X0*%
%ADD37R,1.400000X1.200000*%
%ADD38RoundRect,0.218750X-0.218750X-0.381250X0.218750X-0.381250X0.218750X0.381250X-0.218750X0.381250X0*%
%ADD39O,2.554000X4.904000*%
%ADD40O,4.204000X2.204000*%
%ADD41RoundRect,0.135000X-0.185000X0.135000X-0.185000X-0.135000X0.185000X-0.135000X0.185000X0.135000X0*%
%ADD42RoundRect,0.200000X-0.200000X-0.275000X0.200000X-0.275000X0.200000X0.275000X-0.200000X0.275000X0*%
%ADD43RoundRect,0.150000X-0.150000X0.512500X-0.150000X-0.512500X0.150000X-0.512500X0.150000X0.512500X0*%
%ADD44RoundRect,0.102000X-0.685000X0.685000X-0.685000X-0.685000X0.685000X-0.685000X0.685000X0.685000X0*%
%ADD45C,1.574000*%
%ADD46RoundRect,0.150000X0.587500X0.150000X-0.587500X0.150000X-0.587500X-0.150000X0.587500X-0.150000X0*%
%ADD47RoundRect,0.250000X0.325000X0.650000X-0.325000X0.650000X-0.325000X-0.650000X0.325000X-0.650000X0*%
%ADD48R,0.740000X2.400000*%
%ADD49RoundRect,0.250000X-0.650000X0.325000X-0.650000X-0.325000X0.650000X-0.325000X0.650000X0.325000X0*%
%ADD50RoundRect,0.225000X-0.250000X0.225000X-0.250000X-0.225000X0.250000X-0.225000X0.250000X0.225000X0*%
%ADD51R,0.800000X1.000000*%
%ADD52C,0.900000*%
%ADD53R,1.500000X0.700000*%
%ADD54RoundRect,0.218750X0.256250X-0.218750X0.256250X0.218750X-0.256250X0.218750X-0.256250X-0.218750X0*%
%ADD55RoundRect,0.250000X0.375000X0.625000X-0.375000X0.625000X-0.375000X-0.625000X0.375000X-0.625000X0*%
%ADD56RoundRect,0.135000X0.185000X-0.135000X0.185000X0.135000X-0.185000X0.135000X-0.185000X-0.135000X0*%
%ADD57RoundRect,0.140000X-0.140000X-0.170000X0.140000X-0.170000X0.140000X0.170000X-0.140000X0.170000X0*%
%ADD58RoundRect,0.200000X-0.450000X0.200000X-0.450000X-0.200000X0.450000X-0.200000X0.450000X0.200000X0*%
%ADD59RoundRect,0.075000X0.075000X-0.700000X0.075000X0.700000X-0.075000X0.700000X-0.075000X-0.700000X0*%
%ADD60RoundRect,0.075000X0.700000X-0.075000X0.700000X0.075000X-0.700000X0.075000X-0.700000X-0.075000X0*%
%ADD61RoundRect,0.147500X0.172500X-0.147500X0.172500X0.147500X-0.172500X0.147500X-0.172500X-0.147500X0*%
G04 APERTURE END LIST*
D10*
X75934836Y-83884990D02*
X75858646Y-83846895D01*
X75858646Y-83846895D02*
X75744360Y-83846895D01*
X75744360Y-83846895D02*
X75630074Y-83884990D01*
X75630074Y-83884990D02*
X75553884Y-83961180D01*
X75553884Y-83961180D02*
X75515789Y-84037371D01*
X75515789Y-84037371D02*
X75477693Y-84189752D01*
X75477693Y-84189752D02*
X75477693Y-84304038D01*
X75477693Y-84304038D02*
X75515789Y-84456419D01*
X75515789Y-84456419D02*
X75553884Y-84532609D01*
X75553884Y-84532609D02*
X75630074Y-84608800D01*
X75630074Y-84608800D02*
X75744360Y-84646895D01*
X75744360Y-84646895D02*
X75820551Y-84646895D01*
X75820551Y-84646895D02*
X75934836Y-84608800D01*
X75934836Y-84608800D02*
X75972932Y-84570704D01*
X75972932Y-84570704D02*
X75972932Y-84304038D01*
X75972932Y-84304038D02*
X75820551Y-84304038D01*
X76315789Y-84646895D02*
X76315789Y-83846895D01*
X76315789Y-83846895D02*
X76772932Y-84646895D01*
X76772932Y-84646895D02*
X76772932Y-83846895D01*
X77153884Y-84646895D02*
X77153884Y-83846895D01*
X77153884Y-83846895D02*
X77344360Y-83846895D01*
X77344360Y-83846895D02*
X77458646Y-83884990D01*
X77458646Y-83884990D02*
X77534836Y-83961180D01*
X77534836Y-83961180D02*
X77572931Y-84037371D01*
X77572931Y-84037371D02*
X77611027Y-84189752D01*
X77611027Y-84189752D02*
X77611027Y-84304038D01*
X77611027Y-84304038D02*
X77572931Y-84456419D01*
X77572931Y-84456419D02*
X77534836Y-84532609D01*
X77534836Y-84532609D02*
X77458646Y-84608800D01*
X77458646Y-84608800D02*
X77344360Y-84646895D01*
X77344360Y-84646895D02*
X77153884Y-84646895D01*
X74830074Y-87146895D02*
X74830074Y-86346895D01*
X74830074Y-86346895D02*
X75134836Y-86346895D01*
X75134836Y-86346895D02*
X75211026Y-86384990D01*
X75211026Y-86384990D02*
X75249121Y-86423085D01*
X75249121Y-86423085D02*
X75287217Y-86499276D01*
X75287217Y-86499276D02*
X75287217Y-86613561D01*
X75287217Y-86613561D02*
X75249121Y-86689752D01*
X75249121Y-86689752D02*
X75211026Y-86727847D01*
X75211026Y-86727847D02*
X75134836Y-86765942D01*
X75134836Y-86765942D02*
X74830074Y-86765942D01*
X75896740Y-86727847D02*
X76011026Y-86765942D01*
X76011026Y-86765942D02*
X76049121Y-86804038D01*
X76049121Y-86804038D02*
X76087217Y-86880228D01*
X76087217Y-86880228D02*
X76087217Y-86994514D01*
X76087217Y-86994514D02*
X76049121Y-87070704D01*
X76049121Y-87070704D02*
X76011026Y-87108800D01*
X76011026Y-87108800D02*
X75934836Y-87146895D01*
X75934836Y-87146895D02*
X75630074Y-87146895D01*
X75630074Y-87146895D02*
X75630074Y-86346895D01*
X75630074Y-86346895D02*
X75896740Y-86346895D01*
X75896740Y-86346895D02*
X75972931Y-86384990D01*
X75972931Y-86384990D02*
X76011026Y-86423085D01*
X76011026Y-86423085D02*
X76049121Y-86499276D01*
X76049121Y-86499276D02*
X76049121Y-86575466D01*
X76049121Y-86575466D02*
X76011026Y-86651657D01*
X76011026Y-86651657D02*
X75972931Y-86689752D01*
X75972931Y-86689752D02*
X75896740Y-86727847D01*
X75896740Y-86727847D02*
X75630074Y-86727847D01*
X76849121Y-87146895D02*
X76391978Y-87146895D01*
X76620550Y-87146895D02*
X76620550Y-86346895D01*
X76620550Y-86346895D02*
X76544359Y-86461180D01*
X76544359Y-86461180D02*
X76468169Y-86537371D01*
X76468169Y-86537371D02*
X76391978Y-86575466D01*
X77572931Y-86346895D02*
X77191979Y-86346895D01*
X77191979Y-86346895D02*
X77153883Y-86727847D01*
X77153883Y-86727847D02*
X77191979Y-86689752D01*
X77191979Y-86689752D02*
X77268169Y-86651657D01*
X77268169Y-86651657D02*
X77458645Y-86651657D01*
X77458645Y-86651657D02*
X77534836Y-86689752D01*
X77534836Y-86689752D02*
X77572931Y-86727847D01*
X77572931Y-86727847D02*
X77611026Y-86804038D01*
X77611026Y-86804038D02*
X77611026Y-86994514D01*
X77611026Y-86994514D02*
X77572931Y-87070704D01*
X77572931Y-87070704D02*
X77534836Y-87108800D01*
X77534836Y-87108800D02*
X77458645Y-87146895D01*
X77458645Y-87146895D02*
X77268169Y-87146895D01*
X77268169Y-87146895D02*
X77191979Y-87108800D01*
X77191979Y-87108800D02*
X77153883Y-87070704D01*
X76887217Y-78846895D02*
X76506265Y-78846895D01*
X76506265Y-78846895D02*
X76468169Y-79227847D01*
X76468169Y-79227847D02*
X76506265Y-79189752D01*
X76506265Y-79189752D02*
X76582455Y-79151657D01*
X76582455Y-79151657D02*
X76772931Y-79151657D01*
X76772931Y-79151657D02*
X76849122Y-79189752D01*
X76849122Y-79189752D02*
X76887217Y-79227847D01*
X76887217Y-79227847D02*
X76925312Y-79304038D01*
X76925312Y-79304038D02*
X76925312Y-79494514D01*
X76925312Y-79494514D02*
X76887217Y-79570704D01*
X76887217Y-79570704D02*
X76849122Y-79608800D01*
X76849122Y-79608800D02*
X76772931Y-79646895D01*
X76772931Y-79646895D02*
X76582455Y-79646895D01*
X76582455Y-79646895D02*
X76506265Y-79608800D01*
X76506265Y-79608800D02*
X76468169Y-79570704D01*
X77153884Y-78846895D02*
X77420551Y-79646895D01*
X77420551Y-79646895D02*
X77687217Y-78846895D01*
X75706265Y-125146895D02*
X75706265Y-124346895D01*
X75706265Y-124346895D02*
X76011027Y-124346895D01*
X76011027Y-124346895D02*
X76087217Y-124384990D01*
X76087217Y-124384990D02*
X76125312Y-124423085D01*
X76125312Y-124423085D02*
X76163408Y-124499276D01*
X76163408Y-124499276D02*
X76163408Y-124613561D01*
X76163408Y-124613561D02*
X76125312Y-124689752D01*
X76125312Y-124689752D02*
X76087217Y-124727847D01*
X76087217Y-124727847D02*
X76011027Y-124765942D01*
X76011027Y-124765942D02*
X75706265Y-124765942D01*
X76468169Y-124918323D02*
X76849122Y-124918323D01*
X76391979Y-125146895D02*
X76658646Y-124346895D01*
X76658646Y-124346895D02*
X76925312Y-125146895D01*
X77572931Y-124346895D02*
X77191979Y-124346895D01*
X77191979Y-124346895D02*
X77153883Y-124727847D01*
X77153883Y-124727847D02*
X77191979Y-124689752D01*
X77191979Y-124689752D02*
X77268169Y-124651657D01*
X77268169Y-124651657D02*
X77458645Y-124651657D01*
X77458645Y-124651657D02*
X77534836Y-124689752D01*
X77534836Y-124689752D02*
X77572931Y-124727847D01*
X77572931Y-124727847D02*
X77611026Y-124804038D01*
X77611026Y-124804038D02*
X77611026Y-124994514D01*
X77611026Y-124994514D02*
X77572931Y-125070704D01*
X77572931Y-125070704D02*
X77534836Y-125108800D01*
X77534836Y-125108800D02*
X77458645Y-125146895D01*
X77458645Y-125146895D02*
X77268169Y-125146895D01*
X77268169Y-125146895D02*
X77191979Y-125108800D01*
X77191979Y-125108800D02*
X77153883Y-125070704D01*
X75706265Y-127646895D02*
X75706265Y-126846895D01*
X75706265Y-126846895D02*
X76011027Y-126846895D01*
X76011027Y-126846895D02*
X76087217Y-126884990D01*
X76087217Y-126884990D02*
X76125312Y-126923085D01*
X76125312Y-126923085D02*
X76163408Y-126999276D01*
X76163408Y-126999276D02*
X76163408Y-127113561D01*
X76163408Y-127113561D02*
X76125312Y-127189752D01*
X76125312Y-127189752D02*
X76087217Y-127227847D01*
X76087217Y-127227847D02*
X76011027Y-127265942D01*
X76011027Y-127265942D02*
X75706265Y-127265942D01*
X76468169Y-127418323D02*
X76849122Y-127418323D01*
X76391979Y-127646895D02*
X76658646Y-126846895D01*
X76658646Y-126846895D02*
X76925312Y-127646895D01*
X77534836Y-127113561D02*
X77534836Y-127646895D01*
X77344360Y-126808800D02*
X77153883Y-127380228D01*
X77153883Y-127380228D02*
X77649122Y-127380228D01*
X75706265Y-122646895D02*
X75706265Y-121846895D01*
X75706265Y-121846895D02*
X76011027Y-121846895D01*
X76011027Y-121846895D02*
X76087217Y-121884990D01*
X76087217Y-121884990D02*
X76125312Y-121923085D01*
X76125312Y-121923085D02*
X76163408Y-121999276D01*
X76163408Y-121999276D02*
X76163408Y-122113561D01*
X76163408Y-122113561D02*
X76125312Y-122189752D01*
X76125312Y-122189752D02*
X76087217Y-122227847D01*
X76087217Y-122227847D02*
X76011027Y-122265942D01*
X76011027Y-122265942D02*
X75706265Y-122265942D01*
X76468169Y-122418323D02*
X76849122Y-122418323D01*
X76391979Y-122646895D02*
X76658646Y-121846895D01*
X76658646Y-121846895D02*
X76925312Y-122646895D01*
X77534836Y-121846895D02*
X77382455Y-121846895D01*
X77382455Y-121846895D02*
X77306264Y-121884990D01*
X77306264Y-121884990D02*
X77268169Y-121923085D01*
X77268169Y-121923085D02*
X77191979Y-122037371D01*
X77191979Y-122037371D02*
X77153883Y-122189752D01*
X77153883Y-122189752D02*
X77153883Y-122494514D01*
X77153883Y-122494514D02*
X77191979Y-122570704D01*
X77191979Y-122570704D02*
X77230074Y-122608800D01*
X77230074Y-122608800D02*
X77306264Y-122646895D01*
X77306264Y-122646895D02*
X77458645Y-122646895D01*
X77458645Y-122646895D02*
X77534836Y-122608800D01*
X77534836Y-122608800D02*
X77572931Y-122570704D01*
X77572931Y-122570704D02*
X77611026Y-122494514D01*
X77611026Y-122494514D02*
X77611026Y-122304038D01*
X77611026Y-122304038D02*
X77572931Y-122227847D01*
X77572931Y-122227847D02*
X77534836Y-122189752D01*
X77534836Y-122189752D02*
X77458645Y-122151657D01*
X77458645Y-122151657D02*
X77306264Y-122151657D01*
X77306264Y-122151657D02*
X77230074Y-122189752D01*
X77230074Y-122189752D02*
X77191979Y-122227847D01*
X77191979Y-122227847D02*
X77153883Y-122304038D01*
X74944360Y-115146895D02*
X74944360Y-114346895D01*
X74944360Y-114346895D02*
X75249122Y-114346895D01*
X75249122Y-114346895D02*
X75325312Y-114384990D01*
X75325312Y-114384990D02*
X75363407Y-114423085D01*
X75363407Y-114423085D02*
X75401503Y-114499276D01*
X75401503Y-114499276D02*
X75401503Y-114613561D01*
X75401503Y-114613561D02*
X75363407Y-114689752D01*
X75363407Y-114689752D02*
X75325312Y-114727847D01*
X75325312Y-114727847D02*
X75249122Y-114765942D01*
X75249122Y-114765942D02*
X74944360Y-114765942D01*
X75706264Y-114918323D02*
X76087217Y-114918323D01*
X75630074Y-115146895D02*
X75896741Y-114346895D01*
X75896741Y-114346895D02*
X76163407Y-115146895D01*
X76849121Y-115146895D02*
X76391978Y-115146895D01*
X76620550Y-115146895D02*
X76620550Y-114346895D01*
X76620550Y-114346895D02*
X76544359Y-114461180D01*
X76544359Y-114461180D02*
X76468169Y-114537371D01*
X76468169Y-114537371D02*
X76391978Y-114575466D01*
X77344360Y-114346895D02*
X77420550Y-114346895D01*
X77420550Y-114346895D02*
X77496741Y-114384990D01*
X77496741Y-114384990D02*
X77534836Y-114423085D01*
X77534836Y-114423085D02*
X77572931Y-114499276D01*
X77572931Y-114499276D02*
X77611026Y-114651657D01*
X77611026Y-114651657D02*
X77611026Y-114842133D01*
X77611026Y-114842133D02*
X77572931Y-114994514D01*
X77572931Y-114994514D02*
X77534836Y-115070704D01*
X77534836Y-115070704D02*
X77496741Y-115108800D01*
X77496741Y-115108800D02*
X77420550Y-115146895D01*
X77420550Y-115146895D02*
X77344360Y-115146895D01*
X77344360Y-115146895D02*
X77268169Y-115108800D01*
X77268169Y-115108800D02*
X77230074Y-115070704D01*
X77230074Y-115070704D02*
X77191979Y-114994514D01*
X77191979Y-114994514D02*
X77153883Y-114842133D01*
X77153883Y-114842133D02*
X77153883Y-114651657D01*
X77153883Y-114651657D02*
X77191979Y-114499276D01*
X77191979Y-114499276D02*
X77230074Y-114423085D01*
X77230074Y-114423085D02*
X77268169Y-114384990D01*
X77268169Y-114384990D02*
X77344360Y-114346895D01*
X75706265Y-117646895D02*
X75706265Y-116846895D01*
X75706265Y-116846895D02*
X76011027Y-116846895D01*
X76011027Y-116846895D02*
X76087217Y-116884990D01*
X76087217Y-116884990D02*
X76125312Y-116923085D01*
X76125312Y-116923085D02*
X76163408Y-116999276D01*
X76163408Y-116999276D02*
X76163408Y-117113561D01*
X76163408Y-117113561D02*
X76125312Y-117189752D01*
X76125312Y-117189752D02*
X76087217Y-117227847D01*
X76087217Y-117227847D02*
X76011027Y-117265942D01*
X76011027Y-117265942D02*
X75706265Y-117265942D01*
X76468169Y-117418323D02*
X76849122Y-117418323D01*
X76391979Y-117646895D02*
X76658646Y-116846895D01*
X76658646Y-116846895D02*
X76925312Y-117646895D01*
X77230074Y-117646895D02*
X77382455Y-117646895D01*
X77382455Y-117646895D02*
X77458645Y-117608800D01*
X77458645Y-117608800D02*
X77496741Y-117570704D01*
X77496741Y-117570704D02*
X77572931Y-117456419D01*
X77572931Y-117456419D02*
X77611026Y-117304038D01*
X77611026Y-117304038D02*
X77611026Y-116999276D01*
X77611026Y-116999276D02*
X77572931Y-116923085D01*
X77572931Y-116923085D02*
X77534836Y-116884990D01*
X77534836Y-116884990D02*
X77458645Y-116846895D01*
X77458645Y-116846895D02*
X77306264Y-116846895D01*
X77306264Y-116846895D02*
X77230074Y-116884990D01*
X77230074Y-116884990D02*
X77191979Y-116923085D01*
X77191979Y-116923085D02*
X77153883Y-116999276D01*
X77153883Y-116999276D02*
X77153883Y-117189752D01*
X77153883Y-117189752D02*
X77191979Y-117265942D01*
X77191979Y-117265942D02*
X77230074Y-117304038D01*
X77230074Y-117304038D02*
X77306264Y-117342133D01*
X77306264Y-117342133D02*
X77458645Y-117342133D01*
X77458645Y-117342133D02*
X77534836Y-117304038D01*
X77534836Y-117304038D02*
X77572931Y-117265942D01*
X77572931Y-117265942D02*
X77611026Y-117189752D01*
X75591979Y-107896895D02*
X75591979Y-107096895D01*
X75591979Y-107096895D02*
X75896741Y-107096895D01*
X75896741Y-107096895D02*
X75972931Y-107134990D01*
X75972931Y-107134990D02*
X76011026Y-107173085D01*
X76011026Y-107173085D02*
X76049122Y-107249276D01*
X76049122Y-107249276D02*
X76049122Y-107363561D01*
X76049122Y-107363561D02*
X76011026Y-107439752D01*
X76011026Y-107439752D02*
X75972931Y-107477847D01*
X75972931Y-107477847D02*
X75896741Y-107515942D01*
X75896741Y-107515942D02*
X75591979Y-107515942D01*
X76658645Y-107477847D02*
X76772931Y-107515942D01*
X76772931Y-107515942D02*
X76811026Y-107554038D01*
X76811026Y-107554038D02*
X76849122Y-107630228D01*
X76849122Y-107630228D02*
X76849122Y-107744514D01*
X76849122Y-107744514D02*
X76811026Y-107820704D01*
X76811026Y-107820704D02*
X76772931Y-107858800D01*
X76772931Y-107858800D02*
X76696741Y-107896895D01*
X76696741Y-107896895D02*
X76391979Y-107896895D01*
X76391979Y-107896895D02*
X76391979Y-107096895D01*
X76391979Y-107096895D02*
X76658645Y-107096895D01*
X76658645Y-107096895D02*
X76734836Y-107134990D01*
X76734836Y-107134990D02*
X76772931Y-107173085D01*
X76772931Y-107173085D02*
X76811026Y-107249276D01*
X76811026Y-107249276D02*
X76811026Y-107325466D01*
X76811026Y-107325466D02*
X76772931Y-107401657D01*
X76772931Y-107401657D02*
X76734836Y-107439752D01*
X76734836Y-107439752D02*
X76658645Y-107477847D01*
X76658645Y-107477847D02*
X76391979Y-107477847D01*
X77611026Y-107896895D02*
X77153883Y-107896895D01*
X77382455Y-107896895D02*
X77382455Y-107096895D01*
X77382455Y-107096895D02*
X77306264Y-107211180D01*
X77306264Y-107211180D02*
X77230074Y-107287371D01*
X77230074Y-107287371D02*
X77153883Y-107325466D01*
X74944360Y-112646895D02*
X74944360Y-111846895D01*
X74944360Y-111846895D02*
X75249122Y-111846895D01*
X75249122Y-111846895D02*
X75325312Y-111884990D01*
X75325312Y-111884990D02*
X75363407Y-111923085D01*
X75363407Y-111923085D02*
X75401503Y-111999276D01*
X75401503Y-111999276D02*
X75401503Y-112113561D01*
X75401503Y-112113561D02*
X75363407Y-112189752D01*
X75363407Y-112189752D02*
X75325312Y-112227847D01*
X75325312Y-112227847D02*
X75249122Y-112265942D01*
X75249122Y-112265942D02*
X74944360Y-112265942D01*
X75706264Y-112418323D02*
X76087217Y-112418323D01*
X75630074Y-112646895D02*
X75896741Y-111846895D01*
X75896741Y-111846895D02*
X76163407Y-112646895D01*
X76849121Y-112646895D02*
X76391978Y-112646895D01*
X76620550Y-112646895D02*
X76620550Y-111846895D01*
X76620550Y-111846895D02*
X76544359Y-111961180D01*
X76544359Y-111961180D02*
X76468169Y-112037371D01*
X76468169Y-112037371D02*
X76391978Y-112075466D01*
X77611026Y-112646895D02*
X77153883Y-112646895D01*
X77382455Y-112646895D02*
X77382455Y-111846895D01*
X77382455Y-111846895D02*
X77306264Y-111961180D01*
X77306264Y-111961180D02*
X77230074Y-112037371D01*
X77230074Y-112037371D02*
X77153883Y-112075466D01*
X75706265Y-120146895D02*
X75706265Y-119346895D01*
X75706265Y-119346895D02*
X76011027Y-119346895D01*
X76011027Y-119346895D02*
X76087217Y-119384990D01*
X76087217Y-119384990D02*
X76125312Y-119423085D01*
X76125312Y-119423085D02*
X76163408Y-119499276D01*
X76163408Y-119499276D02*
X76163408Y-119613561D01*
X76163408Y-119613561D02*
X76125312Y-119689752D01*
X76125312Y-119689752D02*
X76087217Y-119727847D01*
X76087217Y-119727847D02*
X76011027Y-119765942D01*
X76011027Y-119765942D02*
X75706265Y-119765942D01*
X76468169Y-119918323D02*
X76849122Y-119918323D01*
X76391979Y-120146895D02*
X76658646Y-119346895D01*
X76658646Y-119346895D02*
X76925312Y-120146895D01*
X77115788Y-119346895D02*
X77649122Y-119346895D01*
X77649122Y-119346895D02*
X77306264Y-120146895D01*
X75591979Y-102896895D02*
X75591979Y-102096895D01*
X75591979Y-102096895D02*
X75896741Y-102096895D01*
X75896741Y-102096895D02*
X75972931Y-102134990D01*
X75972931Y-102134990D02*
X76011026Y-102173085D01*
X76011026Y-102173085D02*
X76049122Y-102249276D01*
X76049122Y-102249276D02*
X76049122Y-102363561D01*
X76049122Y-102363561D02*
X76011026Y-102439752D01*
X76011026Y-102439752D02*
X75972931Y-102477847D01*
X75972931Y-102477847D02*
X75896741Y-102515942D01*
X75896741Y-102515942D02*
X75591979Y-102515942D01*
X76658645Y-102477847D02*
X76772931Y-102515942D01*
X76772931Y-102515942D02*
X76811026Y-102554038D01*
X76811026Y-102554038D02*
X76849122Y-102630228D01*
X76849122Y-102630228D02*
X76849122Y-102744514D01*
X76849122Y-102744514D02*
X76811026Y-102820704D01*
X76811026Y-102820704D02*
X76772931Y-102858800D01*
X76772931Y-102858800D02*
X76696741Y-102896895D01*
X76696741Y-102896895D02*
X76391979Y-102896895D01*
X76391979Y-102896895D02*
X76391979Y-102096895D01*
X76391979Y-102096895D02*
X76658645Y-102096895D01*
X76658645Y-102096895D02*
X76734836Y-102134990D01*
X76734836Y-102134990D02*
X76772931Y-102173085D01*
X76772931Y-102173085D02*
X76811026Y-102249276D01*
X76811026Y-102249276D02*
X76811026Y-102325466D01*
X76811026Y-102325466D02*
X76772931Y-102401657D01*
X76772931Y-102401657D02*
X76734836Y-102439752D01*
X76734836Y-102439752D02*
X76658645Y-102477847D01*
X76658645Y-102477847D02*
X76391979Y-102477847D01*
X77115788Y-102096895D02*
X77611026Y-102096895D01*
X77611026Y-102096895D02*
X77344360Y-102401657D01*
X77344360Y-102401657D02*
X77458645Y-102401657D01*
X77458645Y-102401657D02*
X77534836Y-102439752D01*
X77534836Y-102439752D02*
X77572931Y-102477847D01*
X77572931Y-102477847D02*
X77611026Y-102554038D01*
X77611026Y-102554038D02*
X77611026Y-102744514D01*
X77611026Y-102744514D02*
X77572931Y-102820704D01*
X77572931Y-102820704D02*
X77534836Y-102858800D01*
X77534836Y-102858800D02*
X77458645Y-102896895D01*
X77458645Y-102896895D02*
X77230074Y-102896895D01*
X77230074Y-102896895D02*
X77153883Y-102858800D01*
X77153883Y-102858800D02*
X77115788Y-102820704D01*
X75591979Y-105396895D02*
X75591979Y-104596895D01*
X75591979Y-104596895D02*
X75896741Y-104596895D01*
X75896741Y-104596895D02*
X75972931Y-104634990D01*
X75972931Y-104634990D02*
X76011026Y-104673085D01*
X76011026Y-104673085D02*
X76049122Y-104749276D01*
X76049122Y-104749276D02*
X76049122Y-104863561D01*
X76049122Y-104863561D02*
X76011026Y-104939752D01*
X76011026Y-104939752D02*
X75972931Y-104977847D01*
X75972931Y-104977847D02*
X75896741Y-105015942D01*
X75896741Y-105015942D02*
X75591979Y-105015942D01*
X76658645Y-104977847D02*
X76772931Y-105015942D01*
X76772931Y-105015942D02*
X76811026Y-105054038D01*
X76811026Y-105054038D02*
X76849122Y-105130228D01*
X76849122Y-105130228D02*
X76849122Y-105244514D01*
X76849122Y-105244514D02*
X76811026Y-105320704D01*
X76811026Y-105320704D02*
X76772931Y-105358800D01*
X76772931Y-105358800D02*
X76696741Y-105396895D01*
X76696741Y-105396895D02*
X76391979Y-105396895D01*
X76391979Y-105396895D02*
X76391979Y-104596895D01*
X76391979Y-104596895D02*
X76658645Y-104596895D01*
X76658645Y-104596895D02*
X76734836Y-104634990D01*
X76734836Y-104634990D02*
X76772931Y-104673085D01*
X76772931Y-104673085D02*
X76811026Y-104749276D01*
X76811026Y-104749276D02*
X76811026Y-104825466D01*
X76811026Y-104825466D02*
X76772931Y-104901657D01*
X76772931Y-104901657D02*
X76734836Y-104939752D01*
X76734836Y-104939752D02*
X76658645Y-104977847D01*
X76658645Y-104977847D02*
X76391979Y-104977847D01*
X77153883Y-104673085D02*
X77191979Y-104634990D01*
X77191979Y-104634990D02*
X77268169Y-104596895D01*
X77268169Y-104596895D02*
X77458645Y-104596895D01*
X77458645Y-104596895D02*
X77534836Y-104634990D01*
X77534836Y-104634990D02*
X77572931Y-104673085D01*
X77572931Y-104673085D02*
X77611026Y-104749276D01*
X77611026Y-104749276D02*
X77611026Y-104825466D01*
X77611026Y-104825466D02*
X77572931Y-104939752D01*
X77572931Y-104939752D02*
X77115788Y-105396895D01*
X77115788Y-105396895D02*
X77611026Y-105396895D01*
X75591979Y-100146895D02*
X75591979Y-99346895D01*
X75591979Y-99346895D02*
X75896741Y-99346895D01*
X75896741Y-99346895D02*
X75972931Y-99384990D01*
X75972931Y-99384990D02*
X76011026Y-99423085D01*
X76011026Y-99423085D02*
X76049122Y-99499276D01*
X76049122Y-99499276D02*
X76049122Y-99613561D01*
X76049122Y-99613561D02*
X76011026Y-99689752D01*
X76011026Y-99689752D02*
X75972931Y-99727847D01*
X75972931Y-99727847D02*
X75896741Y-99765942D01*
X75896741Y-99765942D02*
X75591979Y-99765942D01*
X76658645Y-99727847D02*
X76772931Y-99765942D01*
X76772931Y-99765942D02*
X76811026Y-99804038D01*
X76811026Y-99804038D02*
X76849122Y-99880228D01*
X76849122Y-99880228D02*
X76849122Y-99994514D01*
X76849122Y-99994514D02*
X76811026Y-100070704D01*
X76811026Y-100070704D02*
X76772931Y-100108800D01*
X76772931Y-100108800D02*
X76696741Y-100146895D01*
X76696741Y-100146895D02*
X76391979Y-100146895D01*
X76391979Y-100146895D02*
X76391979Y-99346895D01*
X76391979Y-99346895D02*
X76658645Y-99346895D01*
X76658645Y-99346895D02*
X76734836Y-99384990D01*
X76734836Y-99384990D02*
X76772931Y-99423085D01*
X76772931Y-99423085D02*
X76811026Y-99499276D01*
X76811026Y-99499276D02*
X76811026Y-99575466D01*
X76811026Y-99575466D02*
X76772931Y-99651657D01*
X76772931Y-99651657D02*
X76734836Y-99689752D01*
X76734836Y-99689752D02*
X76658645Y-99727847D01*
X76658645Y-99727847D02*
X76391979Y-99727847D01*
X77572931Y-99346895D02*
X77191979Y-99346895D01*
X77191979Y-99346895D02*
X77153883Y-99727847D01*
X77153883Y-99727847D02*
X77191979Y-99689752D01*
X77191979Y-99689752D02*
X77268169Y-99651657D01*
X77268169Y-99651657D02*
X77458645Y-99651657D01*
X77458645Y-99651657D02*
X77534836Y-99689752D01*
X77534836Y-99689752D02*
X77572931Y-99727847D01*
X77572931Y-99727847D02*
X77611026Y-99804038D01*
X77611026Y-99804038D02*
X77611026Y-99994514D01*
X77611026Y-99994514D02*
X77572931Y-100070704D01*
X77572931Y-100070704D02*
X77534836Y-100108800D01*
X77534836Y-100108800D02*
X77458645Y-100146895D01*
X77458645Y-100146895D02*
X77268169Y-100146895D01*
X77268169Y-100146895D02*
X77191979Y-100108800D01*
X77191979Y-100108800D02*
X77153883Y-100070704D01*
X74830074Y-92396895D02*
X74830074Y-91596895D01*
X74830074Y-91596895D02*
X75134836Y-91596895D01*
X75134836Y-91596895D02*
X75211026Y-91634990D01*
X75211026Y-91634990D02*
X75249121Y-91673085D01*
X75249121Y-91673085D02*
X75287217Y-91749276D01*
X75287217Y-91749276D02*
X75287217Y-91863561D01*
X75287217Y-91863561D02*
X75249121Y-91939752D01*
X75249121Y-91939752D02*
X75211026Y-91977847D01*
X75211026Y-91977847D02*
X75134836Y-92015942D01*
X75134836Y-92015942D02*
X74830074Y-92015942D01*
X75896740Y-91977847D02*
X76011026Y-92015942D01*
X76011026Y-92015942D02*
X76049121Y-92054038D01*
X76049121Y-92054038D02*
X76087217Y-92130228D01*
X76087217Y-92130228D02*
X76087217Y-92244514D01*
X76087217Y-92244514D02*
X76049121Y-92320704D01*
X76049121Y-92320704D02*
X76011026Y-92358800D01*
X76011026Y-92358800D02*
X75934836Y-92396895D01*
X75934836Y-92396895D02*
X75630074Y-92396895D01*
X75630074Y-92396895D02*
X75630074Y-91596895D01*
X75630074Y-91596895D02*
X75896740Y-91596895D01*
X75896740Y-91596895D02*
X75972931Y-91634990D01*
X75972931Y-91634990D02*
X76011026Y-91673085D01*
X76011026Y-91673085D02*
X76049121Y-91749276D01*
X76049121Y-91749276D02*
X76049121Y-91825466D01*
X76049121Y-91825466D02*
X76011026Y-91901657D01*
X76011026Y-91901657D02*
X75972931Y-91939752D01*
X75972931Y-91939752D02*
X75896740Y-91977847D01*
X75896740Y-91977847D02*
X75630074Y-91977847D01*
X76849121Y-92396895D02*
X76391978Y-92396895D01*
X76620550Y-92396895D02*
X76620550Y-91596895D01*
X76620550Y-91596895D02*
X76544359Y-91711180D01*
X76544359Y-91711180D02*
X76468169Y-91787371D01*
X76468169Y-91787371D02*
X76391978Y-91825466D01*
X77115788Y-91596895D02*
X77611026Y-91596895D01*
X77611026Y-91596895D02*
X77344360Y-91901657D01*
X77344360Y-91901657D02*
X77458645Y-91901657D01*
X77458645Y-91901657D02*
X77534836Y-91939752D01*
X77534836Y-91939752D02*
X77572931Y-91977847D01*
X77572931Y-91977847D02*
X77611026Y-92054038D01*
X77611026Y-92054038D02*
X77611026Y-92244514D01*
X77611026Y-92244514D02*
X77572931Y-92320704D01*
X77572931Y-92320704D02*
X77534836Y-92358800D01*
X77534836Y-92358800D02*
X77458645Y-92396895D01*
X77458645Y-92396895D02*
X77230074Y-92396895D01*
X77230074Y-92396895D02*
X77153883Y-92358800D01*
X77153883Y-92358800D02*
X77115788Y-92320704D01*
X75591979Y-110396895D02*
X75591979Y-109596895D01*
X75591979Y-109596895D02*
X75896741Y-109596895D01*
X75896741Y-109596895D02*
X75972931Y-109634990D01*
X75972931Y-109634990D02*
X76011026Y-109673085D01*
X76011026Y-109673085D02*
X76049122Y-109749276D01*
X76049122Y-109749276D02*
X76049122Y-109863561D01*
X76049122Y-109863561D02*
X76011026Y-109939752D01*
X76011026Y-109939752D02*
X75972931Y-109977847D01*
X75972931Y-109977847D02*
X75896741Y-110015942D01*
X75896741Y-110015942D02*
X75591979Y-110015942D01*
X76658645Y-109977847D02*
X76772931Y-110015942D01*
X76772931Y-110015942D02*
X76811026Y-110054038D01*
X76811026Y-110054038D02*
X76849122Y-110130228D01*
X76849122Y-110130228D02*
X76849122Y-110244514D01*
X76849122Y-110244514D02*
X76811026Y-110320704D01*
X76811026Y-110320704D02*
X76772931Y-110358800D01*
X76772931Y-110358800D02*
X76696741Y-110396895D01*
X76696741Y-110396895D02*
X76391979Y-110396895D01*
X76391979Y-110396895D02*
X76391979Y-109596895D01*
X76391979Y-109596895D02*
X76658645Y-109596895D01*
X76658645Y-109596895D02*
X76734836Y-109634990D01*
X76734836Y-109634990D02*
X76772931Y-109673085D01*
X76772931Y-109673085D02*
X76811026Y-109749276D01*
X76811026Y-109749276D02*
X76811026Y-109825466D01*
X76811026Y-109825466D02*
X76772931Y-109901657D01*
X76772931Y-109901657D02*
X76734836Y-109939752D01*
X76734836Y-109939752D02*
X76658645Y-109977847D01*
X76658645Y-109977847D02*
X76391979Y-109977847D01*
X77344360Y-109596895D02*
X77420550Y-109596895D01*
X77420550Y-109596895D02*
X77496741Y-109634990D01*
X77496741Y-109634990D02*
X77534836Y-109673085D01*
X77534836Y-109673085D02*
X77572931Y-109749276D01*
X77572931Y-109749276D02*
X77611026Y-109901657D01*
X77611026Y-109901657D02*
X77611026Y-110092133D01*
X77611026Y-110092133D02*
X77572931Y-110244514D01*
X77572931Y-110244514D02*
X77534836Y-110320704D01*
X77534836Y-110320704D02*
X77496741Y-110358800D01*
X77496741Y-110358800D02*
X77420550Y-110396895D01*
X77420550Y-110396895D02*
X77344360Y-110396895D01*
X77344360Y-110396895D02*
X77268169Y-110358800D01*
X77268169Y-110358800D02*
X77230074Y-110320704D01*
X77230074Y-110320704D02*
X77191979Y-110244514D01*
X77191979Y-110244514D02*
X77153883Y-110092133D01*
X77153883Y-110092133D02*
X77153883Y-109901657D01*
X77153883Y-109901657D02*
X77191979Y-109749276D01*
X77191979Y-109749276D02*
X77230074Y-109673085D01*
X77230074Y-109673085D02*
X77268169Y-109634990D01*
X77268169Y-109634990D02*
X77344360Y-109596895D01*
X74830074Y-94896895D02*
X74830074Y-94096895D01*
X74830074Y-94096895D02*
X75134836Y-94096895D01*
X75134836Y-94096895D02*
X75211026Y-94134990D01*
X75211026Y-94134990D02*
X75249121Y-94173085D01*
X75249121Y-94173085D02*
X75287217Y-94249276D01*
X75287217Y-94249276D02*
X75287217Y-94363561D01*
X75287217Y-94363561D02*
X75249121Y-94439752D01*
X75249121Y-94439752D02*
X75211026Y-94477847D01*
X75211026Y-94477847D02*
X75134836Y-94515942D01*
X75134836Y-94515942D02*
X74830074Y-94515942D01*
X75896740Y-94477847D02*
X76011026Y-94515942D01*
X76011026Y-94515942D02*
X76049121Y-94554038D01*
X76049121Y-94554038D02*
X76087217Y-94630228D01*
X76087217Y-94630228D02*
X76087217Y-94744514D01*
X76087217Y-94744514D02*
X76049121Y-94820704D01*
X76049121Y-94820704D02*
X76011026Y-94858800D01*
X76011026Y-94858800D02*
X75934836Y-94896895D01*
X75934836Y-94896895D02*
X75630074Y-94896895D01*
X75630074Y-94896895D02*
X75630074Y-94096895D01*
X75630074Y-94096895D02*
X75896740Y-94096895D01*
X75896740Y-94096895D02*
X75972931Y-94134990D01*
X75972931Y-94134990D02*
X76011026Y-94173085D01*
X76011026Y-94173085D02*
X76049121Y-94249276D01*
X76049121Y-94249276D02*
X76049121Y-94325466D01*
X76049121Y-94325466D02*
X76011026Y-94401657D01*
X76011026Y-94401657D02*
X75972931Y-94439752D01*
X75972931Y-94439752D02*
X75896740Y-94477847D01*
X75896740Y-94477847D02*
X75630074Y-94477847D01*
X76849121Y-94896895D02*
X76391978Y-94896895D01*
X76620550Y-94896895D02*
X76620550Y-94096895D01*
X76620550Y-94096895D02*
X76544359Y-94211180D01*
X76544359Y-94211180D02*
X76468169Y-94287371D01*
X76468169Y-94287371D02*
X76391978Y-94325466D01*
X77344360Y-94096895D02*
X77420550Y-94096895D01*
X77420550Y-94096895D02*
X77496741Y-94134990D01*
X77496741Y-94134990D02*
X77534836Y-94173085D01*
X77534836Y-94173085D02*
X77572931Y-94249276D01*
X77572931Y-94249276D02*
X77611026Y-94401657D01*
X77611026Y-94401657D02*
X77611026Y-94592133D01*
X77611026Y-94592133D02*
X77572931Y-94744514D01*
X77572931Y-94744514D02*
X77534836Y-94820704D01*
X77534836Y-94820704D02*
X77496741Y-94858800D01*
X77496741Y-94858800D02*
X77420550Y-94896895D01*
X77420550Y-94896895D02*
X77344360Y-94896895D01*
X77344360Y-94896895D02*
X77268169Y-94858800D01*
X77268169Y-94858800D02*
X77230074Y-94820704D01*
X77230074Y-94820704D02*
X77191979Y-94744514D01*
X77191979Y-94744514D02*
X77153883Y-94592133D01*
X77153883Y-94592133D02*
X77153883Y-94401657D01*
X77153883Y-94401657D02*
X77191979Y-94249276D01*
X77191979Y-94249276D02*
X77230074Y-94173085D01*
X77230074Y-94173085D02*
X77268169Y-94134990D01*
X77268169Y-94134990D02*
X77344360Y-94096895D01*
X75591979Y-97646895D02*
X75591979Y-96846895D01*
X75591979Y-96846895D02*
X75896741Y-96846895D01*
X75896741Y-96846895D02*
X75972931Y-96884990D01*
X75972931Y-96884990D02*
X76011026Y-96923085D01*
X76011026Y-96923085D02*
X76049122Y-96999276D01*
X76049122Y-96999276D02*
X76049122Y-97113561D01*
X76049122Y-97113561D02*
X76011026Y-97189752D01*
X76011026Y-97189752D02*
X75972931Y-97227847D01*
X75972931Y-97227847D02*
X75896741Y-97265942D01*
X75896741Y-97265942D02*
X75591979Y-97265942D01*
X76658645Y-97227847D02*
X76772931Y-97265942D01*
X76772931Y-97265942D02*
X76811026Y-97304038D01*
X76811026Y-97304038D02*
X76849122Y-97380228D01*
X76849122Y-97380228D02*
X76849122Y-97494514D01*
X76849122Y-97494514D02*
X76811026Y-97570704D01*
X76811026Y-97570704D02*
X76772931Y-97608800D01*
X76772931Y-97608800D02*
X76696741Y-97646895D01*
X76696741Y-97646895D02*
X76391979Y-97646895D01*
X76391979Y-97646895D02*
X76391979Y-96846895D01*
X76391979Y-96846895D02*
X76658645Y-96846895D01*
X76658645Y-96846895D02*
X76734836Y-96884990D01*
X76734836Y-96884990D02*
X76772931Y-96923085D01*
X76772931Y-96923085D02*
X76811026Y-96999276D01*
X76811026Y-96999276D02*
X76811026Y-97075466D01*
X76811026Y-97075466D02*
X76772931Y-97151657D01*
X76772931Y-97151657D02*
X76734836Y-97189752D01*
X76734836Y-97189752D02*
X76658645Y-97227847D01*
X76658645Y-97227847D02*
X76391979Y-97227847D01*
X77534836Y-96846895D02*
X77382455Y-96846895D01*
X77382455Y-96846895D02*
X77306264Y-96884990D01*
X77306264Y-96884990D02*
X77268169Y-96923085D01*
X77268169Y-96923085D02*
X77191979Y-97037371D01*
X77191979Y-97037371D02*
X77153883Y-97189752D01*
X77153883Y-97189752D02*
X77153883Y-97494514D01*
X77153883Y-97494514D02*
X77191979Y-97570704D01*
X77191979Y-97570704D02*
X77230074Y-97608800D01*
X77230074Y-97608800D02*
X77306264Y-97646895D01*
X77306264Y-97646895D02*
X77458645Y-97646895D01*
X77458645Y-97646895D02*
X77534836Y-97608800D01*
X77534836Y-97608800D02*
X77572931Y-97570704D01*
X77572931Y-97570704D02*
X77611026Y-97494514D01*
X77611026Y-97494514D02*
X77611026Y-97304038D01*
X77611026Y-97304038D02*
X77572931Y-97227847D01*
X77572931Y-97227847D02*
X77534836Y-97189752D01*
X77534836Y-97189752D02*
X77458645Y-97151657D01*
X77458645Y-97151657D02*
X77306264Y-97151657D01*
X77306264Y-97151657D02*
X77230074Y-97189752D01*
X77230074Y-97189752D02*
X77191979Y-97227847D01*
X77191979Y-97227847D02*
X77153883Y-97304038D01*
X75668169Y-81346895D02*
X76163407Y-81346895D01*
X76163407Y-81346895D02*
X75896741Y-81651657D01*
X75896741Y-81651657D02*
X76011026Y-81651657D01*
X76011026Y-81651657D02*
X76087217Y-81689752D01*
X76087217Y-81689752D02*
X76125312Y-81727847D01*
X76125312Y-81727847D02*
X76163407Y-81804038D01*
X76163407Y-81804038D02*
X76163407Y-81994514D01*
X76163407Y-81994514D02*
X76125312Y-82070704D01*
X76125312Y-82070704D02*
X76087217Y-82108800D01*
X76087217Y-82108800D02*
X76011026Y-82146895D01*
X76011026Y-82146895D02*
X75782455Y-82146895D01*
X75782455Y-82146895D02*
X75706264Y-82108800D01*
X75706264Y-82108800D02*
X75668169Y-82070704D01*
X76391979Y-81346895D02*
X76658646Y-82146895D01*
X76658646Y-82146895D02*
X76925312Y-81346895D01*
X77115788Y-81346895D02*
X77611026Y-81346895D01*
X77611026Y-81346895D02*
X77344360Y-81651657D01*
X77344360Y-81651657D02*
X77458645Y-81651657D01*
X77458645Y-81651657D02*
X77534836Y-81689752D01*
X77534836Y-81689752D02*
X77572931Y-81727847D01*
X77572931Y-81727847D02*
X77611026Y-81804038D01*
X77611026Y-81804038D02*
X77611026Y-81994514D01*
X77611026Y-81994514D02*
X77572931Y-82070704D01*
X77572931Y-82070704D02*
X77534836Y-82108800D01*
X77534836Y-82108800D02*
X77458645Y-82146895D01*
X77458645Y-82146895D02*
X77230074Y-82146895D01*
X77230074Y-82146895D02*
X77153883Y-82108800D01*
X77153883Y-82108800D02*
X77115788Y-82070704D01*
X74830074Y-89646895D02*
X74830074Y-88846895D01*
X74830074Y-88846895D02*
X75134836Y-88846895D01*
X75134836Y-88846895D02*
X75211026Y-88884990D01*
X75211026Y-88884990D02*
X75249121Y-88923085D01*
X75249121Y-88923085D02*
X75287217Y-88999276D01*
X75287217Y-88999276D02*
X75287217Y-89113561D01*
X75287217Y-89113561D02*
X75249121Y-89189752D01*
X75249121Y-89189752D02*
X75211026Y-89227847D01*
X75211026Y-89227847D02*
X75134836Y-89265942D01*
X75134836Y-89265942D02*
X74830074Y-89265942D01*
X75896740Y-89227847D02*
X76011026Y-89265942D01*
X76011026Y-89265942D02*
X76049121Y-89304038D01*
X76049121Y-89304038D02*
X76087217Y-89380228D01*
X76087217Y-89380228D02*
X76087217Y-89494514D01*
X76087217Y-89494514D02*
X76049121Y-89570704D01*
X76049121Y-89570704D02*
X76011026Y-89608800D01*
X76011026Y-89608800D02*
X75934836Y-89646895D01*
X75934836Y-89646895D02*
X75630074Y-89646895D01*
X75630074Y-89646895D02*
X75630074Y-88846895D01*
X75630074Y-88846895D02*
X75896740Y-88846895D01*
X75896740Y-88846895D02*
X75972931Y-88884990D01*
X75972931Y-88884990D02*
X76011026Y-88923085D01*
X76011026Y-88923085D02*
X76049121Y-88999276D01*
X76049121Y-88999276D02*
X76049121Y-89075466D01*
X76049121Y-89075466D02*
X76011026Y-89151657D01*
X76011026Y-89151657D02*
X75972931Y-89189752D01*
X75972931Y-89189752D02*
X75896740Y-89227847D01*
X75896740Y-89227847D02*
X75630074Y-89227847D01*
X76849121Y-89646895D02*
X76391978Y-89646895D01*
X76620550Y-89646895D02*
X76620550Y-88846895D01*
X76620550Y-88846895D02*
X76544359Y-88961180D01*
X76544359Y-88961180D02*
X76468169Y-89037371D01*
X76468169Y-89037371D02*
X76391978Y-89075466D01*
X77534836Y-89113561D02*
X77534836Y-89646895D01*
X77344360Y-88808800D02*
X77153883Y-89380228D01*
X77153883Y-89380228D02*
X77649122Y-89380228D01*
X32434082Y-127646895D02*
X32434082Y-126846895D01*
X32434082Y-126846895D02*
X32738844Y-126846895D01*
X32738844Y-126846895D02*
X32815034Y-126884990D01*
X32815034Y-126884990D02*
X32853129Y-126923085D01*
X32853129Y-126923085D02*
X32891225Y-126999276D01*
X32891225Y-126999276D02*
X32891225Y-127113561D01*
X32891225Y-127113561D02*
X32853129Y-127189752D01*
X32853129Y-127189752D02*
X32815034Y-127227847D01*
X32815034Y-127227847D02*
X32738844Y-127265942D01*
X32738844Y-127265942D02*
X32434082Y-127265942D01*
X33195986Y-127418323D02*
X33576939Y-127418323D01*
X33119796Y-127646895D02*
X33386463Y-126846895D01*
X33386463Y-126846895D02*
X33653129Y-127646895D01*
X34072177Y-126846895D02*
X34148367Y-126846895D01*
X34148367Y-126846895D02*
X34224558Y-126884990D01*
X34224558Y-126884990D02*
X34262653Y-126923085D01*
X34262653Y-126923085D02*
X34300748Y-126999276D01*
X34300748Y-126999276D02*
X34338843Y-127151657D01*
X34338843Y-127151657D02*
X34338843Y-127342133D01*
X34338843Y-127342133D02*
X34300748Y-127494514D01*
X34300748Y-127494514D02*
X34262653Y-127570704D01*
X34262653Y-127570704D02*
X34224558Y-127608800D01*
X34224558Y-127608800D02*
X34148367Y-127646895D01*
X34148367Y-127646895D02*
X34072177Y-127646895D01*
X34072177Y-127646895D02*
X33995986Y-127608800D01*
X33995986Y-127608800D02*
X33957891Y-127570704D01*
X33957891Y-127570704D02*
X33919796Y-127494514D01*
X33919796Y-127494514D02*
X33881700Y-127342133D01*
X33881700Y-127342133D02*
X33881700Y-127151657D01*
X33881700Y-127151657D02*
X33919796Y-126999276D01*
X33919796Y-126999276D02*
X33957891Y-126923085D01*
X33957891Y-126923085D02*
X33995986Y-126884990D01*
X33995986Y-126884990D02*
X34072177Y-126846895D01*
X32434082Y-125146895D02*
X32434082Y-124346895D01*
X32434082Y-124346895D02*
X32738844Y-124346895D01*
X32738844Y-124346895D02*
X32815034Y-124384990D01*
X32815034Y-124384990D02*
X32853129Y-124423085D01*
X32853129Y-124423085D02*
X32891225Y-124499276D01*
X32891225Y-124499276D02*
X32891225Y-124613561D01*
X32891225Y-124613561D02*
X32853129Y-124689752D01*
X32853129Y-124689752D02*
X32815034Y-124727847D01*
X32815034Y-124727847D02*
X32738844Y-124765942D01*
X32738844Y-124765942D02*
X32434082Y-124765942D01*
X33195986Y-124918323D02*
X33576939Y-124918323D01*
X33119796Y-125146895D02*
X33386463Y-124346895D01*
X33386463Y-124346895D02*
X33653129Y-125146895D01*
X34338843Y-125146895D02*
X33881700Y-125146895D01*
X34110272Y-125146895D02*
X34110272Y-124346895D01*
X34110272Y-124346895D02*
X34034081Y-124461180D01*
X34034081Y-124461180D02*
X33957891Y-124537371D01*
X33957891Y-124537371D02*
X33881700Y-124575466D01*
X32434082Y-122646895D02*
X32434082Y-121846895D01*
X32434082Y-121846895D02*
X32738844Y-121846895D01*
X32738844Y-121846895D02*
X32815034Y-121884990D01*
X32815034Y-121884990D02*
X32853129Y-121923085D01*
X32853129Y-121923085D02*
X32891225Y-121999276D01*
X32891225Y-121999276D02*
X32891225Y-122113561D01*
X32891225Y-122113561D02*
X32853129Y-122189752D01*
X32853129Y-122189752D02*
X32815034Y-122227847D01*
X32815034Y-122227847D02*
X32738844Y-122265942D01*
X32738844Y-122265942D02*
X32434082Y-122265942D01*
X33195986Y-122418323D02*
X33576939Y-122418323D01*
X33119796Y-122646895D02*
X33386463Y-121846895D01*
X33386463Y-121846895D02*
X33653129Y-122646895D01*
X33881700Y-121923085D02*
X33919796Y-121884990D01*
X33919796Y-121884990D02*
X33995986Y-121846895D01*
X33995986Y-121846895D02*
X34186462Y-121846895D01*
X34186462Y-121846895D02*
X34262653Y-121884990D01*
X34262653Y-121884990D02*
X34300748Y-121923085D01*
X34300748Y-121923085D02*
X34338843Y-121999276D01*
X34338843Y-121999276D02*
X34338843Y-122075466D01*
X34338843Y-122075466D02*
X34300748Y-122189752D01*
X34300748Y-122189752D02*
X33843605Y-122646895D01*
X33843605Y-122646895D02*
X34338843Y-122646895D01*
X32434082Y-120146895D02*
X32434082Y-119346895D01*
X32434082Y-119346895D02*
X32738844Y-119346895D01*
X32738844Y-119346895D02*
X32815034Y-119384990D01*
X32815034Y-119384990D02*
X32853129Y-119423085D01*
X32853129Y-119423085D02*
X32891225Y-119499276D01*
X32891225Y-119499276D02*
X32891225Y-119613561D01*
X32891225Y-119613561D02*
X32853129Y-119689752D01*
X32853129Y-119689752D02*
X32815034Y-119727847D01*
X32815034Y-119727847D02*
X32738844Y-119765942D01*
X32738844Y-119765942D02*
X32434082Y-119765942D01*
X33691225Y-120070704D02*
X33653129Y-120108800D01*
X33653129Y-120108800D02*
X33538844Y-120146895D01*
X33538844Y-120146895D02*
X33462653Y-120146895D01*
X33462653Y-120146895D02*
X33348367Y-120108800D01*
X33348367Y-120108800D02*
X33272177Y-120032609D01*
X33272177Y-120032609D02*
X33234082Y-119956419D01*
X33234082Y-119956419D02*
X33195986Y-119804038D01*
X33195986Y-119804038D02*
X33195986Y-119689752D01*
X33195986Y-119689752D02*
X33234082Y-119537371D01*
X33234082Y-119537371D02*
X33272177Y-119461180D01*
X33272177Y-119461180D02*
X33348367Y-119384990D01*
X33348367Y-119384990D02*
X33462653Y-119346895D01*
X33462653Y-119346895D02*
X33538844Y-119346895D01*
X33538844Y-119346895D02*
X33653129Y-119384990D01*
X33653129Y-119384990D02*
X33691225Y-119423085D01*
X34453129Y-120146895D02*
X33995986Y-120146895D01*
X34224558Y-120146895D02*
X34224558Y-119346895D01*
X34224558Y-119346895D02*
X34148367Y-119461180D01*
X34148367Y-119461180D02*
X34072177Y-119537371D01*
X34072177Y-119537371D02*
X33995986Y-119575466D01*
X35176939Y-119346895D02*
X34795987Y-119346895D01*
X34795987Y-119346895D02*
X34757891Y-119727847D01*
X34757891Y-119727847D02*
X34795987Y-119689752D01*
X34795987Y-119689752D02*
X34872177Y-119651657D01*
X34872177Y-119651657D02*
X35062653Y-119651657D01*
X35062653Y-119651657D02*
X35138844Y-119689752D01*
X35138844Y-119689752D02*
X35176939Y-119727847D01*
X35176939Y-119727847D02*
X35215034Y-119804038D01*
X35215034Y-119804038D02*
X35215034Y-119994514D01*
X35215034Y-119994514D02*
X35176939Y-120070704D01*
X35176939Y-120070704D02*
X35138844Y-120108800D01*
X35138844Y-120108800D02*
X35062653Y-120146895D01*
X35062653Y-120146895D02*
X34872177Y-120146895D01*
X34872177Y-120146895D02*
X34795987Y-120108800D01*
X34795987Y-120108800D02*
X34757891Y-120070704D01*
X32434082Y-117646895D02*
X32434082Y-116846895D01*
X32434082Y-116846895D02*
X32738844Y-116846895D01*
X32738844Y-116846895D02*
X32815034Y-116884990D01*
X32815034Y-116884990D02*
X32853129Y-116923085D01*
X32853129Y-116923085D02*
X32891225Y-116999276D01*
X32891225Y-116999276D02*
X32891225Y-117113561D01*
X32891225Y-117113561D02*
X32853129Y-117189752D01*
X32853129Y-117189752D02*
X32815034Y-117227847D01*
X32815034Y-117227847D02*
X32738844Y-117265942D01*
X32738844Y-117265942D02*
X32434082Y-117265942D01*
X33691225Y-117570704D02*
X33653129Y-117608800D01*
X33653129Y-117608800D02*
X33538844Y-117646895D01*
X33538844Y-117646895D02*
X33462653Y-117646895D01*
X33462653Y-117646895D02*
X33348367Y-117608800D01*
X33348367Y-117608800D02*
X33272177Y-117532609D01*
X33272177Y-117532609D02*
X33234082Y-117456419D01*
X33234082Y-117456419D02*
X33195986Y-117304038D01*
X33195986Y-117304038D02*
X33195986Y-117189752D01*
X33195986Y-117189752D02*
X33234082Y-117037371D01*
X33234082Y-117037371D02*
X33272177Y-116961180D01*
X33272177Y-116961180D02*
X33348367Y-116884990D01*
X33348367Y-116884990D02*
X33462653Y-116846895D01*
X33462653Y-116846895D02*
X33538844Y-116846895D01*
X33538844Y-116846895D02*
X33653129Y-116884990D01*
X33653129Y-116884990D02*
X33691225Y-116923085D01*
X34453129Y-117646895D02*
X33995986Y-117646895D01*
X34224558Y-117646895D02*
X34224558Y-116846895D01*
X34224558Y-116846895D02*
X34148367Y-116961180D01*
X34148367Y-116961180D02*
X34072177Y-117037371D01*
X34072177Y-117037371D02*
X33995986Y-117075466D01*
X35138844Y-117113561D02*
X35138844Y-117646895D01*
X34948368Y-116808800D02*
X34757891Y-117380228D01*
X34757891Y-117380228D02*
X35253130Y-117380228D01*
X32434082Y-115146895D02*
X32434082Y-114346895D01*
X32434082Y-114346895D02*
X32738844Y-114346895D01*
X32738844Y-114346895D02*
X32815034Y-114384990D01*
X32815034Y-114384990D02*
X32853129Y-114423085D01*
X32853129Y-114423085D02*
X32891225Y-114499276D01*
X32891225Y-114499276D02*
X32891225Y-114613561D01*
X32891225Y-114613561D02*
X32853129Y-114689752D01*
X32853129Y-114689752D02*
X32815034Y-114727847D01*
X32815034Y-114727847D02*
X32738844Y-114765942D01*
X32738844Y-114765942D02*
X32434082Y-114765942D01*
X33691225Y-115070704D02*
X33653129Y-115108800D01*
X33653129Y-115108800D02*
X33538844Y-115146895D01*
X33538844Y-115146895D02*
X33462653Y-115146895D01*
X33462653Y-115146895D02*
X33348367Y-115108800D01*
X33348367Y-115108800D02*
X33272177Y-115032609D01*
X33272177Y-115032609D02*
X33234082Y-114956419D01*
X33234082Y-114956419D02*
X33195986Y-114804038D01*
X33195986Y-114804038D02*
X33195986Y-114689752D01*
X33195986Y-114689752D02*
X33234082Y-114537371D01*
X33234082Y-114537371D02*
X33272177Y-114461180D01*
X33272177Y-114461180D02*
X33348367Y-114384990D01*
X33348367Y-114384990D02*
X33462653Y-114346895D01*
X33462653Y-114346895D02*
X33538844Y-114346895D01*
X33538844Y-114346895D02*
X33653129Y-114384990D01*
X33653129Y-114384990D02*
X33691225Y-114423085D01*
X34453129Y-115146895D02*
X33995986Y-115146895D01*
X34224558Y-115146895D02*
X34224558Y-114346895D01*
X34224558Y-114346895D02*
X34148367Y-114461180D01*
X34148367Y-114461180D02*
X34072177Y-114537371D01*
X34072177Y-114537371D02*
X33995986Y-114575466D01*
X34719796Y-114346895D02*
X35215034Y-114346895D01*
X35215034Y-114346895D02*
X34948368Y-114651657D01*
X34948368Y-114651657D02*
X35062653Y-114651657D01*
X35062653Y-114651657D02*
X35138844Y-114689752D01*
X35138844Y-114689752D02*
X35176939Y-114727847D01*
X35176939Y-114727847D02*
X35215034Y-114804038D01*
X35215034Y-114804038D02*
X35215034Y-114994514D01*
X35215034Y-114994514D02*
X35176939Y-115070704D01*
X35176939Y-115070704D02*
X35138844Y-115108800D01*
X35138844Y-115108800D02*
X35062653Y-115146895D01*
X35062653Y-115146895D02*
X34834082Y-115146895D01*
X34834082Y-115146895D02*
X34757891Y-115108800D01*
X34757891Y-115108800D02*
X34719796Y-115070704D01*
X32434082Y-112646895D02*
X32434082Y-111846895D01*
X32434082Y-111846895D02*
X32738844Y-111846895D01*
X32738844Y-111846895D02*
X32815034Y-111884990D01*
X32815034Y-111884990D02*
X32853129Y-111923085D01*
X32853129Y-111923085D02*
X32891225Y-111999276D01*
X32891225Y-111999276D02*
X32891225Y-112113561D01*
X32891225Y-112113561D02*
X32853129Y-112189752D01*
X32853129Y-112189752D02*
X32815034Y-112227847D01*
X32815034Y-112227847D02*
X32738844Y-112265942D01*
X32738844Y-112265942D02*
X32434082Y-112265942D01*
X33691225Y-112570704D02*
X33653129Y-112608800D01*
X33653129Y-112608800D02*
X33538844Y-112646895D01*
X33538844Y-112646895D02*
X33462653Y-112646895D01*
X33462653Y-112646895D02*
X33348367Y-112608800D01*
X33348367Y-112608800D02*
X33272177Y-112532609D01*
X33272177Y-112532609D02*
X33234082Y-112456419D01*
X33234082Y-112456419D02*
X33195986Y-112304038D01*
X33195986Y-112304038D02*
X33195986Y-112189752D01*
X33195986Y-112189752D02*
X33234082Y-112037371D01*
X33234082Y-112037371D02*
X33272177Y-111961180D01*
X33272177Y-111961180D02*
X33348367Y-111884990D01*
X33348367Y-111884990D02*
X33462653Y-111846895D01*
X33462653Y-111846895D02*
X33538844Y-111846895D01*
X33538844Y-111846895D02*
X33653129Y-111884990D01*
X33653129Y-111884990D02*
X33691225Y-111923085D01*
X34453129Y-112646895D02*
X33995986Y-112646895D01*
X34224558Y-112646895D02*
X34224558Y-111846895D01*
X34224558Y-111846895D02*
X34148367Y-111961180D01*
X34148367Y-111961180D02*
X34072177Y-112037371D01*
X34072177Y-112037371D02*
X33995986Y-112075466D01*
X34757891Y-111923085D02*
X34795987Y-111884990D01*
X34795987Y-111884990D02*
X34872177Y-111846895D01*
X34872177Y-111846895D02*
X35062653Y-111846895D01*
X35062653Y-111846895D02*
X35138844Y-111884990D01*
X35138844Y-111884990D02*
X35176939Y-111923085D01*
X35176939Y-111923085D02*
X35215034Y-111999276D01*
X35215034Y-111999276D02*
X35215034Y-112075466D01*
X35215034Y-112075466D02*
X35176939Y-112189752D01*
X35176939Y-112189752D02*
X34719796Y-112646895D01*
X34719796Y-112646895D02*
X35215034Y-112646895D01*
X32434082Y-107896895D02*
X32434082Y-107096895D01*
X32434082Y-107096895D02*
X32738844Y-107096895D01*
X32738844Y-107096895D02*
X32815034Y-107134990D01*
X32815034Y-107134990D02*
X32853129Y-107173085D01*
X32853129Y-107173085D02*
X32891225Y-107249276D01*
X32891225Y-107249276D02*
X32891225Y-107363561D01*
X32891225Y-107363561D02*
X32853129Y-107439752D01*
X32853129Y-107439752D02*
X32815034Y-107477847D01*
X32815034Y-107477847D02*
X32738844Y-107515942D01*
X32738844Y-107515942D02*
X32434082Y-107515942D01*
X33691225Y-107820704D02*
X33653129Y-107858800D01*
X33653129Y-107858800D02*
X33538844Y-107896895D01*
X33538844Y-107896895D02*
X33462653Y-107896895D01*
X33462653Y-107896895D02*
X33348367Y-107858800D01*
X33348367Y-107858800D02*
X33272177Y-107782609D01*
X33272177Y-107782609D02*
X33234082Y-107706419D01*
X33234082Y-107706419D02*
X33195986Y-107554038D01*
X33195986Y-107554038D02*
X33195986Y-107439752D01*
X33195986Y-107439752D02*
X33234082Y-107287371D01*
X33234082Y-107287371D02*
X33272177Y-107211180D01*
X33272177Y-107211180D02*
X33348367Y-107134990D01*
X33348367Y-107134990D02*
X33462653Y-107096895D01*
X33462653Y-107096895D02*
X33538844Y-107096895D01*
X33538844Y-107096895D02*
X33653129Y-107134990D01*
X33653129Y-107134990D02*
X33691225Y-107173085D01*
X34453129Y-107896895D02*
X33995986Y-107896895D01*
X34224558Y-107896895D02*
X34224558Y-107096895D01*
X34224558Y-107096895D02*
X34148367Y-107211180D01*
X34148367Y-107211180D02*
X34072177Y-107287371D01*
X34072177Y-107287371D02*
X33995986Y-107325466D01*
X34948368Y-107096895D02*
X35024558Y-107096895D01*
X35024558Y-107096895D02*
X35100749Y-107134990D01*
X35100749Y-107134990D02*
X35138844Y-107173085D01*
X35138844Y-107173085D02*
X35176939Y-107249276D01*
X35176939Y-107249276D02*
X35215034Y-107401657D01*
X35215034Y-107401657D02*
X35215034Y-107592133D01*
X35215034Y-107592133D02*
X35176939Y-107744514D01*
X35176939Y-107744514D02*
X35138844Y-107820704D01*
X35138844Y-107820704D02*
X35100749Y-107858800D01*
X35100749Y-107858800D02*
X35024558Y-107896895D01*
X35024558Y-107896895D02*
X34948368Y-107896895D01*
X34948368Y-107896895D02*
X34872177Y-107858800D01*
X34872177Y-107858800D02*
X34834082Y-107820704D01*
X34834082Y-107820704D02*
X34795987Y-107744514D01*
X34795987Y-107744514D02*
X34757891Y-107592133D01*
X34757891Y-107592133D02*
X34757891Y-107401657D01*
X34757891Y-107401657D02*
X34795987Y-107249276D01*
X34795987Y-107249276D02*
X34834082Y-107173085D01*
X34834082Y-107173085D02*
X34872177Y-107134990D01*
X34872177Y-107134990D02*
X34948368Y-107096895D01*
X32434082Y-105396895D02*
X32434082Y-104596895D01*
X32434082Y-104596895D02*
X32738844Y-104596895D01*
X32738844Y-104596895D02*
X32815034Y-104634990D01*
X32815034Y-104634990D02*
X32853129Y-104673085D01*
X32853129Y-104673085D02*
X32891225Y-104749276D01*
X32891225Y-104749276D02*
X32891225Y-104863561D01*
X32891225Y-104863561D02*
X32853129Y-104939752D01*
X32853129Y-104939752D02*
X32815034Y-104977847D01*
X32815034Y-104977847D02*
X32738844Y-105015942D01*
X32738844Y-105015942D02*
X32434082Y-105015942D01*
X33691225Y-105320704D02*
X33653129Y-105358800D01*
X33653129Y-105358800D02*
X33538844Y-105396895D01*
X33538844Y-105396895D02*
X33462653Y-105396895D01*
X33462653Y-105396895D02*
X33348367Y-105358800D01*
X33348367Y-105358800D02*
X33272177Y-105282609D01*
X33272177Y-105282609D02*
X33234082Y-105206419D01*
X33234082Y-105206419D02*
X33195986Y-105054038D01*
X33195986Y-105054038D02*
X33195986Y-104939752D01*
X33195986Y-104939752D02*
X33234082Y-104787371D01*
X33234082Y-104787371D02*
X33272177Y-104711180D01*
X33272177Y-104711180D02*
X33348367Y-104634990D01*
X33348367Y-104634990D02*
X33462653Y-104596895D01*
X33462653Y-104596895D02*
X33538844Y-104596895D01*
X33538844Y-104596895D02*
X33653129Y-104634990D01*
X33653129Y-104634990D02*
X33691225Y-104673085D01*
X34148367Y-104939752D02*
X34072177Y-104901657D01*
X34072177Y-104901657D02*
X34034082Y-104863561D01*
X34034082Y-104863561D02*
X33995986Y-104787371D01*
X33995986Y-104787371D02*
X33995986Y-104749276D01*
X33995986Y-104749276D02*
X34034082Y-104673085D01*
X34034082Y-104673085D02*
X34072177Y-104634990D01*
X34072177Y-104634990D02*
X34148367Y-104596895D01*
X34148367Y-104596895D02*
X34300748Y-104596895D01*
X34300748Y-104596895D02*
X34376939Y-104634990D01*
X34376939Y-104634990D02*
X34415034Y-104673085D01*
X34415034Y-104673085D02*
X34453129Y-104749276D01*
X34453129Y-104749276D02*
X34453129Y-104787371D01*
X34453129Y-104787371D02*
X34415034Y-104863561D01*
X34415034Y-104863561D02*
X34376939Y-104901657D01*
X34376939Y-104901657D02*
X34300748Y-104939752D01*
X34300748Y-104939752D02*
X34148367Y-104939752D01*
X34148367Y-104939752D02*
X34072177Y-104977847D01*
X34072177Y-104977847D02*
X34034082Y-105015942D01*
X34034082Y-105015942D02*
X33995986Y-105092133D01*
X33995986Y-105092133D02*
X33995986Y-105244514D01*
X33995986Y-105244514D02*
X34034082Y-105320704D01*
X34034082Y-105320704D02*
X34072177Y-105358800D01*
X34072177Y-105358800D02*
X34148367Y-105396895D01*
X34148367Y-105396895D02*
X34300748Y-105396895D01*
X34300748Y-105396895D02*
X34376939Y-105358800D01*
X34376939Y-105358800D02*
X34415034Y-105320704D01*
X34415034Y-105320704D02*
X34453129Y-105244514D01*
X34453129Y-105244514D02*
X34453129Y-105092133D01*
X34453129Y-105092133D02*
X34415034Y-105015942D01*
X34415034Y-105015942D02*
X34376939Y-104977847D01*
X34376939Y-104977847D02*
X34300748Y-104939752D01*
X32434082Y-102896895D02*
X32434082Y-102096895D01*
X32434082Y-102096895D02*
X32738844Y-102096895D01*
X32738844Y-102096895D02*
X32815034Y-102134990D01*
X32815034Y-102134990D02*
X32853129Y-102173085D01*
X32853129Y-102173085D02*
X32891225Y-102249276D01*
X32891225Y-102249276D02*
X32891225Y-102363561D01*
X32891225Y-102363561D02*
X32853129Y-102439752D01*
X32853129Y-102439752D02*
X32815034Y-102477847D01*
X32815034Y-102477847D02*
X32738844Y-102515942D01*
X32738844Y-102515942D02*
X32434082Y-102515942D01*
X33691225Y-102820704D02*
X33653129Y-102858800D01*
X33653129Y-102858800D02*
X33538844Y-102896895D01*
X33538844Y-102896895D02*
X33462653Y-102896895D01*
X33462653Y-102896895D02*
X33348367Y-102858800D01*
X33348367Y-102858800D02*
X33272177Y-102782609D01*
X33272177Y-102782609D02*
X33234082Y-102706419D01*
X33234082Y-102706419D02*
X33195986Y-102554038D01*
X33195986Y-102554038D02*
X33195986Y-102439752D01*
X33195986Y-102439752D02*
X33234082Y-102287371D01*
X33234082Y-102287371D02*
X33272177Y-102211180D01*
X33272177Y-102211180D02*
X33348367Y-102134990D01*
X33348367Y-102134990D02*
X33462653Y-102096895D01*
X33462653Y-102096895D02*
X33538844Y-102096895D01*
X33538844Y-102096895D02*
X33653129Y-102134990D01*
X33653129Y-102134990D02*
X33691225Y-102173085D01*
X33957891Y-102096895D02*
X34491225Y-102096895D01*
X34491225Y-102096895D02*
X34148367Y-102896895D01*
X32434082Y-100146895D02*
X32434082Y-99346895D01*
X32434082Y-99346895D02*
X32738844Y-99346895D01*
X32738844Y-99346895D02*
X32815034Y-99384990D01*
X32815034Y-99384990D02*
X32853129Y-99423085D01*
X32853129Y-99423085D02*
X32891225Y-99499276D01*
X32891225Y-99499276D02*
X32891225Y-99613561D01*
X32891225Y-99613561D02*
X32853129Y-99689752D01*
X32853129Y-99689752D02*
X32815034Y-99727847D01*
X32815034Y-99727847D02*
X32738844Y-99765942D01*
X32738844Y-99765942D02*
X32434082Y-99765942D01*
X33691225Y-100070704D02*
X33653129Y-100108800D01*
X33653129Y-100108800D02*
X33538844Y-100146895D01*
X33538844Y-100146895D02*
X33462653Y-100146895D01*
X33462653Y-100146895D02*
X33348367Y-100108800D01*
X33348367Y-100108800D02*
X33272177Y-100032609D01*
X33272177Y-100032609D02*
X33234082Y-99956419D01*
X33234082Y-99956419D02*
X33195986Y-99804038D01*
X33195986Y-99804038D02*
X33195986Y-99689752D01*
X33195986Y-99689752D02*
X33234082Y-99537371D01*
X33234082Y-99537371D02*
X33272177Y-99461180D01*
X33272177Y-99461180D02*
X33348367Y-99384990D01*
X33348367Y-99384990D02*
X33462653Y-99346895D01*
X33462653Y-99346895D02*
X33538844Y-99346895D01*
X33538844Y-99346895D02*
X33653129Y-99384990D01*
X33653129Y-99384990D02*
X33691225Y-99423085D01*
X34376939Y-99346895D02*
X34224558Y-99346895D01*
X34224558Y-99346895D02*
X34148367Y-99384990D01*
X34148367Y-99384990D02*
X34110272Y-99423085D01*
X34110272Y-99423085D02*
X34034082Y-99537371D01*
X34034082Y-99537371D02*
X33995986Y-99689752D01*
X33995986Y-99689752D02*
X33995986Y-99994514D01*
X33995986Y-99994514D02*
X34034082Y-100070704D01*
X34034082Y-100070704D02*
X34072177Y-100108800D01*
X34072177Y-100108800D02*
X34148367Y-100146895D01*
X34148367Y-100146895D02*
X34300748Y-100146895D01*
X34300748Y-100146895D02*
X34376939Y-100108800D01*
X34376939Y-100108800D02*
X34415034Y-100070704D01*
X34415034Y-100070704D02*
X34453129Y-99994514D01*
X34453129Y-99994514D02*
X34453129Y-99804038D01*
X34453129Y-99804038D02*
X34415034Y-99727847D01*
X34415034Y-99727847D02*
X34376939Y-99689752D01*
X34376939Y-99689752D02*
X34300748Y-99651657D01*
X34300748Y-99651657D02*
X34148367Y-99651657D01*
X34148367Y-99651657D02*
X34072177Y-99689752D01*
X34072177Y-99689752D02*
X34034082Y-99727847D01*
X34034082Y-99727847D02*
X33995986Y-99804038D01*
X32434082Y-97646895D02*
X32434082Y-96846895D01*
X32434082Y-96846895D02*
X32738844Y-96846895D01*
X32738844Y-96846895D02*
X32815034Y-96884990D01*
X32815034Y-96884990D02*
X32853129Y-96923085D01*
X32853129Y-96923085D02*
X32891225Y-96999276D01*
X32891225Y-96999276D02*
X32891225Y-97113561D01*
X32891225Y-97113561D02*
X32853129Y-97189752D01*
X32853129Y-97189752D02*
X32815034Y-97227847D01*
X32815034Y-97227847D02*
X32738844Y-97265942D01*
X32738844Y-97265942D02*
X32434082Y-97265942D01*
X33691225Y-97570704D02*
X33653129Y-97608800D01*
X33653129Y-97608800D02*
X33538844Y-97646895D01*
X33538844Y-97646895D02*
X33462653Y-97646895D01*
X33462653Y-97646895D02*
X33348367Y-97608800D01*
X33348367Y-97608800D02*
X33272177Y-97532609D01*
X33272177Y-97532609D02*
X33234082Y-97456419D01*
X33234082Y-97456419D02*
X33195986Y-97304038D01*
X33195986Y-97304038D02*
X33195986Y-97189752D01*
X33195986Y-97189752D02*
X33234082Y-97037371D01*
X33234082Y-97037371D02*
X33272177Y-96961180D01*
X33272177Y-96961180D02*
X33348367Y-96884990D01*
X33348367Y-96884990D02*
X33462653Y-96846895D01*
X33462653Y-96846895D02*
X33538844Y-96846895D01*
X33538844Y-96846895D02*
X33653129Y-96884990D01*
X33653129Y-96884990D02*
X33691225Y-96923085D01*
X33957891Y-96846895D02*
X34453129Y-96846895D01*
X34453129Y-96846895D02*
X34186463Y-97151657D01*
X34186463Y-97151657D02*
X34300748Y-97151657D01*
X34300748Y-97151657D02*
X34376939Y-97189752D01*
X34376939Y-97189752D02*
X34415034Y-97227847D01*
X34415034Y-97227847D02*
X34453129Y-97304038D01*
X34453129Y-97304038D02*
X34453129Y-97494514D01*
X34453129Y-97494514D02*
X34415034Y-97570704D01*
X34415034Y-97570704D02*
X34376939Y-97608800D01*
X34376939Y-97608800D02*
X34300748Y-97646895D01*
X34300748Y-97646895D02*
X34072177Y-97646895D01*
X34072177Y-97646895D02*
X33995986Y-97608800D01*
X33995986Y-97608800D02*
X33957891Y-97570704D01*
X32434082Y-94896895D02*
X32434082Y-94096895D01*
X32434082Y-94096895D02*
X32738844Y-94096895D01*
X32738844Y-94096895D02*
X32815034Y-94134990D01*
X32815034Y-94134990D02*
X32853129Y-94173085D01*
X32853129Y-94173085D02*
X32891225Y-94249276D01*
X32891225Y-94249276D02*
X32891225Y-94363561D01*
X32891225Y-94363561D02*
X32853129Y-94439752D01*
X32853129Y-94439752D02*
X32815034Y-94477847D01*
X32815034Y-94477847D02*
X32738844Y-94515942D01*
X32738844Y-94515942D02*
X32434082Y-94515942D01*
X33691225Y-94820704D02*
X33653129Y-94858800D01*
X33653129Y-94858800D02*
X33538844Y-94896895D01*
X33538844Y-94896895D02*
X33462653Y-94896895D01*
X33462653Y-94896895D02*
X33348367Y-94858800D01*
X33348367Y-94858800D02*
X33272177Y-94782609D01*
X33272177Y-94782609D02*
X33234082Y-94706419D01*
X33234082Y-94706419D02*
X33195986Y-94554038D01*
X33195986Y-94554038D02*
X33195986Y-94439752D01*
X33195986Y-94439752D02*
X33234082Y-94287371D01*
X33234082Y-94287371D02*
X33272177Y-94211180D01*
X33272177Y-94211180D02*
X33348367Y-94134990D01*
X33348367Y-94134990D02*
X33462653Y-94096895D01*
X33462653Y-94096895D02*
X33538844Y-94096895D01*
X33538844Y-94096895D02*
X33653129Y-94134990D01*
X33653129Y-94134990D02*
X33691225Y-94173085D01*
X33995986Y-94173085D02*
X34034082Y-94134990D01*
X34034082Y-94134990D02*
X34110272Y-94096895D01*
X34110272Y-94096895D02*
X34300748Y-94096895D01*
X34300748Y-94096895D02*
X34376939Y-94134990D01*
X34376939Y-94134990D02*
X34415034Y-94173085D01*
X34415034Y-94173085D02*
X34453129Y-94249276D01*
X34453129Y-94249276D02*
X34453129Y-94325466D01*
X34453129Y-94325466D02*
X34415034Y-94439752D01*
X34415034Y-94439752D02*
X33957891Y-94896895D01*
X33957891Y-94896895D02*
X34453129Y-94896895D01*
X32434082Y-92396895D02*
X32434082Y-91596895D01*
X32434082Y-91596895D02*
X32738844Y-91596895D01*
X32738844Y-91596895D02*
X32815034Y-91634990D01*
X32815034Y-91634990D02*
X32853129Y-91673085D01*
X32853129Y-91673085D02*
X32891225Y-91749276D01*
X32891225Y-91749276D02*
X32891225Y-91863561D01*
X32891225Y-91863561D02*
X32853129Y-91939752D01*
X32853129Y-91939752D02*
X32815034Y-91977847D01*
X32815034Y-91977847D02*
X32738844Y-92015942D01*
X32738844Y-92015942D02*
X32434082Y-92015942D01*
X33691225Y-92320704D02*
X33653129Y-92358800D01*
X33653129Y-92358800D02*
X33538844Y-92396895D01*
X33538844Y-92396895D02*
X33462653Y-92396895D01*
X33462653Y-92396895D02*
X33348367Y-92358800D01*
X33348367Y-92358800D02*
X33272177Y-92282609D01*
X33272177Y-92282609D02*
X33234082Y-92206419D01*
X33234082Y-92206419D02*
X33195986Y-92054038D01*
X33195986Y-92054038D02*
X33195986Y-91939752D01*
X33195986Y-91939752D02*
X33234082Y-91787371D01*
X33234082Y-91787371D02*
X33272177Y-91711180D01*
X33272177Y-91711180D02*
X33348367Y-91634990D01*
X33348367Y-91634990D02*
X33462653Y-91596895D01*
X33462653Y-91596895D02*
X33538844Y-91596895D01*
X33538844Y-91596895D02*
X33653129Y-91634990D01*
X33653129Y-91634990D02*
X33691225Y-91673085D01*
X34453129Y-92396895D02*
X33995986Y-92396895D01*
X34224558Y-92396895D02*
X34224558Y-91596895D01*
X34224558Y-91596895D02*
X34148367Y-91711180D01*
X34148367Y-91711180D02*
X34072177Y-91787371D01*
X34072177Y-91787371D02*
X33995986Y-91825466D01*
X32434082Y-110396895D02*
X32434082Y-109596895D01*
X32434082Y-109596895D02*
X32738844Y-109596895D01*
X32738844Y-109596895D02*
X32815034Y-109634990D01*
X32815034Y-109634990D02*
X32853129Y-109673085D01*
X32853129Y-109673085D02*
X32891225Y-109749276D01*
X32891225Y-109749276D02*
X32891225Y-109863561D01*
X32891225Y-109863561D02*
X32853129Y-109939752D01*
X32853129Y-109939752D02*
X32815034Y-109977847D01*
X32815034Y-109977847D02*
X32738844Y-110015942D01*
X32738844Y-110015942D02*
X32434082Y-110015942D01*
X33691225Y-110320704D02*
X33653129Y-110358800D01*
X33653129Y-110358800D02*
X33538844Y-110396895D01*
X33538844Y-110396895D02*
X33462653Y-110396895D01*
X33462653Y-110396895D02*
X33348367Y-110358800D01*
X33348367Y-110358800D02*
X33272177Y-110282609D01*
X33272177Y-110282609D02*
X33234082Y-110206419D01*
X33234082Y-110206419D02*
X33195986Y-110054038D01*
X33195986Y-110054038D02*
X33195986Y-109939752D01*
X33195986Y-109939752D02*
X33234082Y-109787371D01*
X33234082Y-109787371D02*
X33272177Y-109711180D01*
X33272177Y-109711180D02*
X33348367Y-109634990D01*
X33348367Y-109634990D02*
X33462653Y-109596895D01*
X33462653Y-109596895D02*
X33538844Y-109596895D01*
X33538844Y-109596895D02*
X33653129Y-109634990D01*
X33653129Y-109634990D02*
X33691225Y-109673085D01*
X34453129Y-110396895D02*
X33995986Y-110396895D01*
X34224558Y-110396895D02*
X34224558Y-109596895D01*
X34224558Y-109596895D02*
X34148367Y-109711180D01*
X34148367Y-109711180D02*
X34072177Y-109787371D01*
X34072177Y-109787371D02*
X33995986Y-109825466D01*
X35215034Y-110396895D02*
X34757891Y-110396895D01*
X34986463Y-110396895D02*
X34986463Y-109596895D01*
X34986463Y-109596895D02*
X34910272Y-109711180D01*
X34910272Y-109711180D02*
X34834082Y-109787371D01*
X34834082Y-109787371D02*
X34757891Y-109825466D01*
X32434082Y-89646895D02*
X32434082Y-88846895D01*
X32434082Y-88846895D02*
X32738844Y-88846895D01*
X32738844Y-88846895D02*
X32815034Y-88884990D01*
X32815034Y-88884990D02*
X32853129Y-88923085D01*
X32853129Y-88923085D02*
X32891225Y-88999276D01*
X32891225Y-88999276D02*
X32891225Y-89113561D01*
X32891225Y-89113561D02*
X32853129Y-89189752D01*
X32853129Y-89189752D02*
X32815034Y-89227847D01*
X32815034Y-89227847D02*
X32738844Y-89265942D01*
X32738844Y-89265942D02*
X32434082Y-89265942D01*
X33691225Y-89570704D02*
X33653129Y-89608800D01*
X33653129Y-89608800D02*
X33538844Y-89646895D01*
X33538844Y-89646895D02*
X33462653Y-89646895D01*
X33462653Y-89646895D02*
X33348367Y-89608800D01*
X33348367Y-89608800D02*
X33272177Y-89532609D01*
X33272177Y-89532609D02*
X33234082Y-89456419D01*
X33234082Y-89456419D02*
X33195986Y-89304038D01*
X33195986Y-89304038D02*
X33195986Y-89189752D01*
X33195986Y-89189752D02*
X33234082Y-89037371D01*
X33234082Y-89037371D02*
X33272177Y-88961180D01*
X33272177Y-88961180D02*
X33348367Y-88884990D01*
X33348367Y-88884990D02*
X33462653Y-88846895D01*
X33462653Y-88846895D02*
X33538844Y-88846895D01*
X33538844Y-88846895D02*
X33653129Y-88884990D01*
X33653129Y-88884990D02*
X33691225Y-88923085D01*
X34186463Y-88846895D02*
X34262653Y-88846895D01*
X34262653Y-88846895D02*
X34338844Y-88884990D01*
X34338844Y-88884990D02*
X34376939Y-88923085D01*
X34376939Y-88923085D02*
X34415034Y-88999276D01*
X34415034Y-88999276D02*
X34453129Y-89151657D01*
X34453129Y-89151657D02*
X34453129Y-89342133D01*
X34453129Y-89342133D02*
X34415034Y-89494514D01*
X34415034Y-89494514D02*
X34376939Y-89570704D01*
X34376939Y-89570704D02*
X34338844Y-89608800D01*
X34338844Y-89608800D02*
X34262653Y-89646895D01*
X34262653Y-89646895D02*
X34186463Y-89646895D01*
X34186463Y-89646895D02*
X34110272Y-89608800D01*
X34110272Y-89608800D02*
X34072177Y-89570704D01*
X34072177Y-89570704D02*
X34034082Y-89494514D01*
X34034082Y-89494514D02*
X33995986Y-89342133D01*
X33995986Y-89342133D02*
X33995986Y-89151657D01*
X33995986Y-89151657D02*
X34034082Y-88999276D01*
X34034082Y-88999276D02*
X34072177Y-88923085D01*
X34072177Y-88923085D02*
X34110272Y-88884990D01*
X34110272Y-88884990D02*
X34186463Y-88846895D01*
X32853129Y-86384990D02*
X32776939Y-86346895D01*
X32776939Y-86346895D02*
X32662653Y-86346895D01*
X32662653Y-86346895D02*
X32548367Y-86384990D01*
X32548367Y-86384990D02*
X32472177Y-86461180D01*
X32472177Y-86461180D02*
X32434082Y-86537371D01*
X32434082Y-86537371D02*
X32395986Y-86689752D01*
X32395986Y-86689752D02*
X32395986Y-86804038D01*
X32395986Y-86804038D02*
X32434082Y-86956419D01*
X32434082Y-86956419D02*
X32472177Y-87032609D01*
X32472177Y-87032609D02*
X32548367Y-87108800D01*
X32548367Y-87108800D02*
X32662653Y-87146895D01*
X32662653Y-87146895D02*
X32738844Y-87146895D01*
X32738844Y-87146895D02*
X32853129Y-87108800D01*
X32853129Y-87108800D02*
X32891225Y-87070704D01*
X32891225Y-87070704D02*
X32891225Y-86804038D01*
X32891225Y-86804038D02*
X32738844Y-86804038D01*
X33234082Y-87146895D02*
X33234082Y-86346895D01*
X33234082Y-86346895D02*
X33691225Y-87146895D01*
X33691225Y-87146895D02*
X33691225Y-86346895D01*
X34072177Y-87146895D02*
X34072177Y-86346895D01*
X34072177Y-86346895D02*
X34262653Y-86346895D01*
X34262653Y-86346895D02*
X34376939Y-86384990D01*
X34376939Y-86384990D02*
X34453129Y-86461180D01*
X34453129Y-86461180D02*
X34491224Y-86537371D01*
X34491224Y-86537371D02*
X34529320Y-86689752D01*
X34529320Y-86689752D02*
X34529320Y-86804038D01*
X34529320Y-86804038D02*
X34491224Y-86956419D01*
X34491224Y-86956419D02*
X34453129Y-87032609D01*
X34453129Y-87032609D02*
X34376939Y-87108800D01*
X34376939Y-87108800D02*
X34262653Y-87146895D01*
X34262653Y-87146895D02*
X34072177Y-87146895D01*
X32853129Y-83884990D02*
X32776939Y-83846895D01*
X32776939Y-83846895D02*
X32662653Y-83846895D01*
X32662653Y-83846895D02*
X32548367Y-83884990D01*
X32548367Y-83884990D02*
X32472177Y-83961180D01*
X32472177Y-83961180D02*
X32434082Y-84037371D01*
X32434082Y-84037371D02*
X32395986Y-84189752D01*
X32395986Y-84189752D02*
X32395986Y-84304038D01*
X32395986Y-84304038D02*
X32434082Y-84456419D01*
X32434082Y-84456419D02*
X32472177Y-84532609D01*
X32472177Y-84532609D02*
X32548367Y-84608800D01*
X32548367Y-84608800D02*
X32662653Y-84646895D01*
X32662653Y-84646895D02*
X32738844Y-84646895D01*
X32738844Y-84646895D02*
X32853129Y-84608800D01*
X32853129Y-84608800D02*
X32891225Y-84570704D01*
X32891225Y-84570704D02*
X32891225Y-84304038D01*
X32891225Y-84304038D02*
X32738844Y-84304038D01*
X33234082Y-84646895D02*
X33234082Y-83846895D01*
X33234082Y-83846895D02*
X33691225Y-84646895D01*
X33691225Y-84646895D02*
X33691225Y-83846895D01*
X34072177Y-84646895D02*
X34072177Y-83846895D01*
X34072177Y-83846895D02*
X34262653Y-83846895D01*
X34262653Y-83846895D02*
X34376939Y-83884990D01*
X34376939Y-83884990D02*
X34453129Y-83961180D01*
X34453129Y-83961180D02*
X34491224Y-84037371D01*
X34491224Y-84037371D02*
X34529320Y-84189752D01*
X34529320Y-84189752D02*
X34529320Y-84304038D01*
X34529320Y-84304038D02*
X34491224Y-84456419D01*
X34491224Y-84456419D02*
X34453129Y-84532609D01*
X34453129Y-84532609D02*
X34376939Y-84608800D01*
X34376939Y-84608800D02*
X34262653Y-84646895D01*
X34262653Y-84646895D02*
X34072177Y-84646895D01*
X32357891Y-81346895D02*
X32853129Y-81346895D01*
X32853129Y-81346895D02*
X32586463Y-81651657D01*
X32586463Y-81651657D02*
X32700748Y-81651657D01*
X32700748Y-81651657D02*
X32776939Y-81689752D01*
X32776939Y-81689752D02*
X32815034Y-81727847D01*
X32815034Y-81727847D02*
X32853129Y-81804038D01*
X32853129Y-81804038D02*
X32853129Y-81994514D01*
X32853129Y-81994514D02*
X32815034Y-82070704D01*
X32815034Y-82070704D02*
X32776939Y-82108800D01*
X32776939Y-82108800D02*
X32700748Y-82146895D01*
X32700748Y-82146895D02*
X32472177Y-82146895D01*
X32472177Y-82146895D02*
X32395986Y-82108800D01*
X32395986Y-82108800D02*
X32357891Y-82070704D01*
X33081701Y-81346895D02*
X33348368Y-82146895D01*
X33348368Y-82146895D02*
X33615034Y-81346895D01*
X33805510Y-81346895D02*
X34300748Y-81346895D01*
X34300748Y-81346895D02*
X34034082Y-81651657D01*
X34034082Y-81651657D02*
X34148367Y-81651657D01*
X34148367Y-81651657D02*
X34224558Y-81689752D01*
X34224558Y-81689752D02*
X34262653Y-81727847D01*
X34262653Y-81727847D02*
X34300748Y-81804038D01*
X34300748Y-81804038D02*
X34300748Y-81994514D01*
X34300748Y-81994514D02*
X34262653Y-82070704D01*
X34262653Y-82070704D02*
X34224558Y-82108800D01*
X34224558Y-82108800D02*
X34148367Y-82146895D01*
X34148367Y-82146895D02*
X33919796Y-82146895D01*
X33919796Y-82146895D02*
X33843605Y-82108800D01*
X33843605Y-82108800D02*
X33805510Y-82070704D01*
X32357891Y-78846895D02*
X32853129Y-78846895D01*
X32853129Y-78846895D02*
X32586463Y-79151657D01*
X32586463Y-79151657D02*
X32700748Y-79151657D01*
X32700748Y-79151657D02*
X32776939Y-79189752D01*
X32776939Y-79189752D02*
X32815034Y-79227847D01*
X32815034Y-79227847D02*
X32853129Y-79304038D01*
X32853129Y-79304038D02*
X32853129Y-79494514D01*
X32853129Y-79494514D02*
X32815034Y-79570704D01*
X32815034Y-79570704D02*
X32776939Y-79608800D01*
X32776939Y-79608800D02*
X32700748Y-79646895D01*
X32700748Y-79646895D02*
X32472177Y-79646895D01*
X32472177Y-79646895D02*
X32395986Y-79608800D01*
X32395986Y-79608800D02*
X32357891Y-79570704D01*
X33081701Y-78846895D02*
X33348368Y-79646895D01*
X33348368Y-79646895D02*
X33615034Y-78846895D01*
X33805510Y-78846895D02*
X34300748Y-78846895D01*
X34300748Y-78846895D02*
X34034082Y-79151657D01*
X34034082Y-79151657D02*
X34148367Y-79151657D01*
X34148367Y-79151657D02*
X34224558Y-79189752D01*
X34224558Y-79189752D02*
X34262653Y-79227847D01*
X34262653Y-79227847D02*
X34300748Y-79304038D01*
X34300748Y-79304038D02*
X34300748Y-79494514D01*
X34300748Y-79494514D02*
X34262653Y-79570704D01*
X34262653Y-79570704D02*
X34224558Y-79608800D01*
X34224558Y-79608800D02*
X34148367Y-79646895D01*
X34148367Y-79646895D02*
X33919796Y-79646895D01*
X33919796Y-79646895D02*
X33843605Y-79608800D01*
X33843605Y-79608800D02*
X33805510Y-79570704D01*
X49887217Y-128146895D02*
X49506265Y-128146895D01*
X49506265Y-128146895D02*
X49506265Y-127346895D01*
X50077693Y-127346895D02*
X50611027Y-127346895D01*
X50611027Y-127346895D02*
X50077693Y-128146895D01*
X50077693Y-128146895D02*
X50611027Y-128146895D01*
X51791979Y-127727847D02*
X51525313Y-127727847D01*
X51525313Y-128146895D02*
X51525313Y-127346895D01*
X51525313Y-127346895D02*
X51906265Y-127346895D01*
X52553884Y-127613561D02*
X52553884Y-128146895D01*
X52363408Y-127308800D02*
X52172931Y-127880228D01*
X52172931Y-127880228D02*
X52668170Y-127880228D01*
X53582456Y-128146895D02*
X53582456Y-127346895D01*
X53582456Y-127346895D02*
X53772932Y-127346895D01*
X53772932Y-127346895D02*
X53887218Y-127384990D01*
X53887218Y-127384990D02*
X53963408Y-127461180D01*
X53963408Y-127461180D02*
X54001503Y-127537371D01*
X54001503Y-127537371D02*
X54039599Y-127689752D01*
X54039599Y-127689752D02*
X54039599Y-127804038D01*
X54039599Y-127804038D02*
X54001503Y-127956419D01*
X54001503Y-127956419D02*
X53963408Y-128032609D01*
X53963408Y-128032609D02*
X53887218Y-128108800D01*
X53887218Y-128108800D02*
X53772932Y-128146895D01*
X53772932Y-128146895D02*
X53582456Y-128146895D01*
X54687218Y-128108800D02*
X54611027Y-128146895D01*
X54611027Y-128146895D02*
X54458646Y-128146895D01*
X54458646Y-128146895D02*
X54382456Y-128108800D01*
X54382456Y-128108800D02*
X54344360Y-128032609D01*
X54344360Y-128032609D02*
X54344360Y-127727847D01*
X54344360Y-127727847D02*
X54382456Y-127651657D01*
X54382456Y-127651657D02*
X54458646Y-127613561D01*
X54458646Y-127613561D02*
X54611027Y-127613561D01*
X54611027Y-127613561D02*
X54687218Y-127651657D01*
X54687218Y-127651657D02*
X54725313Y-127727847D01*
X54725313Y-127727847D02*
X54725313Y-127804038D01*
X54725313Y-127804038D02*
X54344360Y-127880228D01*
X54991979Y-127613561D02*
X55182455Y-128146895D01*
X55182455Y-128146895D02*
X55372932Y-127613561D01*
X55982456Y-128108800D02*
X55906265Y-128146895D01*
X55906265Y-128146895D02*
X55753884Y-128146895D01*
X55753884Y-128146895D02*
X55677694Y-128108800D01*
X55677694Y-128108800D02*
X55639598Y-128032609D01*
X55639598Y-128032609D02*
X55639598Y-127727847D01*
X55639598Y-127727847D02*
X55677694Y-127651657D01*
X55677694Y-127651657D02*
X55753884Y-127613561D01*
X55753884Y-127613561D02*
X55906265Y-127613561D01*
X55906265Y-127613561D02*
X55982456Y-127651657D01*
X55982456Y-127651657D02*
X56020551Y-127727847D01*
X56020551Y-127727847D02*
X56020551Y-127804038D01*
X56020551Y-127804038D02*
X55639598Y-127880228D01*
X56477693Y-128146895D02*
X56401503Y-128108800D01*
X56401503Y-128108800D02*
X56363408Y-128032609D01*
X56363408Y-128032609D02*
X56363408Y-127346895D01*
X56896741Y-128146895D02*
X56820551Y-128108800D01*
X56820551Y-128108800D02*
X56782456Y-128070704D01*
X56782456Y-128070704D02*
X56744360Y-127994514D01*
X56744360Y-127994514D02*
X56744360Y-127765942D01*
X56744360Y-127765942D02*
X56782456Y-127689752D01*
X56782456Y-127689752D02*
X56820551Y-127651657D01*
X56820551Y-127651657D02*
X56896741Y-127613561D01*
X56896741Y-127613561D02*
X57011027Y-127613561D01*
X57011027Y-127613561D02*
X57087218Y-127651657D01*
X57087218Y-127651657D02*
X57125313Y-127689752D01*
X57125313Y-127689752D02*
X57163408Y-127765942D01*
X57163408Y-127765942D02*
X57163408Y-127994514D01*
X57163408Y-127994514D02*
X57125313Y-128070704D01*
X57125313Y-128070704D02*
X57087218Y-128108800D01*
X57087218Y-128108800D02*
X57011027Y-128146895D01*
X57011027Y-128146895D02*
X56896741Y-128146895D01*
X57506266Y-127613561D02*
X57506266Y-128413561D01*
X57506266Y-127651657D02*
X57582456Y-127613561D01*
X57582456Y-127613561D02*
X57734837Y-127613561D01*
X57734837Y-127613561D02*
X57811028Y-127651657D01*
X57811028Y-127651657D02*
X57849123Y-127689752D01*
X57849123Y-127689752D02*
X57887218Y-127765942D01*
X57887218Y-127765942D02*
X57887218Y-127994514D01*
X57887218Y-127994514D02*
X57849123Y-128070704D01*
X57849123Y-128070704D02*
X57811028Y-128108800D01*
X57811028Y-128108800D02*
X57734837Y-128146895D01*
X57734837Y-128146895D02*
X57582456Y-128146895D01*
X57582456Y-128146895D02*
X57506266Y-128108800D01*
X58230076Y-128146895D02*
X58230076Y-127613561D01*
X58230076Y-127689752D02*
X58268171Y-127651657D01*
X58268171Y-127651657D02*
X58344361Y-127613561D01*
X58344361Y-127613561D02*
X58458647Y-127613561D01*
X58458647Y-127613561D02*
X58534838Y-127651657D01*
X58534838Y-127651657D02*
X58572933Y-127727847D01*
X58572933Y-127727847D02*
X58572933Y-128146895D01*
X58572933Y-127727847D02*
X58611028Y-127651657D01*
X58611028Y-127651657D02*
X58687219Y-127613561D01*
X58687219Y-127613561D02*
X58801504Y-127613561D01*
X58801504Y-127613561D02*
X58877695Y-127651657D01*
X58877695Y-127651657D02*
X58915790Y-127727847D01*
X58915790Y-127727847D02*
X58915790Y-128146895D01*
X59601505Y-128108800D02*
X59525314Y-128146895D01*
X59525314Y-128146895D02*
X59372933Y-128146895D01*
X59372933Y-128146895D02*
X59296743Y-128108800D01*
X59296743Y-128108800D02*
X59258647Y-128032609D01*
X59258647Y-128032609D02*
X59258647Y-127727847D01*
X59258647Y-127727847D02*
X59296743Y-127651657D01*
X59296743Y-127651657D02*
X59372933Y-127613561D01*
X59372933Y-127613561D02*
X59525314Y-127613561D01*
X59525314Y-127613561D02*
X59601505Y-127651657D01*
X59601505Y-127651657D02*
X59639600Y-127727847D01*
X59639600Y-127727847D02*
X59639600Y-127804038D01*
X59639600Y-127804038D02*
X59258647Y-127880228D01*
X59982457Y-127613561D02*
X59982457Y-128146895D01*
X59982457Y-127689752D02*
X60020552Y-127651657D01*
X60020552Y-127651657D02*
X60096742Y-127613561D01*
X60096742Y-127613561D02*
X60211028Y-127613561D01*
X60211028Y-127613561D02*
X60287219Y-127651657D01*
X60287219Y-127651657D02*
X60325314Y-127727847D01*
X60325314Y-127727847D02*
X60325314Y-128146895D01*
X60591981Y-127613561D02*
X60896743Y-127613561D01*
X60706267Y-127346895D02*
X60706267Y-128032609D01*
X60706267Y-128032609D02*
X60744362Y-128108800D01*
X60744362Y-128108800D02*
X60820552Y-128146895D01*
X60820552Y-128146895D02*
X60896743Y-128146895D01*
X62039600Y-127727847D02*
X62153886Y-127765942D01*
X62153886Y-127765942D02*
X62191981Y-127804038D01*
X62191981Y-127804038D02*
X62230077Y-127880228D01*
X62230077Y-127880228D02*
X62230077Y-127994514D01*
X62230077Y-127994514D02*
X62191981Y-128070704D01*
X62191981Y-128070704D02*
X62153886Y-128108800D01*
X62153886Y-128108800D02*
X62077696Y-128146895D01*
X62077696Y-128146895D02*
X61772934Y-128146895D01*
X61772934Y-128146895D02*
X61772934Y-127346895D01*
X61772934Y-127346895D02*
X62039600Y-127346895D01*
X62039600Y-127346895D02*
X62115791Y-127384990D01*
X62115791Y-127384990D02*
X62153886Y-127423085D01*
X62153886Y-127423085D02*
X62191981Y-127499276D01*
X62191981Y-127499276D02*
X62191981Y-127575466D01*
X62191981Y-127575466D02*
X62153886Y-127651657D01*
X62153886Y-127651657D02*
X62115791Y-127689752D01*
X62115791Y-127689752D02*
X62039600Y-127727847D01*
X62039600Y-127727847D02*
X61772934Y-127727847D01*
X62687219Y-128146895D02*
X62611029Y-128108800D01*
X62611029Y-128108800D02*
X62572934Y-128070704D01*
X62572934Y-128070704D02*
X62534838Y-127994514D01*
X62534838Y-127994514D02*
X62534838Y-127765942D01*
X62534838Y-127765942D02*
X62572934Y-127689752D01*
X62572934Y-127689752D02*
X62611029Y-127651657D01*
X62611029Y-127651657D02*
X62687219Y-127613561D01*
X62687219Y-127613561D02*
X62801505Y-127613561D01*
X62801505Y-127613561D02*
X62877696Y-127651657D01*
X62877696Y-127651657D02*
X62915791Y-127689752D01*
X62915791Y-127689752D02*
X62953886Y-127765942D01*
X62953886Y-127765942D02*
X62953886Y-127994514D01*
X62953886Y-127994514D02*
X62915791Y-128070704D01*
X62915791Y-128070704D02*
X62877696Y-128108800D01*
X62877696Y-128108800D02*
X62801505Y-128146895D01*
X62801505Y-128146895D02*
X62687219Y-128146895D01*
X63639601Y-128146895D02*
X63639601Y-127727847D01*
X63639601Y-127727847D02*
X63601506Y-127651657D01*
X63601506Y-127651657D02*
X63525315Y-127613561D01*
X63525315Y-127613561D02*
X63372934Y-127613561D01*
X63372934Y-127613561D02*
X63296744Y-127651657D01*
X63639601Y-128108800D02*
X63563410Y-128146895D01*
X63563410Y-128146895D02*
X63372934Y-128146895D01*
X63372934Y-128146895D02*
X63296744Y-128108800D01*
X63296744Y-128108800D02*
X63258648Y-128032609D01*
X63258648Y-128032609D02*
X63258648Y-127956419D01*
X63258648Y-127956419D02*
X63296744Y-127880228D01*
X63296744Y-127880228D02*
X63372934Y-127842133D01*
X63372934Y-127842133D02*
X63563410Y-127842133D01*
X63563410Y-127842133D02*
X63639601Y-127804038D01*
X64020554Y-128146895D02*
X64020554Y-127613561D01*
X64020554Y-127765942D02*
X64058649Y-127689752D01*
X64058649Y-127689752D02*
X64096744Y-127651657D01*
X64096744Y-127651657D02*
X64172935Y-127613561D01*
X64172935Y-127613561D02*
X64249125Y-127613561D01*
X64858649Y-128146895D02*
X64858649Y-127346895D01*
X64858649Y-128108800D02*
X64782458Y-128146895D01*
X64782458Y-128146895D02*
X64630077Y-128146895D01*
X64630077Y-128146895D02*
X64553887Y-128108800D01*
X64553887Y-128108800D02*
X64515792Y-128070704D01*
X64515792Y-128070704D02*
X64477696Y-127994514D01*
X64477696Y-127994514D02*
X64477696Y-127765942D01*
X64477696Y-127765942D02*
X64515792Y-127689752D01*
X64515792Y-127689752D02*
X64553887Y-127651657D01*
X64553887Y-127651657D02*
X64630077Y-127613561D01*
X64630077Y-127613561D02*
X64782458Y-127613561D01*
X64782458Y-127613561D02*
X64858649Y-127651657D01*
X65734840Y-127346895D02*
X66001507Y-128146895D01*
X66001507Y-128146895D02*
X66268173Y-127346895D01*
X66534840Y-128070704D02*
X66572935Y-128108800D01*
X66572935Y-128108800D02*
X66534840Y-128146895D01*
X66534840Y-128146895D02*
X66496744Y-128108800D01*
X66496744Y-128108800D02*
X66534840Y-128070704D01*
X66534840Y-128070704D02*
X66534840Y-128146895D01*
X67068173Y-127346895D02*
X67144363Y-127346895D01*
X67144363Y-127346895D02*
X67220554Y-127384990D01*
X67220554Y-127384990D02*
X67258649Y-127423085D01*
X67258649Y-127423085D02*
X67296744Y-127499276D01*
X67296744Y-127499276D02*
X67334839Y-127651657D01*
X67334839Y-127651657D02*
X67334839Y-127842133D01*
X67334839Y-127842133D02*
X67296744Y-127994514D01*
X67296744Y-127994514D02*
X67258649Y-128070704D01*
X67258649Y-128070704D02*
X67220554Y-128108800D01*
X67220554Y-128108800D02*
X67144363Y-128146895D01*
X67144363Y-128146895D02*
X67068173Y-128146895D01*
X67068173Y-128146895D02*
X66991982Y-128108800D01*
X66991982Y-128108800D02*
X66953887Y-128070704D01*
X66953887Y-128070704D02*
X66915792Y-127994514D01*
X66915792Y-127994514D02*
X66877696Y-127842133D01*
X66877696Y-127842133D02*
X66877696Y-127651657D01*
X66877696Y-127651657D02*
X66915792Y-127499276D01*
X66915792Y-127499276D02*
X66953887Y-127423085D01*
X66953887Y-127423085D02*
X66991982Y-127384990D01*
X66991982Y-127384990D02*
X67068173Y-127346895D01*
X67677697Y-128070704D02*
X67715792Y-128108800D01*
X67715792Y-128108800D02*
X67677697Y-128146895D01*
X67677697Y-128146895D02*
X67639601Y-128108800D01*
X67639601Y-128108800D02*
X67677697Y-128070704D01*
X67677697Y-128070704D02*
X67677697Y-128146895D01*
X68477696Y-128146895D02*
X68020553Y-128146895D01*
X68249125Y-128146895D02*
X68249125Y-127346895D01*
X68249125Y-127346895D02*
X68172934Y-127461180D01*
X68172934Y-127461180D02*
X68096744Y-127537371D01*
X68096744Y-127537371D02*
X68020553Y-127575466D01*
D11*
X51416666Y-69704819D02*
X51416666Y-70419104D01*
X51416666Y-70419104D02*
X51369047Y-70561961D01*
X51369047Y-70561961D02*
X51273809Y-70657200D01*
X51273809Y-70657200D02*
X51130952Y-70704819D01*
X51130952Y-70704819D02*
X51035714Y-70704819D01*
X51845238Y-69800057D02*
X51892857Y-69752438D01*
X51892857Y-69752438D02*
X51988095Y-69704819D01*
X51988095Y-69704819D02*
X52226190Y-69704819D01*
X52226190Y-69704819D02*
X52321428Y-69752438D01*
X52321428Y-69752438D02*
X52369047Y-69800057D01*
X52369047Y-69800057D02*
X52416666Y-69895295D01*
X52416666Y-69895295D02*
X52416666Y-69990533D01*
X52416666Y-69990533D02*
X52369047Y-70133390D01*
X52369047Y-70133390D02*
X51797619Y-70704819D01*
X51797619Y-70704819D02*
X52416666Y-70704819D01*
X62297080Y-108392857D02*
X62344700Y-108440476D01*
X62344700Y-108440476D02*
X62392319Y-108583333D01*
X62392319Y-108583333D02*
X62392319Y-108678571D01*
X62392319Y-108678571D02*
X62344700Y-108821428D01*
X62344700Y-108821428D02*
X62249461Y-108916666D01*
X62249461Y-108916666D02*
X62154223Y-108964285D01*
X62154223Y-108964285D02*
X61963747Y-109011904D01*
X61963747Y-109011904D02*
X61820890Y-109011904D01*
X61820890Y-109011904D02*
X61630414Y-108964285D01*
X61630414Y-108964285D02*
X61535176Y-108916666D01*
X61535176Y-108916666D02*
X61439938Y-108821428D01*
X61439938Y-108821428D02*
X61392319Y-108678571D01*
X61392319Y-108678571D02*
X61392319Y-108583333D01*
X61392319Y-108583333D02*
X61439938Y-108440476D01*
X61439938Y-108440476D02*
X61487557Y-108392857D01*
X62392319Y-107440476D02*
X62392319Y-108011904D01*
X62392319Y-107726190D02*
X61392319Y-107726190D01*
X61392319Y-107726190D02*
X61535176Y-107821428D01*
X61535176Y-107821428D02*
X61630414Y-107916666D01*
X61630414Y-107916666D02*
X61678033Y-108011904D01*
X61392319Y-106583333D02*
X61392319Y-106773809D01*
X61392319Y-106773809D02*
X61439938Y-106869047D01*
X61439938Y-106869047D02*
X61487557Y-106916666D01*
X61487557Y-106916666D02*
X61630414Y-107011904D01*
X61630414Y-107011904D02*
X61820890Y-107059523D01*
X61820890Y-107059523D02*
X62201842Y-107059523D01*
X62201842Y-107059523D02*
X62297080Y-107011904D01*
X62297080Y-107011904D02*
X62344700Y-106964285D01*
X62344700Y-106964285D02*
X62392319Y-106869047D01*
X62392319Y-106869047D02*
X62392319Y-106678571D01*
X62392319Y-106678571D02*
X62344700Y-106583333D01*
X62344700Y-106583333D02*
X62297080Y-106535714D01*
X62297080Y-106535714D02*
X62201842Y-106488095D01*
X62201842Y-106488095D02*
X61963747Y-106488095D01*
X61963747Y-106488095D02*
X61868509Y-106535714D01*
X61868509Y-106535714D02*
X61820890Y-106583333D01*
X61820890Y-106583333D02*
X61773271Y-106678571D01*
X61773271Y-106678571D02*
X61773271Y-106869047D01*
X61773271Y-106869047D02*
X61820890Y-106964285D01*
X61820890Y-106964285D02*
X61868509Y-107011904D01*
X61868509Y-107011904D02*
X61963747Y-107059523D01*
X72147080Y-111642857D02*
X72194700Y-111690476D01*
X72194700Y-111690476D02*
X72242319Y-111833333D01*
X72242319Y-111833333D02*
X72242319Y-111928571D01*
X72242319Y-111928571D02*
X72194700Y-112071428D01*
X72194700Y-112071428D02*
X72099461Y-112166666D01*
X72099461Y-112166666D02*
X72004223Y-112214285D01*
X72004223Y-112214285D02*
X71813747Y-112261904D01*
X71813747Y-112261904D02*
X71670890Y-112261904D01*
X71670890Y-112261904D02*
X71480414Y-112214285D01*
X71480414Y-112214285D02*
X71385176Y-112166666D01*
X71385176Y-112166666D02*
X71289938Y-112071428D01*
X71289938Y-112071428D02*
X71242319Y-111928571D01*
X71242319Y-111928571D02*
X71242319Y-111833333D01*
X71242319Y-111833333D02*
X71289938Y-111690476D01*
X71289938Y-111690476D02*
X71337557Y-111642857D01*
X72242319Y-110690476D02*
X72242319Y-111261904D01*
X72242319Y-110976190D02*
X71242319Y-110976190D01*
X71242319Y-110976190D02*
X71385176Y-111071428D01*
X71385176Y-111071428D02*
X71480414Y-111166666D01*
X71480414Y-111166666D02*
X71528033Y-111261904D01*
X71575652Y-109833333D02*
X72242319Y-109833333D01*
X71194700Y-110071428D02*
X71908985Y-110309523D01*
X71908985Y-110309523D02*
X71908985Y-109690476D01*
X47859580Y-97646666D02*
X47907200Y-97694285D01*
X47907200Y-97694285D02*
X47954819Y-97837142D01*
X47954819Y-97837142D02*
X47954819Y-97932380D01*
X47954819Y-97932380D02*
X47907200Y-98075237D01*
X47907200Y-98075237D02*
X47811961Y-98170475D01*
X47811961Y-98170475D02*
X47716723Y-98218094D01*
X47716723Y-98218094D02*
X47526247Y-98265713D01*
X47526247Y-98265713D02*
X47383390Y-98265713D01*
X47383390Y-98265713D02*
X47192914Y-98218094D01*
X47192914Y-98218094D02*
X47097676Y-98170475D01*
X47097676Y-98170475D02*
X47002438Y-98075237D01*
X47002438Y-98075237D02*
X46954819Y-97932380D01*
X46954819Y-97932380D02*
X46954819Y-97837142D01*
X46954819Y-97837142D02*
X47002438Y-97694285D01*
X47002438Y-97694285D02*
X47050057Y-97646666D01*
X46954819Y-97313332D02*
X46954819Y-96646666D01*
X46954819Y-96646666D02*
X47954819Y-97075237D01*
X64398276Y-78650119D02*
X64916371Y-78650119D01*
X64916371Y-78650119D02*
X64977323Y-78619642D01*
X64977323Y-78619642D02*
X65007800Y-78589166D01*
X65007800Y-78589166D02*
X65038276Y-78528214D01*
X65038276Y-78528214D02*
X65038276Y-78406309D01*
X65038276Y-78406309D02*
X65007800Y-78345357D01*
X65007800Y-78345357D02*
X64977323Y-78314880D01*
X64977323Y-78314880D02*
X64916371Y-78284404D01*
X64916371Y-78284404D02*
X64398276Y-78284404D01*
X64611609Y-77705357D02*
X65038276Y-77705357D01*
X64367800Y-77857738D02*
X64824942Y-78010119D01*
X64824942Y-78010119D02*
X64824942Y-77613928D01*
X69607142Y-82704819D02*
X69273809Y-82228628D01*
X69035714Y-82704819D02*
X69035714Y-81704819D01*
X69035714Y-81704819D02*
X69416666Y-81704819D01*
X69416666Y-81704819D02*
X69511904Y-81752438D01*
X69511904Y-81752438D02*
X69559523Y-81800057D01*
X69559523Y-81800057D02*
X69607142Y-81895295D01*
X69607142Y-81895295D02*
X69607142Y-82038152D01*
X69607142Y-82038152D02*
X69559523Y-82133390D01*
X69559523Y-82133390D02*
X69511904Y-82181009D01*
X69511904Y-82181009D02*
X69416666Y-82228628D01*
X69416666Y-82228628D02*
X69035714Y-82228628D01*
X70559523Y-82704819D02*
X69988095Y-82704819D01*
X70273809Y-82704819D02*
X70273809Y-81704819D01*
X70273809Y-81704819D02*
X70178571Y-81847676D01*
X70178571Y-81847676D02*
X70083333Y-81942914D01*
X70083333Y-81942914D02*
X69988095Y-81990533D01*
X70892857Y-81704819D02*
X71511904Y-81704819D01*
X71511904Y-81704819D02*
X71178571Y-82085771D01*
X71178571Y-82085771D02*
X71321428Y-82085771D01*
X71321428Y-82085771D02*
X71416666Y-82133390D01*
X71416666Y-82133390D02*
X71464285Y-82181009D01*
X71464285Y-82181009D02*
X71511904Y-82276247D01*
X71511904Y-82276247D02*
X71511904Y-82514342D01*
X71511904Y-82514342D02*
X71464285Y-82609580D01*
X71464285Y-82609580D02*
X71416666Y-82657200D01*
X71416666Y-82657200D02*
X71321428Y-82704819D01*
X71321428Y-82704819D02*
X71035714Y-82704819D01*
X71035714Y-82704819D02*
X70940476Y-82657200D01*
X70940476Y-82657200D02*
X70892857Y-82609580D01*
X55261905Y-125954819D02*
X55261905Y-124954819D01*
X55261905Y-124954819D02*
X55500000Y-124954819D01*
X55500000Y-124954819D02*
X55642857Y-125002438D01*
X55642857Y-125002438D02*
X55738095Y-125097676D01*
X55738095Y-125097676D02*
X55785714Y-125192914D01*
X55785714Y-125192914D02*
X55833333Y-125383390D01*
X55833333Y-125383390D02*
X55833333Y-125526247D01*
X55833333Y-125526247D02*
X55785714Y-125716723D01*
X55785714Y-125716723D02*
X55738095Y-125811961D01*
X55738095Y-125811961D02*
X55642857Y-125907200D01*
X55642857Y-125907200D02*
X55500000Y-125954819D01*
X55500000Y-125954819D02*
X55261905Y-125954819D01*
X56214286Y-125050057D02*
X56261905Y-125002438D01*
X56261905Y-125002438D02*
X56357143Y-124954819D01*
X56357143Y-124954819D02*
X56595238Y-124954819D01*
X56595238Y-124954819D02*
X56690476Y-125002438D01*
X56690476Y-125002438D02*
X56738095Y-125050057D01*
X56738095Y-125050057D02*
X56785714Y-125145295D01*
X56785714Y-125145295D02*
X56785714Y-125240533D01*
X56785714Y-125240533D02*
X56738095Y-125383390D01*
X56738095Y-125383390D02*
X56166667Y-125954819D01*
X56166667Y-125954819D02*
X56785714Y-125954819D01*
X63143333Y-113788276D02*
X62838571Y-113788276D01*
X62838571Y-113788276D02*
X62838571Y-113148276D01*
X63326190Y-113209228D02*
X63356666Y-113178752D01*
X63356666Y-113178752D02*
X63417619Y-113148276D01*
X63417619Y-113148276D02*
X63570000Y-113148276D01*
X63570000Y-113148276D02*
X63630952Y-113178752D01*
X63630952Y-113178752D02*
X63661428Y-113209228D01*
X63661428Y-113209228D02*
X63691905Y-113270180D01*
X63691905Y-113270180D02*
X63691905Y-113331133D01*
X63691905Y-113331133D02*
X63661428Y-113422561D01*
X63661428Y-113422561D02*
X63295714Y-113788276D01*
X63295714Y-113788276D02*
X63691905Y-113788276D01*
X52392319Y-108166666D02*
X51916128Y-108499999D01*
X52392319Y-108738094D02*
X51392319Y-108738094D01*
X51392319Y-108738094D02*
X51392319Y-108357142D01*
X51392319Y-108357142D02*
X51439938Y-108261904D01*
X51439938Y-108261904D02*
X51487557Y-108214285D01*
X51487557Y-108214285D02*
X51582795Y-108166666D01*
X51582795Y-108166666D02*
X51725652Y-108166666D01*
X51725652Y-108166666D02*
X51820890Y-108214285D01*
X51820890Y-108214285D02*
X51868509Y-108261904D01*
X51868509Y-108261904D02*
X51916128Y-108357142D01*
X51916128Y-108357142D02*
X51916128Y-108738094D01*
X51392319Y-107833332D02*
X51392319Y-107214285D01*
X51392319Y-107214285D02*
X51773271Y-107547618D01*
X51773271Y-107547618D02*
X51773271Y-107404761D01*
X51773271Y-107404761D02*
X51820890Y-107309523D01*
X51820890Y-107309523D02*
X51868509Y-107261904D01*
X51868509Y-107261904D02*
X51963747Y-107214285D01*
X51963747Y-107214285D02*
X52201842Y-107214285D01*
X52201842Y-107214285D02*
X52297080Y-107261904D01*
X52297080Y-107261904D02*
X52344700Y-107309523D01*
X52344700Y-107309523D02*
X52392319Y-107404761D01*
X52392319Y-107404761D02*
X52392319Y-107690475D01*
X52392319Y-107690475D02*
X52344700Y-107785713D01*
X52344700Y-107785713D02*
X52297080Y-107833332D01*
X66857142Y-73272080D02*
X66809523Y-73319700D01*
X66809523Y-73319700D02*
X66666666Y-73367319D01*
X66666666Y-73367319D02*
X66571428Y-73367319D01*
X66571428Y-73367319D02*
X66428571Y-73319700D01*
X66428571Y-73319700D02*
X66333333Y-73224461D01*
X66333333Y-73224461D02*
X66285714Y-73129223D01*
X66285714Y-73129223D02*
X66238095Y-72938747D01*
X66238095Y-72938747D02*
X66238095Y-72795890D01*
X66238095Y-72795890D02*
X66285714Y-72605414D01*
X66285714Y-72605414D02*
X66333333Y-72510176D01*
X66333333Y-72510176D02*
X66428571Y-72414938D01*
X66428571Y-72414938D02*
X66571428Y-72367319D01*
X66571428Y-72367319D02*
X66666666Y-72367319D01*
X66666666Y-72367319D02*
X66809523Y-72414938D01*
X66809523Y-72414938D02*
X66857142Y-72462557D01*
X67809523Y-73367319D02*
X67238095Y-73367319D01*
X67523809Y-73367319D02*
X67523809Y-72367319D01*
X67523809Y-72367319D02*
X67428571Y-72510176D01*
X67428571Y-72510176D02*
X67333333Y-72605414D01*
X67333333Y-72605414D02*
X67238095Y-72653033D01*
X68380952Y-72795890D02*
X68285714Y-72748271D01*
X68285714Y-72748271D02*
X68238095Y-72700652D01*
X68238095Y-72700652D02*
X68190476Y-72605414D01*
X68190476Y-72605414D02*
X68190476Y-72557795D01*
X68190476Y-72557795D02*
X68238095Y-72462557D01*
X68238095Y-72462557D02*
X68285714Y-72414938D01*
X68285714Y-72414938D02*
X68380952Y-72367319D01*
X68380952Y-72367319D02*
X68571428Y-72367319D01*
X68571428Y-72367319D02*
X68666666Y-72414938D01*
X68666666Y-72414938D02*
X68714285Y-72462557D01*
X68714285Y-72462557D02*
X68761904Y-72557795D01*
X68761904Y-72557795D02*
X68761904Y-72605414D01*
X68761904Y-72605414D02*
X68714285Y-72700652D01*
X68714285Y-72700652D02*
X68666666Y-72748271D01*
X68666666Y-72748271D02*
X68571428Y-72795890D01*
X68571428Y-72795890D02*
X68380952Y-72795890D01*
X68380952Y-72795890D02*
X68285714Y-72843509D01*
X68285714Y-72843509D02*
X68238095Y-72891128D01*
X68238095Y-72891128D02*
X68190476Y-72986366D01*
X68190476Y-72986366D02*
X68190476Y-73176842D01*
X68190476Y-73176842D02*
X68238095Y-73272080D01*
X68238095Y-73272080D02*
X68285714Y-73319700D01*
X68285714Y-73319700D02*
X68380952Y-73367319D01*
X68380952Y-73367319D02*
X68571428Y-73367319D01*
X68571428Y-73367319D02*
X68666666Y-73319700D01*
X68666666Y-73319700D02*
X68714285Y-73272080D01*
X68714285Y-73272080D02*
X68761904Y-73176842D01*
X68761904Y-73176842D02*
X68761904Y-72986366D01*
X68761904Y-72986366D02*
X68714285Y-72891128D01*
X68714285Y-72891128D02*
X68666666Y-72843509D01*
X68666666Y-72843509D02*
X68571428Y-72795890D01*
X58204819Y-118988094D02*
X57204819Y-118988094D01*
X57204819Y-118988094D02*
X57204819Y-118749999D01*
X57204819Y-118749999D02*
X57252438Y-118607142D01*
X57252438Y-118607142D02*
X57347676Y-118511904D01*
X57347676Y-118511904D02*
X57442914Y-118464285D01*
X57442914Y-118464285D02*
X57633390Y-118416666D01*
X57633390Y-118416666D02*
X57776247Y-118416666D01*
X57776247Y-118416666D02*
X57966723Y-118464285D01*
X57966723Y-118464285D02*
X58061961Y-118511904D01*
X58061961Y-118511904D02*
X58157200Y-118607142D01*
X58157200Y-118607142D02*
X58204819Y-118749999D01*
X58204819Y-118749999D02*
X58204819Y-118988094D01*
X57204819Y-118083332D02*
X57204819Y-117464285D01*
X57204819Y-117464285D02*
X57585771Y-117797618D01*
X57585771Y-117797618D02*
X57585771Y-117654761D01*
X57585771Y-117654761D02*
X57633390Y-117559523D01*
X57633390Y-117559523D02*
X57681009Y-117511904D01*
X57681009Y-117511904D02*
X57776247Y-117464285D01*
X57776247Y-117464285D02*
X58014342Y-117464285D01*
X58014342Y-117464285D02*
X58109580Y-117511904D01*
X58109580Y-117511904D02*
X58157200Y-117559523D01*
X58157200Y-117559523D02*
X58204819Y-117654761D01*
X58204819Y-117654761D02*
X58204819Y-117940475D01*
X58204819Y-117940475D02*
X58157200Y-118035713D01*
X58157200Y-118035713D02*
X58109580Y-118083332D01*
X63357142Y-82704819D02*
X63023809Y-82228628D01*
X62785714Y-82704819D02*
X62785714Y-81704819D01*
X62785714Y-81704819D02*
X63166666Y-81704819D01*
X63166666Y-81704819D02*
X63261904Y-81752438D01*
X63261904Y-81752438D02*
X63309523Y-81800057D01*
X63309523Y-81800057D02*
X63357142Y-81895295D01*
X63357142Y-81895295D02*
X63357142Y-82038152D01*
X63357142Y-82038152D02*
X63309523Y-82133390D01*
X63309523Y-82133390D02*
X63261904Y-82181009D01*
X63261904Y-82181009D02*
X63166666Y-82228628D01*
X63166666Y-82228628D02*
X62785714Y-82228628D01*
X64309523Y-82704819D02*
X63738095Y-82704819D01*
X64023809Y-82704819D02*
X64023809Y-81704819D01*
X64023809Y-81704819D02*
X63928571Y-81847676D01*
X63928571Y-81847676D02*
X63833333Y-81942914D01*
X63833333Y-81942914D02*
X63738095Y-81990533D01*
X64690476Y-81800057D02*
X64738095Y-81752438D01*
X64738095Y-81752438D02*
X64833333Y-81704819D01*
X64833333Y-81704819D02*
X65071428Y-81704819D01*
X65071428Y-81704819D02*
X65166666Y-81752438D01*
X65166666Y-81752438D02*
X65214285Y-81800057D01*
X65214285Y-81800057D02*
X65261904Y-81895295D01*
X65261904Y-81895295D02*
X65261904Y-81990533D01*
X65261904Y-81990533D02*
X65214285Y-82133390D01*
X65214285Y-82133390D02*
X64642857Y-82704819D01*
X64642857Y-82704819D02*
X65261904Y-82704819D01*
X59454819Y-104916666D02*
X58978628Y-105249999D01*
X59454819Y-105488094D02*
X58454819Y-105488094D01*
X58454819Y-105488094D02*
X58454819Y-105107142D01*
X58454819Y-105107142D02*
X58502438Y-105011904D01*
X58502438Y-105011904D02*
X58550057Y-104964285D01*
X58550057Y-104964285D02*
X58645295Y-104916666D01*
X58645295Y-104916666D02*
X58788152Y-104916666D01*
X58788152Y-104916666D02*
X58883390Y-104964285D01*
X58883390Y-104964285D02*
X58931009Y-105011904D01*
X58931009Y-105011904D02*
X58978628Y-105107142D01*
X58978628Y-105107142D02*
X58978628Y-105488094D01*
X58883390Y-104345237D02*
X58835771Y-104440475D01*
X58835771Y-104440475D02*
X58788152Y-104488094D01*
X58788152Y-104488094D02*
X58692914Y-104535713D01*
X58692914Y-104535713D02*
X58645295Y-104535713D01*
X58645295Y-104535713D02*
X58550057Y-104488094D01*
X58550057Y-104488094D02*
X58502438Y-104440475D01*
X58502438Y-104440475D02*
X58454819Y-104345237D01*
X58454819Y-104345237D02*
X58454819Y-104154761D01*
X58454819Y-104154761D02*
X58502438Y-104059523D01*
X58502438Y-104059523D02*
X58550057Y-104011904D01*
X58550057Y-104011904D02*
X58645295Y-103964285D01*
X58645295Y-103964285D02*
X58692914Y-103964285D01*
X58692914Y-103964285D02*
X58788152Y-104011904D01*
X58788152Y-104011904D02*
X58835771Y-104059523D01*
X58835771Y-104059523D02*
X58883390Y-104154761D01*
X58883390Y-104154761D02*
X58883390Y-104345237D01*
X58883390Y-104345237D02*
X58931009Y-104440475D01*
X58931009Y-104440475D02*
X58978628Y-104488094D01*
X58978628Y-104488094D02*
X59073866Y-104535713D01*
X59073866Y-104535713D02*
X59264342Y-104535713D01*
X59264342Y-104535713D02*
X59359580Y-104488094D01*
X59359580Y-104488094D02*
X59407200Y-104440475D01*
X59407200Y-104440475D02*
X59454819Y-104345237D01*
X59454819Y-104345237D02*
X59454819Y-104154761D01*
X59454819Y-104154761D02*
X59407200Y-104059523D01*
X59407200Y-104059523D02*
X59359580Y-104011904D01*
X59359580Y-104011904D02*
X59264342Y-103964285D01*
X59264342Y-103964285D02*
X59073866Y-103964285D01*
X59073866Y-103964285D02*
X58978628Y-104011904D01*
X58978628Y-104011904D02*
X58931009Y-104059523D01*
X58931009Y-104059523D02*
X58883390Y-104154761D01*
X46583333Y-90289580D02*
X46535714Y-90337200D01*
X46535714Y-90337200D02*
X46392857Y-90384819D01*
X46392857Y-90384819D02*
X46297619Y-90384819D01*
X46297619Y-90384819D02*
X46154762Y-90337200D01*
X46154762Y-90337200D02*
X46059524Y-90241961D01*
X46059524Y-90241961D02*
X46011905Y-90146723D01*
X46011905Y-90146723D02*
X45964286Y-89956247D01*
X45964286Y-89956247D02*
X45964286Y-89813390D01*
X45964286Y-89813390D02*
X46011905Y-89622914D01*
X46011905Y-89622914D02*
X46059524Y-89527676D01*
X46059524Y-89527676D02*
X46154762Y-89432438D01*
X46154762Y-89432438D02*
X46297619Y-89384819D01*
X46297619Y-89384819D02*
X46392857Y-89384819D01*
X46392857Y-89384819D02*
X46535714Y-89432438D01*
X46535714Y-89432438D02*
X46583333Y-89480057D01*
X47440476Y-89718152D02*
X47440476Y-90384819D01*
X47202381Y-89337200D02*
X46964286Y-90051485D01*
X46964286Y-90051485D02*
X47583333Y-90051485D01*
X64609580Y-73055357D02*
X64657200Y-73102976D01*
X64657200Y-73102976D02*
X64704819Y-73245833D01*
X64704819Y-73245833D02*
X64704819Y-73341071D01*
X64704819Y-73341071D02*
X64657200Y-73483928D01*
X64657200Y-73483928D02*
X64561961Y-73579166D01*
X64561961Y-73579166D02*
X64466723Y-73626785D01*
X64466723Y-73626785D02*
X64276247Y-73674404D01*
X64276247Y-73674404D02*
X64133390Y-73674404D01*
X64133390Y-73674404D02*
X63942914Y-73626785D01*
X63942914Y-73626785D02*
X63847676Y-73579166D01*
X63847676Y-73579166D02*
X63752438Y-73483928D01*
X63752438Y-73483928D02*
X63704819Y-73341071D01*
X63704819Y-73341071D02*
X63704819Y-73245833D01*
X63704819Y-73245833D02*
X63752438Y-73102976D01*
X63752438Y-73102976D02*
X63800057Y-73055357D01*
X64704819Y-72102976D02*
X64704819Y-72674404D01*
X64704819Y-72388690D02*
X63704819Y-72388690D01*
X63704819Y-72388690D02*
X63847676Y-72483928D01*
X63847676Y-72483928D02*
X63942914Y-72579166D01*
X63942914Y-72579166D02*
X63990533Y-72674404D01*
X63704819Y-71769642D02*
X63704819Y-71102976D01*
X63704819Y-71102976D02*
X64704819Y-71531547D01*
X73254819Y-71478333D02*
X73969104Y-71478333D01*
X73969104Y-71478333D02*
X74111961Y-71525952D01*
X74111961Y-71525952D02*
X74207200Y-71621190D01*
X74207200Y-71621190D02*
X74254819Y-71764047D01*
X74254819Y-71764047D02*
X74254819Y-71859285D01*
X73254819Y-70525952D02*
X73254819Y-71002142D01*
X73254819Y-71002142D02*
X73731009Y-71049761D01*
X73731009Y-71049761D02*
X73683390Y-71002142D01*
X73683390Y-71002142D02*
X73635771Y-70906904D01*
X73635771Y-70906904D02*
X73635771Y-70668809D01*
X73635771Y-70668809D02*
X73683390Y-70573571D01*
X73683390Y-70573571D02*
X73731009Y-70525952D01*
X73731009Y-70525952D02*
X73826247Y-70478333D01*
X73826247Y-70478333D02*
X74064342Y-70478333D01*
X74064342Y-70478333D02*
X74159580Y-70525952D01*
X74159580Y-70525952D02*
X74207200Y-70573571D01*
X74207200Y-70573571D02*
X74254819Y-70668809D01*
X74254819Y-70668809D02*
X74254819Y-70906904D01*
X74254819Y-70906904D02*
X74207200Y-71002142D01*
X74207200Y-71002142D02*
X74159580Y-71049761D01*
D10*
X52735714Y-99038704D02*
X52697618Y-99076800D01*
X52697618Y-99076800D02*
X52583333Y-99114895D01*
X52583333Y-99114895D02*
X52507142Y-99114895D01*
X52507142Y-99114895D02*
X52392856Y-99076800D01*
X52392856Y-99076800D02*
X52316666Y-99000609D01*
X52316666Y-99000609D02*
X52278571Y-98924419D01*
X52278571Y-98924419D02*
X52240475Y-98772038D01*
X52240475Y-98772038D02*
X52240475Y-98657752D01*
X52240475Y-98657752D02*
X52278571Y-98505371D01*
X52278571Y-98505371D02*
X52316666Y-98429180D01*
X52316666Y-98429180D02*
X52392856Y-98352990D01*
X52392856Y-98352990D02*
X52507142Y-98314895D01*
X52507142Y-98314895D02*
X52583333Y-98314895D01*
X52583333Y-98314895D02*
X52697618Y-98352990D01*
X52697618Y-98352990D02*
X52735714Y-98391085D01*
X53497618Y-99114895D02*
X53040475Y-99114895D01*
X53269047Y-99114895D02*
X53269047Y-98314895D01*
X53269047Y-98314895D02*
X53192856Y-98429180D01*
X53192856Y-98429180D02*
X53116666Y-98505371D01*
X53116666Y-98505371D02*
X53040475Y-98543466D01*
X53992857Y-98314895D02*
X54069047Y-98314895D01*
X54069047Y-98314895D02*
X54145238Y-98352990D01*
X54145238Y-98352990D02*
X54183333Y-98391085D01*
X54183333Y-98391085D02*
X54221428Y-98467276D01*
X54221428Y-98467276D02*
X54259523Y-98619657D01*
X54259523Y-98619657D02*
X54259523Y-98810133D01*
X54259523Y-98810133D02*
X54221428Y-98962514D01*
X54221428Y-98962514D02*
X54183333Y-99038704D01*
X54183333Y-99038704D02*
X54145238Y-99076800D01*
X54145238Y-99076800D02*
X54069047Y-99114895D01*
X54069047Y-99114895D02*
X53992857Y-99114895D01*
X53992857Y-99114895D02*
X53916666Y-99076800D01*
X53916666Y-99076800D02*
X53878571Y-99038704D01*
X53878571Y-99038704D02*
X53840476Y-98962514D01*
X53840476Y-98962514D02*
X53802380Y-98810133D01*
X53802380Y-98810133D02*
X53802380Y-98619657D01*
X53802380Y-98619657D02*
X53840476Y-98467276D01*
X53840476Y-98467276D02*
X53878571Y-98391085D01*
X53878571Y-98391085D02*
X53916666Y-98352990D01*
X53916666Y-98352990D02*
X53992857Y-98314895D01*
D11*
X69607142Y-86109580D02*
X69559523Y-86157200D01*
X69559523Y-86157200D02*
X69416666Y-86204819D01*
X69416666Y-86204819D02*
X69321428Y-86204819D01*
X69321428Y-86204819D02*
X69178571Y-86157200D01*
X69178571Y-86157200D02*
X69083333Y-86061961D01*
X69083333Y-86061961D02*
X69035714Y-85966723D01*
X69035714Y-85966723D02*
X68988095Y-85776247D01*
X68988095Y-85776247D02*
X68988095Y-85633390D01*
X68988095Y-85633390D02*
X69035714Y-85442914D01*
X69035714Y-85442914D02*
X69083333Y-85347676D01*
X69083333Y-85347676D02*
X69178571Y-85252438D01*
X69178571Y-85252438D02*
X69321428Y-85204819D01*
X69321428Y-85204819D02*
X69416666Y-85204819D01*
X69416666Y-85204819D02*
X69559523Y-85252438D01*
X69559523Y-85252438D02*
X69607142Y-85300057D01*
X70559523Y-86204819D02*
X69988095Y-86204819D01*
X70273809Y-86204819D02*
X70273809Y-85204819D01*
X70273809Y-85204819D02*
X70178571Y-85347676D01*
X70178571Y-85347676D02*
X70083333Y-85442914D01*
X70083333Y-85442914D02*
X69988095Y-85490533D01*
X70892857Y-85204819D02*
X71511904Y-85204819D01*
X71511904Y-85204819D02*
X71178571Y-85585771D01*
X71178571Y-85585771D02*
X71321428Y-85585771D01*
X71321428Y-85585771D02*
X71416666Y-85633390D01*
X71416666Y-85633390D02*
X71464285Y-85681009D01*
X71464285Y-85681009D02*
X71511904Y-85776247D01*
X71511904Y-85776247D02*
X71511904Y-86014342D01*
X71511904Y-86014342D02*
X71464285Y-86109580D01*
X71464285Y-86109580D02*
X71416666Y-86157200D01*
X71416666Y-86157200D02*
X71321428Y-86204819D01*
X71321428Y-86204819D02*
X71035714Y-86204819D01*
X71035714Y-86204819D02*
X70940476Y-86157200D01*
X70940476Y-86157200D02*
X70892857Y-86109580D01*
X52392319Y-111916666D02*
X51916128Y-112249999D01*
X52392319Y-112488094D02*
X51392319Y-112488094D01*
X51392319Y-112488094D02*
X51392319Y-112107142D01*
X51392319Y-112107142D02*
X51439938Y-112011904D01*
X51439938Y-112011904D02*
X51487557Y-111964285D01*
X51487557Y-111964285D02*
X51582795Y-111916666D01*
X51582795Y-111916666D02*
X51725652Y-111916666D01*
X51725652Y-111916666D02*
X51820890Y-111964285D01*
X51820890Y-111964285D02*
X51868509Y-112011904D01*
X51868509Y-112011904D02*
X51916128Y-112107142D01*
X51916128Y-112107142D02*
X51916128Y-112488094D01*
X51725652Y-111059523D02*
X52392319Y-111059523D01*
X51344700Y-111297618D02*
X52058985Y-111535713D01*
X52058985Y-111535713D02*
X52058985Y-110916666D01*
X71954819Y-103166666D02*
X71478628Y-103499999D01*
X71954819Y-103738094D02*
X70954819Y-103738094D01*
X70954819Y-103738094D02*
X70954819Y-103357142D01*
X70954819Y-103357142D02*
X71002438Y-103261904D01*
X71002438Y-103261904D02*
X71050057Y-103214285D01*
X71050057Y-103214285D02*
X71145295Y-103166666D01*
X71145295Y-103166666D02*
X71288152Y-103166666D01*
X71288152Y-103166666D02*
X71383390Y-103214285D01*
X71383390Y-103214285D02*
X71431009Y-103261904D01*
X71431009Y-103261904D02*
X71478628Y-103357142D01*
X71478628Y-103357142D02*
X71478628Y-103738094D01*
X71954819Y-102214285D02*
X71954819Y-102785713D01*
X71954819Y-102499999D02*
X70954819Y-102499999D01*
X70954819Y-102499999D02*
X71097676Y-102595237D01*
X71097676Y-102595237D02*
X71192914Y-102690475D01*
X71192914Y-102690475D02*
X71240533Y-102785713D01*
X73228628Y-90976190D02*
X73704819Y-90976190D01*
X72704819Y-91309523D02*
X73228628Y-90976190D01*
X73228628Y-90976190D02*
X72704819Y-90642857D01*
X73704819Y-89785714D02*
X73704819Y-90357142D01*
X73704819Y-90071428D02*
X72704819Y-90071428D01*
X72704819Y-90071428D02*
X72847676Y-90166666D01*
X72847676Y-90166666D02*
X72942914Y-90261904D01*
X72942914Y-90261904D02*
X72990533Y-90357142D01*
X64166666Y-118431009D02*
X63833333Y-118431009D01*
X63833333Y-118954819D02*
X63833333Y-117954819D01*
X63833333Y-117954819D02*
X64309523Y-117954819D01*
X65023809Y-118431009D02*
X65166666Y-118478628D01*
X65166666Y-118478628D02*
X65214285Y-118526247D01*
X65214285Y-118526247D02*
X65261904Y-118621485D01*
X65261904Y-118621485D02*
X65261904Y-118764342D01*
X65261904Y-118764342D02*
X65214285Y-118859580D01*
X65214285Y-118859580D02*
X65166666Y-118907200D01*
X65166666Y-118907200D02*
X65071428Y-118954819D01*
X65071428Y-118954819D02*
X64690476Y-118954819D01*
X64690476Y-118954819D02*
X64690476Y-117954819D01*
X64690476Y-117954819D02*
X65023809Y-117954819D01*
X65023809Y-117954819D02*
X65119047Y-118002438D01*
X65119047Y-118002438D02*
X65166666Y-118050057D01*
X65166666Y-118050057D02*
X65214285Y-118145295D01*
X65214285Y-118145295D02*
X65214285Y-118240533D01*
X65214285Y-118240533D02*
X65166666Y-118335771D01*
X65166666Y-118335771D02*
X65119047Y-118383390D01*
X65119047Y-118383390D02*
X65023809Y-118431009D01*
X65023809Y-118431009D02*
X64690476Y-118431009D01*
X66214285Y-118954819D02*
X65642857Y-118954819D01*
X65928571Y-118954819D02*
X65928571Y-117954819D01*
X65928571Y-117954819D02*
X65833333Y-118097676D01*
X65833333Y-118097676D02*
X65738095Y-118192914D01*
X65738095Y-118192914D02*
X65642857Y-118240533D01*
X40204819Y-127833333D02*
X40919104Y-127833333D01*
X40919104Y-127833333D02*
X41061961Y-127880952D01*
X41061961Y-127880952D02*
X41157200Y-127976190D01*
X41157200Y-127976190D02*
X41204819Y-128119047D01*
X41204819Y-128119047D02*
X41204819Y-128214285D01*
X40633390Y-127214285D02*
X40585771Y-127309523D01*
X40585771Y-127309523D02*
X40538152Y-127357142D01*
X40538152Y-127357142D02*
X40442914Y-127404761D01*
X40442914Y-127404761D02*
X40395295Y-127404761D01*
X40395295Y-127404761D02*
X40300057Y-127357142D01*
X40300057Y-127357142D02*
X40252438Y-127309523D01*
X40252438Y-127309523D02*
X40204819Y-127214285D01*
X40204819Y-127214285D02*
X40204819Y-127023809D01*
X40204819Y-127023809D02*
X40252438Y-126928571D01*
X40252438Y-126928571D02*
X40300057Y-126880952D01*
X40300057Y-126880952D02*
X40395295Y-126833333D01*
X40395295Y-126833333D02*
X40442914Y-126833333D01*
X40442914Y-126833333D02*
X40538152Y-126880952D01*
X40538152Y-126880952D02*
X40585771Y-126928571D01*
X40585771Y-126928571D02*
X40633390Y-127023809D01*
X40633390Y-127023809D02*
X40633390Y-127214285D01*
X40633390Y-127214285D02*
X40681009Y-127309523D01*
X40681009Y-127309523D02*
X40728628Y-127357142D01*
X40728628Y-127357142D02*
X40823866Y-127404761D01*
X40823866Y-127404761D02*
X41014342Y-127404761D01*
X41014342Y-127404761D02*
X41109580Y-127357142D01*
X41109580Y-127357142D02*
X41157200Y-127309523D01*
X41157200Y-127309523D02*
X41204819Y-127214285D01*
X41204819Y-127214285D02*
X41204819Y-127023809D01*
X41204819Y-127023809D02*
X41157200Y-126928571D01*
X41157200Y-126928571D02*
X41109580Y-126880952D01*
X41109580Y-126880952D02*
X41014342Y-126833333D01*
X41014342Y-126833333D02*
X40823866Y-126833333D01*
X40823866Y-126833333D02*
X40728628Y-126880952D01*
X40728628Y-126880952D02*
X40681009Y-126928571D01*
X40681009Y-126928571D02*
X40633390Y-127023809D01*
X42704819Y-91166666D02*
X42228628Y-91499999D01*
X42704819Y-91738094D02*
X41704819Y-91738094D01*
X41704819Y-91738094D02*
X41704819Y-91357142D01*
X41704819Y-91357142D02*
X41752438Y-91261904D01*
X41752438Y-91261904D02*
X41800057Y-91214285D01*
X41800057Y-91214285D02*
X41895295Y-91166666D01*
X41895295Y-91166666D02*
X42038152Y-91166666D01*
X42038152Y-91166666D02*
X42133390Y-91214285D01*
X42133390Y-91214285D02*
X42181009Y-91261904D01*
X42181009Y-91261904D02*
X42228628Y-91357142D01*
X42228628Y-91357142D02*
X42228628Y-91738094D01*
X41800057Y-90785713D02*
X41752438Y-90738094D01*
X41752438Y-90738094D02*
X41704819Y-90642856D01*
X41704819Y-90642856D02*
X41704819Y-90404761D01*
X41704819Y-90404761D02*
X41752438Y-90309523D01*
X41752438Y-90309523D02*
X41800057Y-90261904D01*
X41800057Y-90261904D02*
X41895295Y-90214285D01*
X41895295Y-90214285D02*
X41990533Y-90214285D01*
X41990533Y-90214285D02*
X42133390Y-90261904D01*
X42133390Y-90261904D02*
X42704819Y-90833332D01*
X42704819Y-90833332D02*
X42704819Y-90214285D01*
X62794642Y-105204819D02*
X62461309Y-104728628D01*
X62223214Y-105204819D02*
X62223214Y-104204819D01*
X62223214Y-104204819D02*
X62604166Y-104204819D01*
X62604166Y-104204819D02*
X62699404Y-104252438D01*
X62699404Y-104252438D02*
X62747023Y-104300057D01*
X62747023Y-104300057D02*
X62794642Y-104395295D01*
X62794642Y-104395295D02*
X62794642Y-104538152D01*
X62794642Y-104538152D02*
X62747023Y-104633390D01*
X62747023Y-104633390D02*
X62699404Y-104681009D01*
X62699404Y-104681009D02*
X62604166Y-104728628D01*
X62604166Y-104728628D02*
X62223214Y-104728628D01*
X63747023Y-105204819D02*
X63175595Y-105204819D01*
X63461309Y-105204819D02*
X63461309Y-104204819D01*
X63461309Y-104204819D02*
X63366071Y-104347676D01*
X63366071Y-104347676D02*
X63270833Y-104442914D01*
X63270833Y-104442914D02*
X63175595Y-104490533D01*
X64366071Y-104204819D02*
X64461309Y-104204819D01*
X64461309Y-104204819D02*
X64556547Y-104252438D01*
X64556547Y-104252438D02*
X64604166Y-104300057D01*
X64604166Y-104300057D02*
X64651785Y-104395295D01*
X64651785Y-104395295D02*
X64699404Y-104585771D01*
X64699404Y-104585771D02*
X64699404Y-104823866D01*
X64699404Y-104823866D02*
X64651785Y-105014342D01*
X64651785Y-105014342D02*
X64604166Y-105109580D01*
X64604166Y-105109580D02*
X64556547Y-105157200D01*
X64556547Y-105157200D02*
X64461309Y-105204819D01*
X64461309Y-105204819D02*
X64366071Y-105204819D01*
X64366071Y-105204819D02*
X64270833Y-105157200D01*
X64270833Y-105157200D02*
X64223214Y-105109580D01*
X64223214Y-105109580D02*
X64175595Y-105014342D01*
X64175595Y-105014342D02*
X64127976Y-104823866D01*
X64127976Y-104823866D02*
X64127976Y-104585771D01*
X64127976Y-104585771D02*
X64175595Y-104395295D01*
X64175595Y-104395295D02*
X64223214Y-104300057D01*
X64223214Y-104300057D02*
X64270833Y-104252438D01*
X64270833Y-104252438D02*
X64366071Y-104204819D01*
X66204819Y-103142857D02*
X65728628Y-103476190D01*
X66204819Y-103714285D02*
X65204819Y-103714285D01*
X65204819Y-103714285D02*
X65204819Y-103333333D01*
X65204819Y-103333333D02*
X65252438Y-103238095D01*
X65252438Y-103238095D02*
X65300057Y-103190476D01*
X65300057Y-103190476D02*
X65395295Y-103142857D01*
X65395295Y-103142857D02*
X65538152Y-103142857D01*
X65538152Y-103142857D02*
X65633390Y-103190476D01*
X65633390Y-103190476D02*
X65681009Y-103238095D01*
X65681009Y-103238095D02*
X65728628Y-103333333D01*
X65728628Y-103333333D02*
X65728628Y-103714285D01*
X66204819Y-102190476D02*
X66204819Y-102761904D01*
X66204819Y-102476190D02*
X65204819Y-102476190D01*
X65204819Y-102476190D02*
X65347676Y-102571428D01*
X65347676Y-102571428D02*
X65442914Y-102666666D01*
X65442914Y-102666666D02*
X65490533Y-102761904D01*
X66204819Y-101238095D02*
X66204819Y-101809523D01*
X66204819Y-101523809D02*
X65204819Y-101523809D01*
X65204819Y-101523809D02*
X65347676Y-101619047D01*
X65347676Y-101619047D02*
X65442914Y-101714285D01*
X65442914Y-101714285D02*
X65490533Y-101809523D01*
X51454819Y-79261904D02*
X52264342Y-79261904D01*
X52264342Y-79261904D02*
X52359580Y-79214285D01*
X52359580Y-79214285D02*
X52407200Y-79166666D01*
X52407200Y-79166666D02*
X52454819Y-79071428D01*
X52454819Y-79071428D02*
X52454819Y-78880952D01*
X52454819Y-78880952D02*
X52407200Y-78785714D01*
X52407200Y-78785714D02*
X52359580Y-78738095D01*
X52359580Y-78738095D02*
X52264342Y-78690476D01*
X52264342Y-78690476D02*
X51454819Y-78690476D01*
X51454819Y-78309523D02*
X51454819Y-77690476D01*
X51454819Y-77690476D02*
X51835771Y-78023809D01*
X51835771Y-78023809D02*
X51835771Y-77880952D01*
X51835771Y-77880952D02*
X51883390Y-77785714D01*
X51883390Y-77785714D02*
X51931009Y-77738095D01*
X51931009Y-77738095D02*
X52026247Y-77690476D01*
X52026247Y-77690476D02*
X52264342Y-77690476D01*
X52264342Y-77690476D02*
X52359580Y-77738095D01*
X52359580Y-77738095D02*
X52407200Y-77785714D01*
X52407200Y-77785714D02*
X52454819Y-77880952D01*
X52454819Y-77880952D02*
X52454819Y-78166666D01*
X52454819Y-78166666D02*
X52407200Y-78261904D01*
X52407200Y-78261904D02*
X52359580Y-78309523D01*
X56175595Y-110954819D02*
X56175595Y-111764342D01*
X56175595Y-111764342D02*
X56223214Y-111859580D01*
X56223214Y-111859580D02*
X56270833Y-111907200D01*
X56270833Y-111907200D02*
X56366071Y-111954819D01*
X56366071Y-111954819D02*
X56556547Y-111954819D01*
X56556547Y-111954819D02*
X56651785Y-111907200D01*
X56651785Y-111907200D02*
X56699404Y-111859580D01*
X56699404Y-111859580D02*
X56747023Y-111764342D01*
X56747023Y-111764342D02*
X56747023Y-110954819D01*
X57175595Y-111050057D02*
X57223214Y-111002438D01*
X57223214Y-111002438D02*
X57318452Y-110954819D01*
X57318452Y-110954819D02*
X57556547Y-110954819D01*
X57556547Y-110954819D02*
X57651785Y-111002438D01*
X57651785Y-111002438D02*
X57699404Y-111050057D01*
X57699404Y-111050057D02*
X57747023Y-111145295D01*
X57747023Y-111145295D02*
X57747023Y-111240533D01*
X57747023Y-111240533D02*
X57699404Y-111383390D01*
X57699404Y-111383390D02*
X57127976Y-111954819D01*
X57127976Y-111954819D02*
X57747023Y-111954819D01*
X63609580Y-88416666D02*
X63657200Y-88464285D01*
X63657200Y-88464285D02*
X63704819Y-88607142D01*
X63704819Y-88607142D02*
X63704819Y-88702380D01*
X63704819Y-88702380D02*
X63657200Y-88845237D01*
X63657200Y-88845237D02*
X63561961Y-88940475D01*
X63561961Y-88940475D02*
X63466723Y-88988094D01*
X63466723Y-88988094D02*
X63276247Y-89035713D01*
X63276247Y-89035713D02*
X63133390Y-89035713D01*
X63133390Y-89035713D02*
X62942914Y-88988094D01*
X62942914Y-88988094D02*
X62847676Y-88940475D01*
X62847676Y-88940475D02*
X62752438Y-88845237D01*
X62752438Y-88845237D02*
X62704819Y-88702380D01*
X62704819Y-88702380D02*
X62704819Y-88607142D01*
X62704819Y-88607142D02*
X62752438Y-88464285D01*
X62752438Y-88464285D02*
X62800057Y-88416666D01*
X63704819Y-87940475D02*
X63704819Y-87749999D01*
X63704819Y-87749999D02*
X63657200Y-87654761D01*
X63657200Y-87654761D02*
X63609580Y-87607142D01*
X63609580Y-87607142D02*
X63466723Y-87511904D01*
X63466723Y-87511904D02*
X63276247Y-87464285D01*
X63276247Y-87464285D02*
X62895295Y-87464285D01*
X62895295Y-87464285D02*
X62800057Y-87511904D01*
X62800057Y-87511904D02*
X62752438Y-87559523D01*
X62752438Y-87559523D02*
X62704819Y-87654761D01*
X62704819Y-87654761D02*
X62704819Y-87845237D01*
X62704819Y-87845237D02*
X62752438Y-87940475D01*
X62752438Y-87940475D02*
X62800057Y-87988094D01*
X62800057Y-87988094D02*
X62895295Y-88035713D01*
X62895295Y-88035713D02*
X63133390Y-88035713D01*
X63133390Y-88035713D02*
X63228628Y-87988094D01*
X63228628Y-87988094D02*
X63276247Y-87940475D01*
X63276247Y-87940475D02*
X63323866Y-87845237D01*
X63323866Y-87845237D02*
X63323866Y-87654761D01*
X63323866Y-87654761D02*
X63276247Y-87559523D01*
X63276247Y-87559523D02*
X63228628Y-87511904D01*
X63228628Y-87511904D02*
X63133390Y-87464285D01*
X51125057Y-118432738D02*
X51077438Y-118527976D01*
X51077438Y-118527976D02*
X50982200Y-118623214D01*
X50982200Y-118623214D02*
X50839342Y-118766071D01*
X50839342Y-118766071D02*
X50791723Y-118861309D01*
X50791723Y-118861309D02*
X50791723Y-118956547D01*
X51029819Y-118908928D02*
X50982200Y-119004166D01*
X50982200Y-119004166D02*
X50886961Y-119099404D01*
X50886961Y-119099404D02*
X50696485Y-119147023D01*
X50696485Y-119147023D02*
X50363152Y-119147023D01*
X50363152Y-119147023D02*
X50172676Y-119099404D01*
X50172676Y-119099404D02*
X50077438Y-119004166D01*
X50077438Y-119004166D02*
X50029819Y-118908928D01*
X50029819Y-118908928D02*
X50029819Y-118718452D01*
X50029819Y-118718452D02*
X50077438Y-118623214D01*
X50077438Y-118623214D02*
X50172676Y-118527976D01*
X50172676Y-118527976D02*
X50363152Y-118480357D01*
X50363152Y-118480357D02*
X50696485Y-118480357D01*
X50696485Y-118480357D02*
X50886961Y-118527976D01*
X50886961Y-118527976D02*
X50982200Y-118623214D01*
X50982200Y-118623214D02*
X51029819Y-118718452D01*
X51029819Y-118718452D02*
X51029819Y-118908928D01*
X51029819Y-117527976D02*
X51029819Y-118099404D01*
X51029819Y-117813690D02*
X50029819Y-117813690D01*
X50029819Y-117813690D02*
X50172676Y-117908928D01*
X50172676Y-117908928D02*
X50267914Y-118004166D01*
X50267914Y-118004166D02*
X50315533Y-118099404D01*
X50159580Y-113666666D02*
X50207200Y-113714285D01*
X50207200Y-113714285D02*
X50254819Y-113857142D01*
X50254819Y-113857142D02*
X50254819Y-113952380D01*
X50254819Y-113952380D02*
X50207200Y-114095237D01*
X50207200Y-114095237D02*
X50111961Y-114190475D01*
X50111961Y-114190475D02*
X50016723Y-114238094D01*
X50016723Y-114238094D02*
X49826247Y-114285713D01*
X49826247Y-114285713D02*
X49683390Y-114285713D01*
X49683390Y-114285713D02*
X49492914Y-114238094D01*
X49492914Y-114238094D02*
X49397676Y-114190475D01*
X49397676Y-114190475D02*
X49302438Y-114095237D01*
X49302438Y-114095237D02*
X49254819Y-113952380D01*
X49254819Y-113952380D02*
X49254819Y-113857142D01*
X49254819Y-113857142D02*
X49302438Y-113714285D01*
X49302438Y-113714285D02*
X49350057Y-113666666D01*
X49683390Y-113095237D02*
X49635771Y-113190475D01*
X49635771Y-113190475D02*
X49588152Y-113238094D01*
X49588152Y-113238094D02*
X49492914Y-113285713D01*
X49492914Y-113285713D02*
X49445295Y-113285713D01*
X49445295Y-113285713D02*
X49350057Y-113238094D01*
X49350057Y-113238094D02*
X49302438Y-113190475D01*
X49302438Y-113190475D02*
X49254819Y-113095237D01*
X49254819Y-113095237D02*
X49254819Y-112904761D01*
X49254819Y-112904761D02*
X49302438Y-112809523D01*
X49302438Y-112809523D02*
X49350057Y-112761904D01*
X49350057Y-112761904D02*
X49445295Y-112714285D01*
X49445295Y-112714285D02*
X49492914Y-112714285D01*
X49492914Y-112714285D02*
X49588152Y-112761904D01*
X49588152Y-112761904D02*
X49635771Y-112809523D01*
X49635771Y-112809523D02*
X49683390Y-112904761D01*
X49683390Y-112904761D02*
X49683390Y-113095237D01*
X49683390Y-113095237D02*
X49731009Y-113190475D01*
X49731009Y-113190475D02*
X49778628Y-113238094D01*
X49778628Y-113238094D02*
X49873866Y-113285713D01*
X49873866Y-113285713D02*
X50064342Y-113285713D01*
X50064342Y-113285713D02*
X50159580Y-113238094D01*
X50159580Y-113238094D02*
X50207200Y-113190475D01*
X50207200Y-113190475D02*
X50254819Y-113095237D01*
X50254819Y-113095237D02*
X50254819Y-112904761D01*
X50254819Y-112904761D02*
X50207200Y-112809523D01*
X50207200Y-112809523D02*
X50159580Y-112761904D01*
X50159580Y-112761904D02*
X50064342Y-112714285D01*
X50064342Y-112714285D02*
X49873866Y-112714285D01*
X49873866Y-112714285D02*
X49778628Y-112761904D01*
X49778628Y-112761904D02*
X49731009Y-112809523D01*
X49731009Y-112809523D02*
X49683390Y-112904761D01*
X48083333Y-83359580D02*
X48035714Y-83407200D01*
X48035714Y-83407200D02*
X47892857Y-83454819D01*
X47892857Y-83454819D02*
X47797619Y-83454819D01*
X47797619Y-83454819D02*
X47654762Y-83407200D01*
X47654762Y-83407200D02*
X47559524Y-83311961D01*
X47559524Y-83311961D02*
X47511905Y-83216723D01*
X47511905Y-83216723D02*
X47464286Y-83026247D01*
X47464286Y-83026247D02*
X47464286Y-82883390D01*
X47464286Y-82883390D02*
X47511905Y-82692914D01*
X47511905Y-82692914D02*
X47559524Y-82597676D01*
X47559524Y-82597676D02*
X47654762Y-82502438D01*
X47654762Y-82502438D02*
X47797619Y-82454819D01*
X47797619Y-82454819D02*
X47892857Y-82454819D01*
X47892857Y-82454819D02*
X48035714Y-82502438D01*
X48035714Y-82502438D02*
X48083333Y-82550057D01*
X48940476Y-82454819D02*
X48750000Y-82454819D01*
X48750000Y-82454819D02*
X48654762Y-82502438D01*
X48654762Y-82502438D02*
X48607143Y-82550057D01*
X48607143Y-82550057D02*
X48511905Y-82692914D01*
X48511905Y-82692914D02*
X48464286Y-82883390D01*
X48464286Y-82883390D02*
X48464286Y-83264342D01*
X48464286Y-83264342D02*
X48511905Y-83359580D01*
X48511905Y-83359580D02*
X48559524Y-83407200D01*
X48559524Y-83407200D02*
X48654762Y-83454819D01*
X48654762Y-83454819D02*
X48845238Y-83454819D01*
X48845238Y-83454819D02*
X48940476Y-83407200D01*
X48940476Y-83407200D02*
X48988095Y-83359580D01*
X48988095Y-83359580D02*
X49035714Y-83264342D01*
X49035714Y-83264342D02*
X49035714Y-83026247D01*
X49035714Y-83026247D02*
X48988095Y-82931009D01*
X48988095Y-82931009D02*
X48940476Y-82883390D01*
X48940476Y-82883390D02*
X48845238Y-82835771D01*
X48845238Y-82835771D02*
X48654762Y-82835771D01*
X48654762Y-82835771D02*
X48559524Y-82883390D01*
X48559524Y-82883390D02*
X48511905Y-82931009D01*
X48511905Y-82931009D02*
X48464286Y-83026247D01*
X49439819Y-69133333D02*
X50154104Y-69133333D01*
X50154104Y-69133333D02*
X50296961Y-69180952D01*
X50296961Y-69180952D02*
X50392200Y-69276190D01*
X50392200Y-69276190D02*
X50439819Y-69419047D01*
X50439819Y-69419047D02*
X50439819Y-69514285D01*
X49773152Y-68228571D02*
X50439819Y-68228571D01*
X49392200Y-68466666D02*
X50106485Y-68704761D01*
X50106485Y-68704761D02*
X50106485Y-68085714D01*
X48583333Y-99359580D02*
X48535714Y-99407200D01*
X48535714Y-99407200D02*
X48392857Y-99454819D01*
X48392857Y-99454819D02*
X48297619Y-99454819D01*
X48297619Y-99454819D02*
X48154762Y-99407200D01*
X48154762Y-99407200D02*
X48059524Y-99311961D01*
X48059524Y-99311961D02*
X48011905Y-99216723D01*
X48011905Y-99216723D02*
X47964286Y-99026247D01*
X47964286Y-99026247D02*
X47964286Y-98883390D01*
X47964286Y-98883390D02*
X48011905Y-98692914D01*
X48011905Y-98692914D02*
X48059524Y-98597676D01*
X48059524Y-98597676D02*
X48154762Y-98502438D01*
X48154762Y-98502438D02*
X48297619Y-98454819D01*
X48297619Y-98454819D02*
X48392857Y-98454819D01*
X48392857Y-98454819D02*
X48535714Y-98502438D01*
X48535714Y-98502438D02*
X48583333Y-98550057D01*
X49488095Y-98454819D02*
X49011905Y-98454819D01*
X49011905Y-98454819D02*
X48964286Y-98931009D01*
X48964286Y-98931009D02*
X49011905Y-98883390D01*
X49011905Y-98883390D02*
X49107143Y-98835771D01*
X49107143Y-98835771D02*
X49345238Y-98835771D01*
X49345238Y-98835771D02*
X49440476Y-98883390D01*
X49440476Y-98883390D02*
X49488095Y-98931009D01*
X49488095Y-98931009D02*
X49535714Y-99026247D01*
X49535714Y-99026247D02*
X49535714Y-99264342D01*
X49535714Y-99264342D02*
X49488095Y-99359580D01*
X49488095Y-99359580D02*
X49440476Y-99407200D01*
X49440476Y-99407200D02*
X49345238Y-99454819D01*
X49345238Y-99454819D02*
X49107143Y-99454819D01*
X49107143Y-99454819D02*
X49011905Y-99407200D01*
X49011905Y-99407200D02*
X48964286Y-99359580D01*
X72147080Y-116942857D02*
X72194700Y-116990476D01*
X72194700Y-116990476D02*
X72242319Y-117133333D01*
X72242319Y-117133333D02*
X72242319Y-117228571D01*
X72242319Y-117228571D02*
X72194700Y-117371428D01*
X72194700Y-117371428D02*
X72099461Y-117466666D01*
X72099461Y-117466666D02*
X72004223Y-117514285D01*
X72004223Y-117514285D02*
X71813747Y-117561904D01*
X71813747Y-117561904D02*
X71670890Y-117561904D01*
X71670890Y-117561904D02*
X71480414Y-117514285D01*
X71480414Y-117514285D02*
X71385176Y-117466666D01*
X71385176Y-117466666D02*
X71289938Y-117371428D01*
X71289938Y-117371428D02*
X71242319Y-117228571D01*
X71242319Y-117228571D02*
X71242319Y-117133333D01*
X71242319Y-117133333D02*
X71289938Y-116990476D01*
X71289938Y-116990476D02*
X71337557Y-116942857D01*
X72242319Y-115990476D02*
X72242319Y-116561904D01*
X72242319Y-116276190D02*
X71242319Y-116276190D01*
X71242319Y-116276190D02*
X71385176Y-116371428D01*
X71385176Y-116371428D02*
X71480414Y-116466666D01*
X71480414Y-116466666D02*
X71528033Y-116561904D01*
X71242319Y-115085714D02*
X71242319Y-115561904D01*
X71242319Y-115561904D02*
X71718509Y-115609523D01*
X71718509Y-115609523D02*
X71670890Y-115561904D01*
X71670890Y-115561904D02*
X71623271Y-115466666D01*
X71623271Y-115466666D02*
X71623271Y-115228571D01*
X71623271Y-115228571D02*
X71670890Y-115133333D01*
X71670890Y-115133333D02*
X71718509Y-115085714D01*
X71718509Y-115085714D02*
X71813747Y-115038095D01*
X71813747Y-115038095D02*
X72051842Y-115038095D01*
X72051842Y-115038095D02*
X72147080Y-115085714D01*
X72147080Y-115085714D02*
X72194700Y-115133333D01*
X72194700Y-115133333D02*
X72242319Y-115228571D01*
X72242319Y-115228571D02*
X72242319Y-115466666D01*
X72242319Y-115466666D02*
X72194700Y-115561904D01*
X72194700Y-115561904D02*
X72147080Y-115609523D01*
X46109580Y-97936666D02*
X46157200Y-97984285D01*
X46157200Y-97984285D02*
X46204819Y-98127142D01*
X46204819Y-98127142D02*
X46204819Y-98222380D01*
X46204819Y-98222380D02*
X46157200Y-98365237D01*
X46157200Y-98365237D02*
X46061961Y-98460475D01*
X46061961Y-98460475D02*
X45966723Y-98508094D01*
X45966723Y-98508094D02*
X45776247Y-98555713D01*
X45776247Y-98555713D02*
X45633390Y-98555713D01*
X45633390Y-98555713D02*
X45442914Y-98508094D01*
X45442914Y-98508094D02*
X45347676Y-98460475D01*
X45347676Y-98460475D02*
X45252438Y-98365237D01*
X45252438Y-98365237D02*
X45204819Y-98222380D01*
X45204819Y-98222380D02*
X45204819Y-98127142D01*
X45204819Y-98127142D02*
X45252438Y-97984285D01*
X45252438Y-97984285D02*
X45300057Y-97936666D01*
X46204819Y-96984285D02*
X46204819Y-97555713D01*
X46204819Y-97269999D02*
X45204819Y-97269999D01*
X45204819Y-97269999D02*
X45347676Y-97365237D01*
X45347676Y-97365237D02*
X45442914Y-97460475D01*
X45442914Y-97460475D02*
X45490533Y-97555713D01*
X42187200Y-84333332D02*
X42234819Y-84190475D01*
X42234819Y-84190475D02*
X42234819Y-83952380D01*
X42234819Y-83952380D02*
X42187200Y-83857142D01*
X42187200Y-83857142D02*
X42139580Y-83809523D01*
X42139580Y-83809523D02*
X42044342Y-83761904D01*
X42044342Y-83761904D02*
X41949104Y-83761904D01*
X41949104Y-83761904D02*
X41853866Y-83809523D01*
X41853866Y-83809523D02*
X41806247Y-83857142D01*
X41806247Y-83857142D02*
X41758628Y-83952380D01*
X41758628Y-83952380D02*
X41711009Y-84142856D01*
X41711009Y-84142856D02*
X41663390Y-84238094D01*
X41663390Y-84238094D02*
X41615771Y-84285713D01*
X41615771Y-84285713D02*
X41520533Y-84333332D01*
X41520533Y-84333332D02*
X41425295Y-84333332D01*
X41425295Y-84333332D02*
X41330057Y-84285713D01*
X41330057Y-84285713D02*
X41282438Y-84238094D01*
X41282438Y-84238094D02*
X41234819Y-84142856D01*
X41234819Y-84142856D02*
X41234819Y-83904761D01*
X41234819Y-83904761D02*
X41282438Y-83761904D01*
X41234819Y-83428570D02*
X42234819Y-83190475D01*
X42234819Y-83190475D02*
X41520533Y-82999999D01*
X41520533Y-82999999D02*
X42234819Y-82809523D01*
X42234819Y-82809523D02*
X41234819Y-82571428D01*
X42234819Y-81666666D02*
X42234819Y-82238094D01*
X42234819Y-81952380D02*
X41234819Y-81952380D01*
X41234819Y-81952380D02*
X41377676Y-82047618D01*
X41377676Y-82047618D02*
X41472914Y-82142856D01*
X41472914Y-82142856D02*
X41520533Y-82238094D01*
X71954819Y-98988094D02*
X70954819Y-98988094D01*
X70954819Y-98988094D02*
X70954819Y-98749999D01*
X70954819Y-98749999D02*
X71002438Y-98607142D01*
X71002438Y-98607142D02*
X71097676Y-98511904D01*
X71097676Y-98511904D02*
X71192914Y-98464285D01*
X71192914Y-98464285D02*
X71383390Y-98416666D01*
X71383390Y-98416666D02*
X71526247Y-98416666D01*
X71526247Y-98416666D02*
X71716723Y-98464285D01*
X71716723Y-98464285D02*
X71811961Y-98511904D01*
X71811961Y-98511904D02*
X71907200Y-98607142D01*
X71907200Y-98607142D02*
X71954819Y-98749999D01*
X71954819Y-98749999D02*
X71954819Y-98988094D01*
X71954819Y-97464285D02*
X71954819Y-98035713D01*
X71954819Y-97749999D02*
X70954819Y-97749999D01*
X70954819Y-97749999D02*
X71097676Y-97845237D01*
X71097676Y-97845237D02*
X71192914Y-97940475D01*
X71192914Y-97940475D02*
X71240533Y-98035713D01*
X64166666Y-120681009D02*
X63833333Y-120681009D01*
X63833333Y-121204819D02*
X63833333Y-120204819D01*
X63833333Y-120204819D02*
X64309523Y-120204819D01*
X65214285Y-121204819D02*
X64642857Y-121204819D01*
X64928571Y-121204819D02*
X64928571Y-120204819D01*
X64928571Y-120204819D02*
X64833333Y-120347676D01*
X64833333Y-120347676D02*
X64738095Y-120442914D01*
X64738095Y-120442914D02*
X64642857Y-120490533D01*
X66454819Y-98988094D02*
X65454819Y-98988094D01*
X65454819Y-98988094D02*
X65454819Y-98749999D01*
X65454819Y-98749999D02*
X65502438Y-98607142D01*
X65502438Y-98607142D02*
X65597676Y-98511904D01*
X65597676Y-98511904D02*
X65692914Y-98464285D01*
X65692914Y-98464285D02*
X65883390Y-98416666D01*
X65883390Y-98416666D02*
X66026247Y-98416666D01*
X66026247Y-98416666D02*
X66216723Y-98464285D01*
X66216723Y-98464285D02*
X66311961Y-98511904D01*
X66311961Y-98511904D02*
X66407200Y-98607142D01*
X66407200Y-98607142D02*
X66454819Y-98749999D01*
X66454819Y-98749999D02*
X66454819Y-98988094D01*
X65788152Y-97559523D02*
X66454819Y-97559523D01*
X65407200Y-97797618D02*
X66121485Y-98035713D01*
X66121485Y-98035713D02*
X66121485Y-97416666D01*
X42534819Y-93966666D02*
X42058628Y-94299999D01*
X42534819Y-94538094D02*
X41534819Y-94538094D01*
X41534819Y-94538094D02*
X41534819Y-94157142D01*
X41534819Y-94157142D02*
X41582438Y-94061904D01*
X41582438Y-94061904D02*
X41630057Y-94014285D01*
X41630057Y-94014285D02*
X41725295Y-93966666D01*
X41725295Y-93966666D02*
X41868152Y-93966666D01*
X41868152Y-93966666D02*
X41963390Y-94014285D01*
X41963390Y-94014285D02*
X42011009Y-94061904D01*
X42011009Y-94061904D02*
X42058628Y-94157142D01*
X42058628Y-94157142D02*
X42058628Y-94538094D01*
X41534819Y-93109523D02*
X41534819Y-93299999D01*
X41534819Y-93299999D02*
X41582438Y-93395237D01*
X41582438Y-93395237D02*
X41630057Y-93442856D01*
X41630057Y-93442856D02*
X41772914Y-93538094D01*
X41772914Y-93538094D02*
X41963390Y-93585713D01*
X41963390Y-93585713D02*
X42344342Y-93585713D01*
X42344342Y-93585713D02*
X42439580Y-93538094D01*
X42439580Y-93538094D02*
X42487200Y-93490475D01*
X42487200Y-93490475D02*
X42534819Y-93395237D01*
X42534819Y-93395237D02*
X42534819Y-93204761D01*
X42534819Y-93204761D02*
X42487200Y-93109523D01*
X42487200Y-93109523D02*
X42439580Y-93061904D01*
X42439580Y-93061904D02*
X42344342Y-93014285D01*
X42344342Y-93014285D02*
X42106247Y-93014285D01*
X42106247Y-93014285D02*
X42011009Y-93061904D01*
X42011009Y-93061904D02*
X41963390Y-93109523D01*
X41963390Y-93109523D02*
X41915771Y-93204761D01*
X41915771Y-93204761D02*
X41915771Y-93395237D01*
X41915771Y-93395237D02*
X41963390Y-93490475D01*
X41963390Y-93490475D02*
X42011009Y-93538094D01*
X42011009Y-93538094D02*
X42106247Y-93585713D01*
X69607142Y-94109580D02*
X69559523Y-94157200D01*
X69559523Y-94157200D02*
X69416666Y-94204819D01*
X69416666Y-94204819D02*
X69321428Y-94204819D01*
X69321428Y-94204819D02*
X69178571Y-94157200D01*
X69178571Y-94157200D02*
X69083333Y-94061961D01*
X69083333Y-94061961D02*
X69035714Y-93966723D01*
X69035714Y-93966723D02*
X68988095Y-93776247D01*
X68988095Y-93776247D02*
X68988095Y-93633390D01*
X68988095Y-93633390D02*
X69035714Y-93442914D01*
X69035714Y-93442914D02*
X69083333Y-93347676D01*
X69083333Y-93347676D02*
X69178571Y-93252438D01*
X69178571Y-93252438D02*
X69321428Y-93204819D01*
X69321428Y-93204819D02*
X69416666Y-93204819D01*
X69416666Y-93204819D02*
X69559523Y-93252438D01*
X69559523Y-93252438D02*
X69607142Y-93300057D01*
X70559523Y-94204819D02*
X69988095Y-94204819D01*
X70273809Y-94204819D02*
X70273809Y-93204819D01*
X70273809Y-93204819D02*
X70178571Y-93347676D01*
X70178571Y-93347676D02*
X70083333Y-93442914D01*
X70083333Y-93442914D02*
X69988095Y-93490533D01*
X71511904Y-94204819D02*
X70940476Y-94204819D01*
X71226190Y-94204819D02*
X71226190Y-93204819D01*
X71226190Y-93204819D02*
X71130952Y-93347676D01*
X71130952Y-93347676D02*
X71035714Y-93442914D01*
X71035714Y-93442914D02*
X70940476Y-93490533D01*
X53833333Y-105204819D02*
X53500000Y-104728628D01*
X53261905Y-105204819D02*
X53261905Y-104204819D01*
X53261905Y-104204819D02*
X53642857Y-104204819D01*
X53642857Y-104204819D02*
X53738095Y-104252438D01*
X53738095Y-104252438D02*
X53785714Y-104300057D01*
X53785714Y-104300057D02*
X53833333Y-104395295D01*
X53833333Y-104395295D02*
X53833333Y-104538152D01*
X53833333Y-104538152D02*
X53785714Y-104633390D01*
X53785714Y-104633390D02*
X53738095Y-104681009D01*
X53738095Y-104681009D02*
X53642857Y-104728628D01*
X53642857Y-104728628D02*
X53261905Y-104728628D01*
X54309524Y-105204819D02*
X54500000Y-105204819D01*
X54500000Y-105204819D02*
X54595238Y-105157200D01*
X54595238Y-105157200D02*
X54642857Y-105109580D01*
X54642857Y-105109580D02*
X54738095Y-104966723D01*
X54738095Y-104966723D02*
X54785714Y-104776247D01*
X54785714Y-104776247D02*
X54785714Y-104395295D01*
X54785714Y-104395295D02*
X54738095Y-104300057D01*
X54738095Y-104300057D02*
X54690476Y-104252438D01*
X54690476Y-104252438D02*
X54595238Y-104204819D01*
X54595238Y-104204819D02*
X54404762Y-104204819D01*
X54404762Y-104204819D02*
X54309524Y-104252438D01*
X54309524Y-104252438D02*
X54261905Y-104300057D01*
X54261905Y-104300057D02*
X54214286Y-104395295D01*
X54214286Y-104395295D02*
X54214286Y-104633390D01*
X54214286Y-104633390D02*
X54261905Y-104728628D01*
X54261905Y-104728628D02*
X54309524Y-104776247D01*
X54309524Y-104776247D02*
X54404762Y-104823866D01*
X54404762Y-104823866D02*
X54595238Y-104823866D01*
X54595238Y-104823866D02*
X54690476Y-104776247D01*
X54690476Y-104776247D02*
X54738095Y-104728628D01*
X54738095Y-104728628D02*
X54785714Y-104633390D01*
X30954819Y-71483333D02*
X31669104Y-71483333D01*
X31669104Y-71483333D02*
X31811961Y-71530952D01*
X31811961Y-71530952D02*
X31907200Y-71626190D01*
X31907200Y-71626190D02*
X31954819Y-71769047D01*
X31954819Y-71769047D02*
X31954819Y-71864285D01*
X30954819Y-71102380D02*
X30954819Y-70483333D01*
X30954819Y-70483333D02*
X31335771Y-70816666D01*
X31335771Y-70816666D02*
X31335771Y-70673809D01*
X31335771Y-70673809D02*
X31383390Y-70578571D01*
X31383390Y-70578571D02*
X31431009Y-70530952D01*
X31431009Y-70530952D02*
X31526247Y-70483333D01*
X31526247Y-70483333D02*
X31764342Y-70483333D01*
X31764342Y-70483333D02*
X31859580Y-70530952D01*
X31859580Y-70530952D02*
X31907200Y-70578571D01*
X31907200Y-70578571D02*
X31954819Y-70673809D01*
X31954819Y-70673809D02*
X31954819Y-70959523D01*
X31954819Y-70959523D02*
X31907200Y-71054761D01*
X31907200Y-71054761D02*
X31859580Y-71102380D01*
X66454819Y-90666666D02*
X65978628Y-90999999D01*
X66454819Y-91238094D02*
X65454819Y-91238094D01*
X65454819Y-91238094D02*
X65454819Y-90857142D01*
X65454819Y-90857142D02*
X65502438Y-90761904D01*
X65502438Y-90761904D02*
X65550057Y-90714285D01*
X65550057Y-90714285D02*
X65645295Y-90666666D01*
X65645295Y-90666666D02*
X65788152Y-90666666D01*
X65788152Y-90666666D02*
X65883390Y-90714285D01*
X65883390Y-90714285D02*
X65931009Y-90761904D01*
X65931009Y-90761904D02*
X65978628Y-90857142D01*
X65978628Y-90857142D02*
X65978628Y-91238094D01*
X65454819Y-90333332D02*
X65454819Y-89666666D01*
X65454819Y-89666666D02*
X66454819Y-90095237D01*
D10*
X52566667Y-102038704D02*
X52528571Y-102076800D01*
X52528571Y-102076800D02*
X52414286Y-102114895D01*
X52414286Y-102114895D02*
X52338095Y-102114895D01*
X52338095Y-102114895D02*
X52223809Y-102076800D01*
X52223809Y-102076800D02*
X52147619Y-102000609D01*
X52147619Y-102000609D02*
X52109524Y-101924419D01*
X52109524Y-101924419D02*
X52071428Y-101772038D01*
X52071428Y-101772038D02*
X52071428Y-101657752D01*
X52071428Y-101657752D02*
X52109524Y-101505371D01*
X52109524Y-101505371D02*
X52147619Y-101429180D01*
X52147619Y-101429180D02*
X52223809Y-101352990D01*
X52223809Y-101352990D02*
X52338095Y-101314895D01*
X52338095Y-101314895D02*
X52414286Y-101314895D01*
X52414286Y-101314895D02*
X52528571Y-101352990D01*
X52528571Y-101352990D02*
X52566667Y-101391085D01*
X52871428Y-101391085D02*
X52909524Y-101352990D01*
X52909524Y-101352990D02*
X52985714Y-101314895D01*
X52985714Y-101314895D02*
X53176190Y-101314895D01*
X53176190Y-101314895D02*
X53252381Y-101352990D01*
X53252381Y-101352990D02*
X53290476Y-101391085D01*
X53290476Y-101391085D02*
X53328571Y-101467276D01*
X53328571Y-101467276D02*
X53328571Y-101543466D01*
X53328571Y-101543466D02*
X53290476Y-101657752D01*
X53290476Y-101657752D02*
X52833333Y-102114895D01*
X52833333Y-102114895D02*
X53328571Y-102114895D01*
D11*
X39854819Y-89266666D02*
X39378628Y-89599999D01*
X39854819Y-89838094D02*
X38854819Y-89838094D01*
X38854819Y-89838094D02*
X38854819Y-89457142D01*
X38854819Y-89457142D02*
X38902438Y-89361904D01*
X38902438Y-89361904D02*
X38950057Y-89314285D01*
X38950057Y-89314285D02*
X39045295Y-89266666D01*
X39045295Y-89266666D02*
X39188152Y-89266666D01*
X39188152Y-89266666D02*
X39283390Y-89314285D01*
X39283390Y-89314285D02*
X39331009Y-89361904D01*
X39331009Y-89361904D02*
X39378628Y-89457142D01*
X39378628Y-89457142D02*
X39378628Y-89838094D01*
X38854819Y-88361904D02*
X38854819Y-88838094D01*
X38854819Y-88838094D02*
X39331009Y-88885713D01*
X39331009Y-88885713D02*
X39283390Y-88838094D01*
X39283390Y-88838094D02*
X39235771Y-88742856D01*
X39235771Y-88742856D02*
X39235771Y-88504761D01*
X39235771Y-88504761D02*
X39283390Y-88409523D01*
X39283390Y-88409523D02*
X39331009Y-88361904D01*
X39331009Y-88361904D02*
X39426247Y-88314285D01*
X39426247Y-88314285D02*
X39664342Y-88314285D01*
X39664342Y-88314285D02*
X39759580Y-88361904D01*
X39759580Y-88361904D02*
X39807200Y-88409523D01*
X39807200Y-88409523D02*
X39854819Y-88504761D01*
X39854819Y-88504761D02*
X39854819Y-88742856D01*
X39854819Y-88742856D02*
X39807200Y-88838094D01*
X39807200Y-88838094D02*
X39759580Y-88885713D01*
X54238095Y-90204819D02*
X54238095Y-91014342D01*
X54238095Y-91014342D02*
X54285714Y-91109580D01*
X54285714Y-91109580D02*
X54333333Y-91157200D01*
X54333333Y-91157200D02*
X54428571Y-91204819D01*
X54428571Y-91204819D02*
X54619047Y-91204819D01*
X54619047Y-91204819D02*
X54714285Y-91157200D01*
X54714285Y-91157200D02*
X54761904Y-91109580D01*
X54761904Y-91109580D02*
X54809523Y-91014342D01*
X54809523Y-91014342D02*
X54809523Y-90204819D01*
X55809523Y-91204819D02*
X55238095Y-91204819D01*
X55523809Y-91204819D02*
X55523809Y-90204819D01*
X55523809Y-90204819D02*
X55428571Y-90347676D01*
X55428571Y-90347676D02*
X55333333Y-90442914D01*
X55333333Y-90442914D02*
X55238095Y-90490533D01*
X58954819Y-99416666D02*
X58954819Y-99892856D01*
X58954819Y-99892856D02*
X57954819Y-99892856D01*
X58954819Y-98559523D02*
X58954819Y-99130951D01*
X58954819Y-98845237D02*
X57954819Y-98845237D01*
X57954819Y-98845237D02*
X58097676Y-98940475D01*
X58097676Y-98940475D02*
X58192914Y-99035713D01*
X58192914Y-99035713D02*
X58240533Y-99130951D01*
X63609580Y-94916666D02*
X63657200Y-94964285D01*
X63657200Y-94964285D02*
X63704819Y-95107142D01*
X63704819Y-95107142D02*
X63704819Y-95202380D01*
X63704819Y-95202380D02*
X63657200Y-95345237D01*
X63657200Y-95345237D02*
X63561961Y-95440475D01*
X63561961Y-95440475D02*
X63466723Y-95488094D01*
X63466723Y-95488094D02*
X63276247Y-95535713D01*
X63276247Y-95535713D02*
X63133390Y-95535713D01*
X63133390Y-95535713D02*
X62942914Y-95488094D01*
X62942914Y-95488094D02*
X62847676Y-95440475D01*
X62847676Y-95440475D02*
X62752438Y-95345237D01*
X62752438Y-95345237D02*
X62704819Y-95202380D01*
X62704819Y-95202380D02*
X62704819Y-95107142D01*
X62704819Y-95107142D02*
X62752438Y-94964285D01*
X62752438Y-94964285D02*
X62800057Y-94916666D01*
X62704819Y-94583332D02*
X62704819Y-93964285D01*
X62704819Y-93964285D02*
X63085771Y-94297618D01*
X63085771Y-94297618D02*
X63085771Y-94154761D01*
X63085771Y-94154761D02*
X63133390Y-94059523D01*
X63133390Y-94059523D02*
X63181009Y-94011904D01*
X63181009Y-94011904D02*
X63276247Y-93964285D01*
X63276247Y-93964285D02*
X63514342Y-93964285D01*
X63514342Y-93964285D02*
X63609580Y-94011904D01*
X63609580Y-94011904D02*
X63657200Y-94059523D01*
X63657200Y-94059523D02*
X63704819Y-94154761D01*
X63704819Y-94154761D02*
X63704819Y-94440475D01*
X63704819Y-94440475D02*
X63657200Y-94535713D01*
X63657200Y-94535713D02*
X63609580Y-94583332D01*
X55357142Y-101609580D02*
X55309523Y-101657200D01*
X55309523Y-101657200D02*
X55166666Y-101704819D01*
X55166666Y-101704819D02*
X55071428Y-101704819D01*
X55071428Y-101704819D02*
X54928571Y-101657200D01*
X54928571Y-101657200D02*
X54833333Y-101561961D01*
X54833333Y-101561961D02*
X54785714Y-101466723D01*
X54785714Y-101466723D02*
X54738095Y-101276247D01*
X54738095Y-101276247D02*
X54738095Y-101133390D01*
X54738095Y-101133390D02*
X54785714Y-100942914D01*
X54785714Y-100942914D02*
X54833333Y-100847676D01*
X54833333Y-100847676D02*
X54928571Y-100752438D01*
X54928571Y-100752438D02*
X55071428Y-100704819D01*
X55071428Y-100704819D02*
X55166666Y-100704819D01*
X55166666Y-100704819D02*
X55309523Y-100752438D01*
X55309523Y-100752438D02*
X55357142Y-100800057D01*
X56309523Y-101704819D02*
X55738095Y-101704819D01*
X56023809Y-101704819D02*
X56023809Y-100704819D01*
X56023809Y-100704819D02*
X55928571Y-100847676D01*
X55928571Y-100847676D02*
X55833333Y-100942914D01*
X55833333Y-100942914D02*
X55738095Y-100990533D01*
X56690476Y-100800057D02*
X56738095Y-100752438D01*
X56738095Y-100752438D02*
X56833333Y-100704819D01*
X56833333Y-100704819D02*
X57071428Y-100704819D01*
X57071428Y-100704819D02*
X57166666Y-100752438D01*
X57166666Y-100752438D02*
X57214285Y-100800057D01*
X57214285Y-100800057D02*
X57261904Y-100895295D01*
X57261904Y-100895295D02*
X57261904Y-100990533D01*
X57261904Y-100990533D02*
X57214285Y-101133390D01*
X57214285Y-101133390D02*
X56642857Y-101704819D01*
X56642857Y-101704819D02*
X57261904Y-101704819D01*
D12*
%TO.C,J2*%
X53700000Y-66550000D02*
X53700000Y-66780000D01*
X61300000Y-66550000D02*
X53700000Y-66550000D01*
X61300000Y-66550000D02*
X61300000Y-66780000D01*
D13*
X58900000Y-72050000D02*
G75*
G02*
X58700000Y-72050000I-100000J0D01*
G01*
X58700000Y-72050000D02*
G75*
G02*
X58900000Y-72050000I100000J0D01*
G01*
D14*
%TO.C,C16*%
X59740000Y-107890580D02*
X59740000Y-107609420D01*
X60760000Y-107890580D02*
X60760000Y-107609420D01*
%TO.C,C14*%
X68690000Y-111711252D02*
X68690000Y-110288748D01*
X70510000Y-111711252D02*
X70510000Y-110288748D01*
%TO.C,C7*%
X47140000Y-95142164D02*
X47140000Y-95357836D01*
X47860000Y-95142164D02*
X47860000Y-95357836D01*
D12*
%TO.C,U4*%
X65750000Y-75967500D02*
X65750000Y-75912500D01*
X65750000Y-78412500D02*
X65750000Y-78357500D01*
X66305000Y-75912500D02*
X65750000Y-75912500D01*
X66305000Y-78412500D02*
X65750000Y-78412500D01*
X68750000Y-75912500D02*
X68195000Y-75912500D01*
X68750000Y-75967500D02*
X68750000Y-75912500D01*
X68750000Y-78412500D02*
X68195000Y-78412500D01*
X68750000Y-78412500D02*
X68750000Y-78357500D01*
D11*
X69325000Y-78062500D02*
G75*
G02*
X69175000Y-78062500I-75000J0D01*
G01*
X69175000Y-78062500D02*
G75*
G02*
X69325000Y-78062500I75000J0D01*
G01*
D14*
%TO.C,R13*%
X68596359Y-80370000D02*
X68903641Y-80370000D01*
X68596359Y-81130000D02*
X68903641Y-81130000D01*
%TO.C,D2*%
X58360000Y-122500000D02*
X54350000Y-122500000D01*
X58360000Y-124500000D02*
X54350000Y-124500000D01*
X58360000Y-124500000D02*
X58360000Y-122500000D01*
D12*
%TO.C,L2*%
X59700000Y-110250000D02*
X59700000Y-111480000D01*
X59700000Y-110250000D02*
X66800000Y-110250000D01*
X59700000Y-116750000D02*
X59700000Y-115520000D01*
X59700000Y-116750000D02*
X66800000Y-116750000D01*
X66800000Y-110250000D02*
X66800000Y-111480000D01*
X66800000Y-116750000D02*
X66800000Y-115520000D01*
D14*
%TO.C,R3*%
X52977500Y-107262742D02*
X52977500Y-107737258D01*
X54022500Y-107262742D02*
X54022500Y-107737258D01*
%TO.C,C18*%
X67357836Y-73890000D02*
X67142164Y-73890000D01*
X67357836Y-74610000D02*
X67142164Y-74610000D01*
%TO.C,D3*%
X56750000Y-112390000D02*
X56750000Y-116400000D01*
X58750000Y-112390000D02*
X56750000Y-112390000D01*
X58750000Y-112390000D02*
X58750000Y-116400000D01*
%TO.C,R12*%
X65903641Y-80370000D02*
X65596359Y-80370000D01*
X65903641Y-81130000D02*
X65596359Y-81130000D01*
%TO.C,R8*%
X58977500Y-101762742D02*
X58977500Y-102237258D01*
X60022500Y-101762742D02*
X60022500Y-102237258D01*
%TO.C,C4*%
X46890580Y-87990000D02*
X46609420Y-87990000D01*
X46890580Y-89010000D02*
X46609420Y-89010000D01*
%TO.C,C17*%
X63890000Y-75107836D02*
X63890000Y-74892164D01*
X64610000Y-75107836D02*
X64610000Y-74892164D01*
%TO.C,J5*%
X80310000Y-74635000D02*
X80310000Y-71150000D01*
X80310000Y-67665000D02*
X80310000Y-71150000D01*
X74890000Y-73565000D02*
X74590000Y-73565000D01*
X74890000Y-71150000D02*
X74890000Y-73565000D01*
X74890000Y-71150000D02*
X74890000Y-68735000D01*
X74890000Y-68735000D02*
X74590000Y-68735000D01*
X74600000Y-73275000D02*
X74300000Y-73275000D01*
X74590000Y-74635000D02*
X80310000Y-74635000D01*
X74590000Y-73565000D02*
X74590000Y-74635000D01*
X74590000Y-68735000D02*
X74590000Y-67665000D01*
X74590000Y-67665000D02*
X80310000Y-67665000D01*
X74300000Y-73275000D02*
X74300000Y-73775000D01*
%TO.C,C10*%
X55587836Y-99110000D02*
X55372164Y-99110000D01*
X55587836Y-98390000D02*
X55372164Y-98390000D01*
%TO.C,C13*%
X70457836Y-86540000D02*
X70242164Y-86540000D01*
X70457836Y-87260000D02*
X70242164Y-87260000D01*
%TO.C,R4*%
X52977500Y-110762742D02*
X52977500Y-111237258D01*
X54022500Y-110762742D02*
X54022500Y-111237258D01*
%TO.C,R1*%
X69247500Y-102562258D02*
X69247500Y-102087742D01*
X70292500Y-102562258D02*
X70292500Y-102087742D01*
%TO.C,Y1*%
X68250000Y-87850000D02*
X68250000Y-91150000D01*
X68250000Y-91150000D02*
X72250000Y-91150000D01*
%TO.C,FB1*%
X61100378Y-117940000D02*
X61899622Y-117940000D01*
X61100378Y-119060000D02*
X61899622Y-119060000D01*
D12*
%TO.C,J8*%
X36250000Y-116200000D02*
X38450000Y-116200000D01*
X36250000Y-130500000D02*
X36250000Y-116200000D01*
X43050000Y-116200000D02*
X45250000Y-116200000D01*
X45250000Y-116200000D02*
X45250000Y-117100000D01*
X45250000Y-121900000D02*
X45250000Y-130500000D01*
X45250000Y-130500000D02*
X36250000Y-130500000D01*
D14*
%TO.C,R2*%
X43120000Y-90846359D02*
X43120000Y-91153641D01*
X43880000Y-90846359D02*
X43880000Y-91153641D01*
%TO.C,R10*%
X60012742Y-104227500D02*
X60487258Y-104227500D01*
X60012742Y-105272500D02*
X60487258Y-105272500D01*
%TO.C,R11*%
X66977500Y-102562258D02*
X66977500Y-102087742D01*
X68022500Y-102562258D02*
X68022500Y-102087742D01*
%TO.C,U3*%
X53440000Y-78750000D02*
X53440000Y-77950000D01*
X53440000Y-78750000D02*
X53440000Y-79550000D01*
X56560000Y-78750000D02*
X56560000Y-77950000D01*
X56560000Y-78750000D02*
X56560000Y-79550000D01*
X56840000Y-77690000D02*
X56510000Y-77450000D01*
X56840000Y-77210000D01*
X56840000Y-77690000D01*
G36*
X56840000Y-77690000D02*
G01*
X56510000Y-77450000D01*
X56840000Y-77210000D01*
X56840000Y-77690000D01*
G37*
D13*
%TO.C,J7*%
X78230000Y-77970000D02*
X80770000Y-77970000D01*
X78230000Y-128770000D02*
X78230000Y-77970000D01*
X80770000Y-128770000D02*
X78230000Y-128770000D01*
X80770000Y-128770000D02*
X80770000Y-77970000D01*
X79600000Y-77320000D02*
G75*
G02*
X79400000Y-77320000I-100000J0D01*
G01*
X79400000Y-77320000D02*
G75*
G02*
X79600000Y-77320000I100000J0D01*
G01*
D14*
%TO.C,U2*%
X55440000Y-108500000D02*
X55440000Y-107700000D01*
X55440000Y-108500000D02*
X55440000Y-109300000D01*
X58560000Y-108500000D02*
X58560000Y-107700000D01*
X58560000Y-108500000D02*
X58560000Y-109300000D01*
X58840000Y-107440000D02*
X58510000Y-107200000D01*
X58840000Y-106960000D01*
X58840000Y-107440000D01*
G36*
X58840000Y-107440000D02*
G01*
X58510000Y-107200000D01*
X58840000Y-106960000D01*
X58840000Y-107440000D01*
G37*
%TO.C,C9*%
X62890000Y-86357836D02*
X62890000Y-86142164D01*
X63610000Y-86357836D02*
X63610000Y-86142164D01*
%TO.C,Q1*%
X53312500Y-116940000D02*
X52662500Y-116940000D01*
X53312500Y-116940000D02*
X53962500Y-116940000D01*
X53312500Y-120060000D02*
X52662500Y-120060000D01*
X53312500Y-120060000D02*
X53962500Y-120060000D01*
X54715000Y-120340000D02*
X54235000Y-120340000D01*
X54475000Y-120010000D01*
X54715000Y-120340000D01*
G36*
X54715000Y-120340000D02*
G01*
X54235000Y-120340000D01*
X54475000Y-120010000D01*
X54715000Y-120340000D01*
G37*
%TO.C,C8*%
X53536252Y-113927500D02*
X52113748Y-113927500D01*
X53536252Y-115747500D02*
X52113748Y-115747500D01*
D13*
%TO.C,J6*%
X29230000Y-77970000D02*
X31770000Y-77970000D01*
X29230000Y-128770000D02*
X29230000Y-77970000D01*
X31770000Y-128770000D02*
X29230000Y-128770000D01*
X31770000Y-128770000D02*
X31770000Y-77970000D01*
X30600000Y-77320000D02*
G75*
G02*
X30400000Y-77320000I-100000J0D01*
G01*
X30400000Y-77320000D02*
G75*
G02*
X30600000Y-77320000I100000J0D01*
G01*
D14*
%TO.C,C6*%
X50907836Y-82640000D02*
X50692164Y-82640000D01*
X50907836Y-83360000D02*
X50692164Y-83360000D01*
%TO.C,J4*%
X42515000Y-67035000D02*
X42515000Y-70565000D01*
X42580000Y-67035000D02*
X42515000Y-67035000D01*
X42580000Y-70565000D02*
X42515000Y-70565000D01*
X48920000Y-65710000D02*
X48920000Y-67035000D01*
X48985000Y-67035000D02*
X48920000Y-67035000D01*
X48985000Y-67035000D02*
X48985000Y-70565000D01*
X48985000Y-70565000D02*
X48920000Y-70565000D01*
%TO.C,C5*%
X50857836Y-98390000D02*
X50642164Y-98390000D01*
X50857836Y-99110000D02*
X50642164Y-99110000D01*
%TO.C,C15*%
X68690000Y-115588748D02*
X68690000Y-117011252D01*
X70510000Y-115588748D02*
X70510000Y-117011252D01*
%TO.C,C1*%
X45240000Y-95129420D02*
X45240000Y-95410580D01*
X46260000Y-95129420D02*
X46260000Y-95410580D01*
%TO.C,SW1*%
X35350000Y-81800000D02*
X35350000Y-82700000D01*
X35560000Y-81600000D02*
X35350000Y-81800000D01*
X35560000Y-82900000D02*
X35350000Y-82700000D01*
X35560000Y-82900000D02*
X36850000Y-82900000D01*
X36850000Y-80150000D02*
X36850000Y-85850000D01*
X36850000Y-81600000D02*
X35560000Y-81600000D01*
X37860000Y-86450000D02*
X38650000Y-86450000D01*
X38650000Y-79550000D02*
X37860000Y-79550000D01*
X39700000Y-81400000D02*
X39700000Y-83100000D01*
X39700000Y-84400000D02*
X39700000Y-84600000D01*
%TO.C,D1*%
X69015000Y-97987500D02*
X69015000Y-100272500D01*
X69015000Y-100272500D02*
X70485000Y-100272500D01*
X70485000Y-100272500D02*
X70485000Y-97987500D01*
%TO.C,F1*%
X61602064Y-119977500D02*
X60397936Y-119977500D01*
X61602064Y-121797500D02*
X60397936Y-121797500D01*
%TO.C,D4*%
X66765000Y-97987500D02*
X66765000Y-100272500D01*
X66765000Y-100272500D02*
X68235000Y-100272500D01*
X68235000Y-100272500D02*
X68235000Y-97987500D01*
%TO.C,R6*%
X42870000Y-93953641D02*
X42870000Y-93646359D01*
X43630000Y-93953641D02*
X43630000Y-93646359D01*
D15*
%TO.C,G\u002A\u002A\u002A*%
G36*
X47003800Y-109908275D02*
G01*
X47003800Y-110111298D01*
X46332816Y-110113660D01*
X45661833Y-110116022D01*
X45613423Y-110136149D01*
X45561982Y-110163309D01*
X45518276Y-110197683D01*
X45486310Y-110235938D01*
X45479708Y-110247477D01*
X45462390Y-110294290D01*
X45451780Y-110350346D01*
X45448734Y-110408990D01*
X45452813Y-110456396D01*
X45469202Y-110520653D01*
X45495923Y-110572665D01*
X45534620Y-110614448D01*
X45586935Y-110648021D01*
X45621343Y-110663414D01*
X45632793Y-110667815D01*
X45644160Y-110671522D01*
X45656991Y-110674616D01*
X45672832Y-110677180D01*
X45693230Y-110679294D01*
X45719731Y-110681042D01*
X45753883Y-110682505D01*
X45797232Y-110683765D01*
X45851325Y-110684904D01*
X45917709Y-110686003D01*
X45997929Y-110687144D01*
X46093534Y-110688410D01*
X46093633Y-110688411D01*
X46190991Y-110689732D01*
X46273068Y-110690990D01*
X46341514Y-110692258D01*
X46397982Y-110693611D01*
X46444122Y-110695125D01*
X46481585Y-110696873D01*
X46512024Y-110698931D01*
X46537088Y-110701372D01*
X46558430Y-110704272D01*
X46577701Y-110707706D01*
X46593166Y-110710982D01*
X46681413Y-110734803D01*
X46756378Y-110764450D01*
X46821189Y-110801570D01*
X46878975Y-110847813D01*
X46908282Y-110877074D01*
X46957807Y-110938248D01*
X46997205Y-111005895D01*
X47027359Y-111082275D01*
X47049151Y-111169646D01*
X47063463Y-111270266D01*
X47063990Y-111275602D01*
X47068571Y-111363893D01*
X47066320Y-111456509D01*
X47057652Y-111546902D01*
X47042981Y-111628524D01*
X47041115Y-111636295D01*
X47010082Y-111728962D01*
X46965585Y-111811926D01*
X46908562Y-111884261D01*
X46839951Y-111945035D01*
X46760691Y-111993322D01*
X46671721Y-112028192D01*
X46635500Y-112037745D01*
X46611818Y-112043005D01*
X46588481Y-112047619D01*
X46564256Y-112051629D01*
X46537911Y-112055077D01*
X46508213Y-112058007D01*
X46473931Y-112060460D01*
X46433832Y-112062478D01*
X46386683Y-112064105D01*
X46331253Y-112065381D01*
X46266309Y-112066351D01*
X46190619Y-112067056D01*
X46102951Y-112067538D01*
X46002071Y-112067839D01*
X45886749Y-112068003D01*
X45755751Y-112068071D01*
X45752850Y-112068072D01*
X45047999Y-112068239D01*
X45047999Y-111869206D01*
X45047999Y-111670173D01*
X45672416Y-111670109D01*
X45802968Y-111669968D01*
X45921245Y-111669578D01*
X46026642Y-111668947D01*
X46118555Y-111668083D01*
X46196379Y-111666995D01*
X46259509Y-111665689D01*
X46307341Y-111664174D01*
X46339271Y-111662459D01*
X46351866Y-111661137D01*
X46422388Y-111643479D01*
X46482586Y-111615543D01*
X46531046Y-111578361D01*
X46566353Y-111532966D01*
X46584133Y-111491581D01*
X46593155Y-111445574D01*
X46596816Y-111391266D01*
X46595094Y-111336035D01*
X46587967Y-111287261D01*
X46584778Y-111275013D01*
X46564023Y-111223354D01*
X46534503Y-111183318D01*
X46492832Y-111150468D01*
X46487049Y-111146916D01*
X46467309Y-111135168D01*
X46449361Y-111125224D01*
X46431637Y-111116911D01*
X46412569Y-111110059D01*
X46390588Y-111104496D01*
X46364125Y-111100052D01*
X46331612Y-111096556D01*
X46291480Y-111093835D01*
X46242161Y-111091719D01*
X46182086Y-111090038D01*
X46109685Y-111088619D01*
X46023392Y-111087291D01*
X45928533Y-111085979D01*
X45832453Y-111084652D01*
X45751661Y-111083462D01*
X45684515Y-111082318D01*
X45629370Y-111081131D01*
X45584585Y-111079810D01*
X45548515Y-111078266D01*
X45519516Y-111076410D01*
X45495947Y-111074150D01*
X45476164Y-111071398D01*
X45458522Y-111068062D01*
X45441380Y-111064055D01*
X45423093Y-111059285D01*
X45418638Y-111058093D01*
X45320662Y-111024789D01*
X45235613Y-110980621D01*
X45163122Y-110925223D01*
X45102824Y-110858225D01*
X45054352Y-110779258D01*
X45017338Y-110687953D01*
X45003912Y-110641130D01*
X44997178Y-110612897D01*
X44992219Y-110586686D01*
X44988785Y-110559170D01*
X44986629Y-110527022D01*
X44985501Y-110486911D01*
X44985153Y-110435512D01*
X44985239Y-110391280D01*
X44986274Y-110314857D01*
X44989159Y-110251881D01*
X44994542Y-110198902D01*
X45003072Y-110152471D01*
X45015397Y-110109140D01*
X45032167Y-110065458D01*
X45054029Y-110017976D01*
X45056319Y-110013295D01*
X45098480Y-109941078D01*
X45149173Y-109879803D01*
X45209500Y-109828855D01*
X45280565Y-109787617D01*
X45363467Y-109755475D01*
X45459310Y-109731812D01*
X45569194Y-109716015D01*
X45592629Y-109713774D01*
X45616474Y-109712418D01*
X45655728Y-109711130D01*
X45708865Y-109709927D01*
X45774361Y-109708826D01*
X45850690Y-109707844D01*
X45936328Y-109706999D01*
X46029749Y-109706307D01*
X46129429Y-109705786D01*
X46233842Y-109705453D01*
X46341464Y-109705325D01*
X46345516Y-109705324D01*
X47003800Y-109705252D01*
X47003800Y-109908275D01*
G37*
G36*
X40617260Y-109662069D02*
G01*
X40763823Y-109677905D01*
X40904979Y-109707034D01*
X40987559Y-109731490D01*
X41102935Y-109778609D01*
X41208728Y-109839444D01*
X41304521Y-109913471D01*
X41389894Y-110000164D01*
X41464431Y-110098996D01*
X41527713Y-110209441D01*
X41579323Y-110330974D01*
X41618843Y-110463069D01*
X41636874Y-110548826D01*
X41645121Y-110606948D01*
X41651758Y-110677675D01*
X41656658Y-110756739D01*
X41659693Y-110839870D01*
X41660735Y-110922801D01*
X41659659Y-111001262D01*
X41656336Y-111070984D01*
X41653442Y-111104663D01*
X41631241Y-111253508D01*
X41596918Y-111391589D01*
X41550651Y-111518573D01*
X41492617Y-111634130D01*
X41422994Y-111737929D01*
X41341959Y-111829638D01*
X41249690Y-111908928D01*
X41206174Y-111939403D01*
X41118586Y-111990435D01*
X41023550Y-112032775D01*
X40917331Y-112068011D01*
X40878166Y-112078612D01*
X40847873Y-112086295D01*
X40821957Y-112092325D01*
X40797754Y-112096928D01*
X40772598Y-112100328D01*
X40743826Y-112102749D01*
X40708773Y-112104416D01*
X40664773Y-112105553D01*
X40609162Y-112106385D01*
X40539499Y-112107134D01*
X40456370Y-112107649D01*
X40388466Y-112107319D01*
X40334097Y-112106094D01*
X40291572Y-112103922D01*
X40259203Y-112100753D01*
X40243166Y-112098202D01*
X40105440Y-112065294D01*
X39980535Y-112021462D01*
X39868052Y-111966369D01*
X39767593Y-111899675D01*
X39678759Y-111821041D01*
X39601150Y-111730131D01*
X39534368Y-111626604D01*
X39478014Y-111510123D01*
X39444432Y-111420323D01*
X39417956Y-111325015D01*
X39397444Y-111217198D01*
X39383039Y-111100271D01*
X39374883Y-110977631D01*
X39373120Y-110852676D01*
X39373589Y-110840493D01*
X39842471Y-110840493D01*
X39843461Y-110954494D01*
X39851815Y-111077693D01*
X39867910Y-111187316D01*
X39892245Y-111285097D01*
X39925321Y-111372773D01*
X39967639Y-111452078D01*
X40000953Y-111500783D01*
X40060175Y-111565989D01*
X40131378Y-111620205D01*
X40213303Y-111662997D01*
X40304689Y-111693932D01*
X40404276Y-111712577D01*
X40510803Y-111718499D01*
X40615699Y-111712127D01*
X40707866Y-111697776D01*
X40787007Y-111676677D01*
X40856133Y-111647520D01*
X40918256Y-111608992D01*
X40976387Y-111559783D01*
X40984944Y-111551404D01*
X41045956Y-111479157D01*
X41096441Y-111394339D01*
X41136495Y-111296708D01*
X41166217Y-111186022D01*
X41185702Y-111062037D01*
X41187706Y-111042706D01*
X41193864Y-110942386D01*
X41193635Y-110838776D01*
X41187357Y-110736094D01*
X41175366Y-110638554D01*
X41157999Y-110550372D01*
X41144407Y-110501384D01*
X41105225Y-110399902D01*
X41056270Y-110312145D01*
X40997206Y-110237773D01*
X40927698Y-110176445D01*
X40847410Y-110127822D01*
X40756005Y-110091564D01*
X40732895Y-110084806D01*
X40681472Y-110074530D01*
X40618249Y-110067818D01*
X40547983Y-110064671D01*
X40475428Y-110065093D01*
X40405340Y-110069086D01*
X40342476Y-110076655D01*
X40303498Y-110084535D01*
X40209377Y-110116205D01*
X40125962Y-110160992D01*
X40053261Y-110218879D01*
X39991280Y-110289852D01*
X39940029Y-110373897D01*
X39899515Y-110470999D01*
X39869745Y-110581142D01*
X39850728Y-110704311D01*
X39842471Y-110840493D01*
X39373589Y-110840493D01*
X39377892Y-110728804D01*
X39389341Y-110609414D01*
X39406058Y-110505618D01*
X39439864Y-110372144D01*
X39486259Y-110248359D01*
X39544692Y-110134934D01*
X39614616Y-110032540D01*
X39695482Y-109941846D01*
X39786739Y-109863523D01*
X39887841Y-109798241D01*
X39998236Y-109746670D01*
X40039966Y-109731651D01*
X40176642Y-109694317D01*
X40320517Y-109670276D01*
X40468441Y-109659526D01*
X40617260Y-109662069D01*
G37*
G36*
X43116986Y-108675704D02*
G01*
X43201627Y-108685499D01*
X43284325Y-108702607D01*
X43362609Y-108727055D01*
X43434010Y-108758867D01*
X43439597Y-108761865D01*
X43471472Y-108780202D01*
X43489197Y-108794316D01*
X43493972Y-108807130D01*
X43486999Y-108821571D01*
X43471202Y-108838845D01*
X43440880Y-108869177D01*
X43399890Y-108844255D01*
X43312365Y-108800647D01*
X43217609Y-108771985D01*
X43115054Y-108758120D01*
X43066672Y-108756669D01*
X43005760Y-108758772D01*
X42958323Y-108765592D01*
X42921373Y-108777893D01*
X42891920Y-108796437D01*
X42884135Y-108803298D01*
X42861461Y-108833877D01*
X42854816Y-108866080D01*
X42863679Y-108897962D01*
X42887527Y-108927575D01*
X42924100Y-108952097D01*
X42942161Y-108959419D01*
X42973627Y-108970180D01*
X43015542Y-108983452D01*
X43064947Y-108998308D01*
X43118887Y-109013820D01*
X43137083Y-109018898D01*
X43205213Y-109037866D01*
X43259443Y-109053271D01*
X43302232Y-109065928D01*
X43336037Y-109076651D01*
X43363317Y-109086255D01*
X43386530Y-109095552D01*
X43408134Y-109105357D01*
X43428322Y-109115332D01*
X43481971Y-109149455D01*
X43519891Y-109189590D01*
X43542293Y-109236038D01*
X43549399Y-109287301D01*
X43541562Y-109340480D01*
X43518258Y-109387237D01*
X43479804Y-109427293D01*
X43426515Y-109460366D01*
X43358706Y-109486178D01*
X43312254Y-109497837D01*
X43266781Y-109505043D01*
X43209867Y-109510478D01*
X43146933Y-109513953D01*
X43083396Y-109515277D01*
X43024675Y-109514261D01*
X42976191Y-109510714D01*
X42969433Y-109509857D01*
X42905962Y-109498494D01*
X42841738Y-109482265D01*
X42780531Y-109462483D01*
X42726109Y-109440463D01*
X42682244Y-109417520D01*
X42660400Y-109402089D01*
X42639233Y-109384358D01*
X42668929Y-109354319D01*
X42698626Y-109324281D01*
X42773704Y-109361973D01*
X42832057Y-109388639D01*
X42887707Y-109407784D01*
X42945317Y-109420390D01*
X43009547Y-109427438D01*
X43085060Y-109429910D01*
X43096433Y-109429947D01*
X43159811Y-109428963D01*
X43209176Y-109425526D01*
X43247348Y-109418991D01*
X43277151Y-109408712D01*
X43301408Y-109394045D01*
X43318171Y-109379264D01*
X43337120Y-109356554D01*
X43345125Y-109334352D01*
X43346200Y-109317644D01*
X43344127Y-109294359D01*
X43336913Y-109273971D01*
X43323060Y-109255638D01*
X43301073Y-109238517D01*
X43269455Y-109221763D01*
X43226709Y-109204534D01*
X43171341Y-109185985D01*
X43101852Y-109165274D01*
X43050081Y-109150717D01*
X42977670Y-109130514D01*
X42919435Y-109113814D01*
X42873165Y-109099844D01*
X42836652Y-109087832D01*
X42807685Y-109077006D01*
X42784055Y-109066594D01*
X42763552Y-109055824D01*
X42743965Y-109043924D01*
X42743427Y-109043579D01*
X42698394Y-109006446D01*
X42668522Y-108962886D01*
X42654327Y-108913669D01*
X42653921Y-108909899D01*
X42655605Y-108858911D01*
X42671947Y-108813884D01*
X42704049Y-108771881D01*
X42706728Y-108769165D01*
X42751132Y-108735590D01*
X42808420Y-108709180D01*
X42876120Y-108689963D01*
X42951762Y-108677961D01*
X43032874Y-108673200D01*
X43116986Y-108675704D01*
G37*
G36*
X37612150Y-109705259D02*
G01*
X37731576Y-109705368D01*
X37845242Y-109705684D01*
X37951891Y-109706193D01*
X38050265Y-109706882D01*
X38139108Y-109707736D01*
X38217161Y-109708742D01*
X38283169Y-109709886D01*
X38335874Y-109711154D01*
X38374018Y-109712533D01*
X38394662Y-109713838D01*
X38518344Y-109732002D01*
X38629769Y-109761854D01*
X38728916Y-109803367D01*
X38815764Y-109856517D01*
X38890290Y-109921280D01*
X38952472Y-109997631D01*
X39002288Y-110085545D01*
X39039717Y-110184998D01*
X39064736Y-110295964D01*
X39077324Y-110418419D01*
X39078950Y-110484667D01*
X39074339Y-110606649D01*
X39060130Y-110716343D01*
X39035951Y-110815662D01*
X39001431Y-110906518D01*
X38994329Y-110921630D01*
X38943499Y-111009831D01*
X38882162Y-111085475D01*
X38809645Y-111149099D01*
X38725275Y-111201237D01*
X38628376Y-111242425D01*
X38566766Y-111261347D01*
X38482100Y-111284209D01*
X37938116Y-111287084D01*
X37394133Y-111289959D01*
X37394133Y-111679099D01*
X37394133Y-112068239D01*
X37157066Y-112068239D01*
X36920000Y-112068239D01*
X36920000Y-110891630D01*
X37394133Y-110891630D01*
X37883083Y-110889188D01*
X37986293Y-110888664D01*
X38073985Y-110888166D01*
X38147572Y-110887637D01*
X38208469Y-110887018D01*
X38258090Y-110886252D01*
X38297850Y-110885280D01*
X38329162Y-110884044D01*
X38353441Y-110882486D01*
X38372102Y-110880548D01*
X38386558Y-110878172D01*
X38398224Y-110875299D01*
X38408514Y-110871873D01*
X38418842Y-110867834D01*
X38420620Y-110867117D01*
X38477025Y-110835383D01*
X38524602Y-110789875D01*
X38562453Y-110731787D01*
X38589679Y-110662314D01*
X38597164Y-110632661D01*
X38603215Y-110592350D01*
X38606819Y-110541955D01*
X38607976Y-110486889D01*
X38606690Y-110432563D01*
X38602960Y-110384389D01*
X38597079Y-110348933D01*
X38572404Y-110278035D01*
X38536289Y-110219587D01*
X38488763Y-110173633D01*
X38464123Y-110157310D01*
X38447841Y-110148003D01*
X38432244Y-110140066D01*
X38415897Y-110133389D01*
X38397360Y-110127863D01*
X38375196Y-110123378D01*
X38347967Y-110119826D01*
X38314234Y-110117097D01*
X38272559Y-110115082D01*
X38221505Y-110113672D01*
X38159633Y-110112758D01*
X38085505Y-110112230D01*
X37997683Y-110111978D01*
X37894730Y-110111895D01*
X37866149Y-110111888D01*
X37394133Y-110111787D01*
X37394133Y-110501708D01*
X37394133Y-110891630D01*
X36920000Y-110891630D01*
X36920000Y-110886745D01*
X36920000Y-110501708D01*
X36920000Y-109705252D01*
X37612150Y-109705259D01*
G37*
G36*
X41995268Y-108697550D02*
G01*
X42064133Y-108698104D01*
X42120034Y-108699120D01*
X42164953Y-108700672D01*
X42200874Y-108702837D01*
X42229781Y-108705690D01*
X42253656Y-108709306D01*
X42260706Y-108710667D01*
X42339845Y-108732691D01*
X42405415Y-108763599D01*
X42457060Y-108803038D01*
X42494420Y-108850658D01*
X42517136Y-108906108D01*
X42524850Y-108969015D01*
X42517957Y-109035643D01*
X42496894Y-109093154D01*
X42461404Y-109141947D01*
X42411230Y-109182422D01*
X42374909Y-109202432D01*
X42323552Y-109227089D01*
X42428476Y-109356760D01*
X42460653Y-109396698D01*
X42488838Y-109432009D01*
X42511415Y-109460641D01*
X42526770Y-109480543D01*
X42533284Y-109489665D01*
X42533400Y-109489973D01*
X42525470Y-109491320D01*
X42503826Y-109492431D01*
X42471687Y-109493198D01*
X42432272Y-109493512D01*
X42428417Y-109493514D01*
X42323434Y-109493514D01*
X42227699Y-109374942D01*
X42131964Y-109256369D01*
X41972849Y-109256369D01*
X41813733Y-109256369D01*
X41813733Y-109374942D01*
X41813733Y-109493514D01*
X41720600Y-109493514D01*
X41627466Y-109493514D01*
X41627466Y-109095448D01*
X41627466Y-109068348D01*
X41815108Y-109068348D01*
X41815404Y-109109787D01*
X41816055Y-109140582D01*
X41817036Y-109158124D01*
X41817530Y-109160887D01*
X41827356Y-109165245D01*
X41851108Y-109168579D01*
X41885813Y-109170907D01*
X41928495Y-109172245D01*
X41976179Y-109172613D01*
X42025893Y-109172029D01*
X42074660Y-109170510D01*
X42119506Y-109168075D01*
X42157457Y-109164741D01*
X42185537Y-109160527D01*
X42193315Y-109158606D01*
X42236725Y-109139654D01*
X42274730Y-109111810D01*
X42302590Y-109078901D01*
X42310294Y-109064092D01*
X42316067Y-109041641D01*
X42320115Y-109009350D01*
X42321547Y-108975030D01*
X42316342Y-108915893D01*
X42300748Y-108869126D01*
X42274203Y-108833304D01*
X42261271Y-108822372D01*
X42241170Y-108808671D01*
X42220437Y-108798148D01*
X42196510Y-108790385D01*
X42166825Y-108784965D01*
X42128820Y-108781472D01*
X42079933Y-108779488D01*
X42017600Y-108778596D01*
X41991533Y-108778462D01*
X41817966Y-108777842D01*
X41815679Y-108963971D01*
X41815192Y-109018873D01*
X41815108Y-109068348D01*
X41627466Y-109068348D01*
X41627466Y-108697382D01*
X41911456Y-108697382D01*
X41995268Y-108697550D01*
G37*
G36*
X42493090Y-110478093D02*
G01*
X42493560Y-110611058D01*
X42494029Y-110728170D01*
X42494521Y-110830514D01*
X42495058Y-110919175D01*
X42495664Y-110995239D01*
X42496361Y-111059792D01*
X42497172Y-111113918D01*
X42498120Y-111158703D01*
X42499228Y-111195233D01*
X42500520Y-111224593D01*
X42502017Y-111247868D01*
X42503744Y-111266144D01*
X42505722Y-111280507D01*
X42507975Y-111292041D01*
X42510502Y-111301750D01*
X42543324Y-111388675D01*
X42587757Y-111463453D01*
X42644052Y-111526315D01*
X42712464Y-111577490D01*
X42793247Y-111617208D01*
X42886652Y-111645698D01*
X42890864Y-111646654D01*
X42911246Y-111650958D01*
X42931739Y-111654543D01*
X42954169Y-111657495D01*
X42980359Y-111659901D01*
X43012134Y-111661847D01*
X43051320Y-111663419D01*
X43099740Y-111664704D01*
X43159221Y-111665789D01*
X43231586Y-111666759D01*
X43318660Y-111667701D01*
X43339850Y-111667912D01*
X43710266Y-111671559D01*
X43710266Y-111869899D01*
X43710266Y-112068239D01*
X43331383Y-112067140D01*
X43250240Y-112066746D01*
X43172152Y-112066063D01*
X43099214Y-112065132D01*
X43033519Y-112063992D01*
X42977163Y-112062684D01*
X42932239Y-112061247D01*
X42900842Y-112059722D01*
X42889000Y-112058738D01*
X42750887Y-112037242D01*
X42626136Y-112005928D01*
X42514120Y-111964528D01*
X42414212Y-111912771D01*
X42325787Y-111850387D01*
X42256947Y-111786457D01*
X42188760Y-111705472D01*
X42133360Y-111618835D01*
X42089708Y-111524305D01*
X42056764Y-111419638D01*
X42034004Y-111305985D01*
X42032517Y-111287624D01*
X42031150Y-111253114D01*
X42029909Y-111203245D01*
X42028803Y-111138807D01*
X42027841Y-111060590D01*
X42027030Y-110969383D01*
X42026379Y-110865976D01*
X42025896Y-110751159D01*
X42025589Y-110625721D01*
X42025465Y-110490454D01*
X42025463Y-110478093D01*
X42025400Y-109705252D01*
X42257937Y-109705252D01*
X42490475Y-109705252D01*
X42493090Y-110478093D01*
G37*
G36*
X37116431Y-108983228D02*
G01*
X37118966Y-109269073D01*
X37145079Y-109315655D01*
X37180334Y-109362298D01*
X37227163Y-109400083D01*
X37281060Y-109425464D01*
X37286967Y-109427271D01*
X37311931Y-109431993D01*
X37347327Y-109435558D01*
X37386660Y-109437371D01*
X37398366Y-109437484D01*
X37472704Y-109432694D01*
X37534214Y-109417903D01*
X37584179Y-109392477D01*
X37623878Y-109355784D01*
X37652176Y-109312044D01*
X37677766Y-109261850D01*
X37680207Y-108979616D01*
X37682648Y-108697382D01*
X37780392Y-108697382D01*
X37878135Y-108697382D01*
X37874956Y-108974758D01*
X37874030Y-109051102D01*
X37873097Y-109112532D01*
X37872018Y-109161070D01*
X37870657Y-109198741D01*
X37868875Y-109227568D01*
X37866534Y-109249575D01*
X37863497Y-109266785D01*
X37859626Y-109281222D01*
X37854782Y-109294909D01*
X37852806Y-109299962D01*
X37819974Y-109360483D01*
X37773456Y-109411073D01*
X37713299Y-109451707D01*
X37639555Y-109482360D01*
X37552272Y-109503007D01*
X37451499Y-109513623D01*
X37432233Y-109514456D01*
X37386047Y-109515233D01*
X37340054Y-109514598D01*
X37300253Y-109512707D01*
X37277232Y-109510441D01*
X37185021Y-109491589D01*
X37106308Y-109463015D01*
X37041244Y-109424813D01*
X36989977Y-109377078D01*
X36952657Y-109319903D01*
X36943817Y-109299962D01*
X36938569Y-109286093D01*
X36934350Y-109272255D01*
X36931023Y-109256426D01*
X36928450Y-109236583D01*
X36926494Y-109210703D01*
X36925018Y-109176763D01*
X36923885Y-109132740D01*
X36922958Y-109076611D01*
X36922098Y-109006354D01*
X36921753Y-108974758D01*
X36918770Y-108697382D01*
X37016333Y-108697382D01*
X37113896Y-108697382D01*
X37116431Y-108983228D01*
G37*
G36*
X39701300Y-108697426D02*
G01*
X39866400Y-109048733D01*
X39900325Y-109120543D01*
X39932266Y-109187425D01*
X39961470Y-109247856D01*
X39987186Y-109300315D01*
X40008663Y-109343281D01*
X40025149Y-109375234D01*
X40035894Y-109394652D01*
X40039966Y-109400166D01*
X40045187Y-109392765D01*
X40056794Y-109371523D01*
X40074036Y-109337960D01*
X40096161Y-109293595D01*
X40122419Y-109239949D01*
X40152057Y-109178540D01*
X40184326Y-109110889D01*
X40213533Y-109049033D01*
X40378633Y-108697774D01*
X40474789Y-108697578D01*
X40516256Y-108697698D01*
X40543466Y-108698547D01*
X40559095Y-108700556D01*
X40565815Y-108704155D01*
X40566303Y-108709777D01*
X40565532Y-108712204D01*
X40560956Y-108722605D01*
X40549886Y-108746807D01*
X40533033Y-108783284D01*
X40511107Y-108830507D01*
X40484819Y-108886949D01*
X40454880Y-108951084D01*
X40422000Y-109021382D01*
X40386890Y-109096316D01*
X40380476Y-109109991D01*
X40200833Y-109492957D01*
X40042255Y-109493236D01*
X39883677Y-109493514D01*
X39867524Y-109461754D01*
X39859061Y-109444545D01*
X39844842Y-109414973D01*
X39825707Y-109374824D01*
X39802495Y-109325889D01*
X39776046Y-109269954D01*
X39747200Y-109208808D01*
X39716796Y-109144240D01*
X39685674Y-109078037D01*
X39654674Y-109011988D01*
X39624635Y-108947880D01*
X39596397Y-108887503D01*
X39570800Y-108832644D01*
X39548683Y-108785092D01*
X39530885Y-108746635D01*
X39518247Y-108719060D01*
X39511609Y-108704157D01*
X39510800Y-108702032D01*
X39518702Y-108700185D01*
X39540158Y-108698689D01*
X39571788Y-108697709D01*
X39606050Y-108697404D01*
X39701300Y-108697426D01*
G37*
G36*
X38562516Y-109021340D02*
G01*
X38611969Y-109086154D01*
X38658437Y-109146759D01*
X38700891Y-109201835D01*
X38738305Y-109250063D01*
X38769649Y-109290122D01*
X38793895Y-109320692D01*
X38810015Y-109340454D01*
X38816980Y-109348087D01*
X38817055Y-109348121D01*
X38819102Y-109340600D01*
X38820887Y-109317196D01*
X38822385Y-109278967D01*
X38823569Y-109226969D01*
X38824415Y-109162257D01*
X38824895Y-109085887D01*
X38824999Y-109024163D01*
X38824999Y-108697382D01*
X38922366Y-108697382D01*
X39019733Y-108697382D01*
X39019733Y-109095669D01*
X39019733Y-109493956D01*
X38890913Y-109491618D01*
X38762093Y-109489280D01*
X38516263Y-109165552D01*
X38466878Y-109100795D01*
X38420372Y-109040348D01*
X38377784Y-108985522D01*
X38340152Y-108937628D01*
X38308513Y-108897979D01*
X38283904Y-108867884D01*
X38267365Y-108848655D01*
X38259933Y-108841604D01*
X38259850Y-108841594D01*
X38257043Y-108844992D01*
X38254745Y-108856182D01*
X38252912Y-108876454D01*
X38251503Y-108907098D01*
X38250476Y-108949404D01*
X38249789Y-109004664D01*
X38249400Y-109074168D01*
X38249267Y-109159205D01*
X38249266Y-109167439D01*
X38249266Y-109493514D01*
X38156133Y-109493514D01*
X38063000Y-109493514D01*
X38063000Y-109095448D01*
X38063000Y-108697382D01*
X38189460Y-108697382D01*
X38315920Y-108697382D01*
X38562516Y-109021340D01*
G37*
G36*
X47071533Y-106412960D02*
G01*
X47071472Y-106620374D01*
X47071292Y-106811310D01*
X47070990Y-106985726D01*
X47070569Y-107143581D01*
X47070028Y-107284834D01*
X47069367Y-107409444D01*
X47068588Y-107517370D01*
X47067689Y-107608571D01*
X47066671Y-107683007D01*
X47065535Y-107740636D01*
X47064281Y-107781418D01*
X47062909Y-107805311D01*
X47062590Y-107808308D01*
X47040667Y-107918005D01*
X47003649Y-108021631D01*
X46952670Y-108117945D01*
X46888865Y-108205701D01*
X46813370Y-108283656D01*
X46727320Y-108350567D01*
X46631850Y-108405190D01*
X46528097Y-108446282D01*
X46464495Y-108463443D01*
X46455268Y-108465252D01*
X46443871Y-108466898D01*
X46429507Y-108468386D01*
X46411381Y-108469726D01*
X46388699Y-108470924D01*
X46360664Y-108471989D01*
X46326483Y-108472928D01*
X46285360Y-108473748D01*
X46236499Y-108474459D01*
X46179105Y-108475066D01*
X46112384Y-108475578D01*
X46035539Y-108476003D01*
X45947777Y-108476347D01*
X45848301Y-108476620D01*
X45736316Y-108476829D01*
X45611028Y-108476980D01*
X45471641Y-108477083D01*
X45317360Y-108477144D01*
X45147390Y-108477172D01*
X45044211Y-108477176D01*
X43684866Y-108477176D01*
X43684866Y-106783278D01*
X43684866Y-105089380D01*
X45378200Y-105089380D01*
X47071533Y-105089380D01*
X47071533Y-106412960D01*
G37*
G36*
X39974350Y-99399908D02*
G01*
X43028700Y-99402117D01*
X43094175Y-99420791D01*
X43202367Y-99458032D01*
X43297829Y-99504771D01*
X43382540Y-99562112D01*
X43442874Y-99615350D01*
X43520186Y-99702745D01*
X43582758Y-99797985D01*
X43630182Y-99900307D01*
X43662054Y-100008949D01*
X43667501Y-100036767D01*
X43668491Y-100049778D01*
X43669419Y-100077383D01*
X43670288Y-100119719D01*
X43671096Y-100176925D01*
X43671845Y-100249141D01*
X43672535Y-100336505D01*
X43673167Y-100439157D01*
X43673741Y-100557234D01*
X43674257Y-100690875D01*
X43674717Y-100840220D01*
X43675120Y-101005408D01*
X43675466Y-101186576D01*
X43675758Y-101383864D01*
X43675994Y-101597412D01*
X43676176Y-101827356D01*
X43676304Y-102073837D01*
X43676378Y-102336993D01*
X43676400Y-102588201D01*
X43676399Y-105089380D01*
X41983066Y-105089380D01*
X40289733Y-105089380D01*
X40289733Y-106783278D01*
X40289733Y-108477176D01*
X38604866Y-108477176D01*
X36920000Y-108477176D01*
X36920000Y-103937438D01*
X36920000Y-99397701D01*
X39974350Y-99399908D01*
G37*
G36*
X45810000Y-108735495D02*
G01*
X45810000Y-108773608D01*
X45500966Y-108773608D01*
X45191933Y-108773608D01*
X45191933Y-108909120D01*
X45191933Y-109044631D01*
X45433233Y-109044631D01*
X45674533Y-109044631D01*
X45674533Y-109086979D01*
X45674533Y-109129326D01*
X45433233Y-109129326D01*
X45191933Y-109129326D01*
X45191933Y-109269073D01*
X45191933Y-109408819D01*
X45500966Y-109408819D01*
X45810000Y-109408819D01*
X45810000Y-109451167D01*
X45810000Y-109493514D01*
X45403600Y-109493514D01*
X44997199Y-109493514D01*
X44997199Y-109095448D01*
X44997199Y-108697382D01*
X45403600Y-108697382D01*
X45810000Y-108697382D01*
X45810000Y-108735495D01*
G37*
G36*
X41492000Y-108735389D02*
G01*
X41492000Y-108773396D01*
X41185083Y-108775619D01*
X40878166Y-108777842D01*
X40875835Y-108911237D01*
X40873503Y-109044631D01*
X41115018Y-109044631D01*
X41356533Y-109044631D01*
X41356533Y-109086979D01*
X41356533Y-109129326D01*
X41115233Y-109129326D01*
X40873933Y-109129326D01*
X40873933Y-109269073D01*
X40873933Y-109408819D01*
X41182966Y-109408819D01*
X41492000Y-109408819D01*
X41492000Y-109451167D01*
X41492000Y-109493514D01*
X41089833Y-109493514D01*
X40687666Y-109493514D01*
X40687666Y-109095448D01*
X40687666Y-108697382D01*
X41089833Y-108697382D01*
X41492000Y-108697382D01*
X41492000Y-108735389D01*
G37*
G36*
X46766733Y-108735323D02*
G01*
X46766733Y-108773264D01*
X46591050Y-108775553D01*
X46415366Y-108777842D01*
X46413158Y-109135678D01*
X46410949Y-109493514D01*
X46318000Y-109493514D01*
X46225050Y-109493514D01*
X46222841Y-109135678D01*
X46220633Y-108777842D01*
X46040716Y-108775557D01*
X45860800Y-108773271D01*
X45860800Y-108735327D01*
X45860800Y-108697382D01*
X46313766Y-108697382D01*
X46766733Y-108697382D01*
X46766733Y-108735323D01*
G37*
G36*
X44895599Y-108735327D02*
G01*
X44895599Y-108773271D01*
X44715683Y-108775557D01*
X44535766Y-108777842D01*
X44533558Y-109135678D01*
X44531349Y-109493514D01*
X44438399Y-109493514D01*
X44345450Y-109493514D01*
X44343241Y-109135678D01*
X44341033Y-108777842D01*
X44165349Y-108775553D01*
X43989666Y-108773264D01*
X43989666Y-108735323D01*
X43989666Y-108697382D01*
X44442633Y-108697382D01*
X44895599Y-108697382D01*
X44895599Y-108735327D01*
G37*
G36*
X47071533Y-109095448D02*
G01*
X47071533Y-109493514D01*
X46974166Y-109493514D01*
X46876800Y-109493514D01*
X46876800Y-109095448D01*
X46876800Y-108697382D01*
X46974166Y-108697382D01*
X47071533Y-108697382D01*
X47071533Y-109095448D01*
G37*
G36*
X44300816Y-109707235D02*
G01*
X44535766Y-109709486D01*
X44537912Y-110888863D01*
X44540059Y-112068239D01*
X44302962Y-112068239D01*
X44065866Y-112068239D01*
X44065866Y-110886611D01*
X44065866Y-109704984D01*
X44300816Y-109707235D01*
G37*
G36*
X43879599Y-109095448D02*
G01*
X43879599Y-109493514D01*
X43782233Y-109493514D01*
X43684866Y-109493514D01*
X43684866Y-109095448D01*
X43684866Y-108697382D01*
X43782233Y-108697382D01*
X43879599Y-108697382D01*
X43879599Y-109095448D01*
G37*
G36*
X39392266Y-109095448D02*
G01*
X39392266Y-109493514D01*
X39299133Y-109493514D01*
X39206000Y-109493514D01*
X39206000Y-109095448D01*
X39206000Y-108697382D01*
X39299133Y-108697382D01*
X39392266Y-108697382D01*
X39392266Y-109095448D01*
G37*
D14*
%TO.C,C11*%
X70142164Y-91890000D02*
X70357836Y-91890000D01*
X70142164Y-92610000D02*
X70357836Y-92610000D01*
%TO.C,R9*%
X56512742Y-104227500D02*
X56987258Y-104227500D01*
X56512742Y-105272500D02*
X56987258Y-105272500D01*
%TO.C,J3*%
X29640000Y-67665000D02*
X29640000Y-71150000D01*
X29640000Y-74635000D02*
X29640000Y-71150000D01*
X35060000Y-68735000D02*
X35360000Y-68735000D01*
X35060000Y-71150000D02*
X35060000Y-68735000D01*
X35060000Y-71150000D02*
X35060000Y-73565000D01*
X35060000Y-73565000D02*
X35360000Y-73565000D01*
X35350000Y-69025000D02*
X35650000Y-69025000D01*
X35360000Y-67665000D02*
X29640000Y-67665000D01*
X35360000Y-68735000D02*
X35360000Y-67665000D01*
X35360000Y-73565000D02*
X35360000Y-74635000D01*
X35360000Y-74635000D02*
X29640000Y-74635000D01*
X35650000Y-69025000D02*
X35650000Y-68525000D01*
%TO.C,R7*%
X65620000Y-88653641D02*
X65620000Y-88346359D01*
X66380000Y-88653641D02*
X66380000Y-88346359D01*
%TO.C,C2*%
X52890580Y-100760000D02*
X52609420Y-100760000D01*
X52890580Y-99740000D02*
X52609420Y-99740000D01*
%TO.C,R5*%
X40320000Y-88846359D02*
X40320000Y-89153641D01*
X41080000Y-88846359D02*
X41080000Y-89153641D01*
%TO.C,U1*%
X50140000Y-85640000D02*
X51090000Y-85640000D01*
X50140000Y-86590000D02*
X50140000Y-85640000D01*
X50140000Y-94910000D02*
X50140000Y-95860000D01*
X50140000Y-95860000D02*
X51090000Y-95860000D01*
X60360000Y-85640000D02*
X59410000Y-85640000D01*
X60360000Y-86590000D02*
X60360000Y-85640000D01*
X60360000Y-94910000D02*
X60360000Y-95860000D01*
X60360000Y-95860000D02*
X59410000Y-95860000D01*
X51090000Y-96475000D02*
X50620000Y-96815000D01*
X50620000Y-96135000D01*
X51090000Y-96475000D01*
G36*
X51090000Y-96475000D02*
G01*
X50620000Y-96815000D01*
X50620000Y-96135000D01*
X51090000Y-96475000D01*
G37*
%TO.C,C3*%
X62890000Y-92857836D02*
X62890000Y-92642164D01*
X63610000Y-92857836D02*
X63610000Y-92642164D01*
%TO.C,C12*%
X55607836Y-100360000D02*
X55392164Y-100360000D01*
X55607836Y-99640000D02*
X55392164Y-99640000D01*
%TD*%
%LPC*%
D16*
%TO.C,J2*%
X58800000Y-70675000D03*
X58150000Y-70675000D03*
X57500000Y-70675000D03*
X56850000Y-70675000D03*
X56200000Y-70675000D03*
D17*
X60700000Y-70450000D03*
X54300000Y-70450000D03*
D18*
X56300000Y-68000000D03*
X58700000Y-68000000D03*
D19*
X60800000Y-68000000D03*
X54200000Y-68000000D03*
%TD*%
D20*
%TO.C,C16*%
X60250000Y-108525000D03*
X60250000Y-106975000D03*
%TD*%
D21*
%TO.C,C14*%
X69600000Y-112475000D03*
X69600000Y-109525000D03*
%TD*%
D22*
%TO.C,C7*%
X47500000Y-94770000D03*
X47500000Y-95730000D03*
%TD*%
D23*
%TO.C,U4*%
X68412500Y-77912500D03*
X68412500Y-77412500D03*
X68412500Y-76912500D03*
X68412500Y-76412500D03*
D24*
X67750000Y-76250000D03*
X67250000Y-76250000D03*
X66750000Y-76250000D03*
D23*
X66087500Y-76412500D03*
X66087500Y-76912500D03*
X66087500Y-77412500D03*
X66087500Y-77912500D03*
D24*
X66750000Y-78075000D03*
X67250000Y-78075000D03*
X67750000Y-78075000D03*
%TD*%
D25*
%TO.C,R13*%
X68240000Y-80750000D03*
X69260000Y-80750000D03*
%TD*%
D26*
%TO.C,D2*%
X57650000Y-123500000D03*
X54350000Y-123500000D03*
%TD*%
D27*
%TO.C,L2*%
X60475000Y-113500000D03*
X66025000Y-113500000D03*
%TD*%
D28*
%TO.C,R3*%
X53500000Y-106675000D03*
X53500000Y-108325000D03*
%TD*%
D29*
%TO.C,C18*%
X67730000Y-74250000D03*
X66770000Y-74250000D03*
%TD*%
D30*
%TO.C,D3*%
X57750000Y-113100000D03*
X57750000Y-116400000D03*
%TD*%
D31*
%TO.C,R12*%
X66260000Y-80750000D03*
X65240000Y-80750000D03*
%TD*%
D28*
%TO.C,R8*%
X59500000Y-101175000D03*
X59500000Y-102825000D03*
%TD*%
D32*
%TO.C,C4*%
X47525000Y-88500000D03*
X45975000Y-88500000D03*
%TD*%
D33*
%TO.C,C17*%
X64250000Y-75480000D03*
X64250000Y-74520000D03*
%TD*%
D34*
%TO.C,J5*%
X75750000Y-69275000D03*
X75750000Y-70525000D03*
X75750000Y-71775000D03*
D35*
X75750000Y-73025000D03*
%TD*%
D29*
%TO.C,C10*%
X55960000Y-98750000D03*
X55000000Y-98750000D03*
%TD*%
%TO.C,C13*%
X70830000Y-86900000D03*
X69870000Y-86900000D03*
%TD*%
D28*
%TO.C,R4*%
X53500000Y-110175000D03*
X53500000Y-111825000D03*
%TD*%
D36*
%TO.C,R1*%
X69770000Y-103150000D03*
X69770000Y-101500000D03*
%TD*%
D37*
%TO.C,Y1*%
X69150000Y-90350000D03*
X71350000Y-90350000D03*
X71350000Y-88650000D03*
X69150000Y-88650000D03*
%TD*%
D38*
%TO.C,FB1*%
X60437500Y-118500000D03*
X62562500Y-118500000D03*
%TD*%
D39*
%TO.C,J8*%
X45550000Y-119500000D03*
D40*
X40750000Y-123000000D03*
X40750000Y-117000000D03*
%TD*%
D41*
%TO.C,R2*%
X43500000Y-90490000D03*
X43500000Y-91510000D03*
%TD*%
D42*
%TO.C,R10*%
X59425000Y-104750000D03*
X61075000Y-104750000D03*
%TD*%
D36*
%TO.C,R11*%
X67500000Y-103150000D03*
X67500000Y-101500000D03*
%TD*%
D43*
%TO.C,U3*%
X55950000Y-77612500D03*
X55000000Y-77612500D03*
X54050000Y-77612500D03*
X54050000Y-79887500D03*
X55000000Y-79887500D03*
X55950000Y-79887500D03*
%TD*%
D44*
%TO.C,J7*%
X79500000Y-79240000D03*
D45*
X79500000Y-81780000D03*
X79500000Y-84320000D03*
X79500000Y-86860000D03*
X79500000Y-89400000D03*
X79500000Y-91940000D03*
X79500000Y-94480000D03*
X79500000Y-97020000D03*
X79500000Y-99560000D03*
X79500000Y-102100000D03*
X79500000Y-104640000D03*
X79500000Y-107180000D03*
X79500000Y-109720000D03*
X79500000Y-112260000D03*
X79500000Y-114800000D03*
X79500000Y-117340000D03*
X79500000Y-119880000D03*
X79500000Y-122420000D03*
X79500000Y-124960000D03*
X79500000Y-127500000D03*
%TD*%
D43*
%TO.C,U2*%
X57950000Y-107362500D03*
X57000000Y-107362500D03*
X56050000Y-107362500D03*
X56050000Y-109637500D03*
X57000000Y-109637500D03*
X57950000Y-109637500D03*
%TD*%
D33*
%TO.C,C9*%
X63250000Y-86730000D03*
X63250000Y-85770000D03*
%TD*%
D46*
%TO.C,Q1*%
X54250000Y-119450000D03*
X54250000Y-117550000D03*
X52375000Y-118500000D03*
%TD*%
D47*
%TO.C,C8*%
X54300000Y-114837500D03*
X51350000Y-114837500D03*
%TD*%
D44*
%TO.C,J6*%
X30500000Y-79240000D03*
D45*
X30500000Y-81780000D03*
X30500000Y-84320000D03*
X30500000Y-86860000D03*
X30500000Y-89400000D03*
X30500000Y-91940000D03*
X30500000Y-94480000D03*
X30500000Y-97020000D03*
X30500000Y-99560000D03*
X30500000Y-102100000D03*
X30500000Y-104640000D03*
X30500000Y-107180000D03*
X30500000Y-109720000D03*
X30500000Y-112260000D03*
X30500000Y-114800000D03*
X30500000Y-117340000D03*
X30500000Y-119880000D03*
X30500000Y-122420000D03*
X30500000Y-124960000D03*
X30500000Y-127500000D03*
%TD*%
D29*
%TO.C,C6*%
X51280000Y-83000000D03*
X50320000Y-83000000D03*
%TD*%
D48*
%TO.C,J4*%
X48290000Y-66850000D03*
X48290000Y-70750000D03*
X47020000Y-66850000D03*
X47020000Y-70750000D03*
X45750000Y-66850000D03*
X45750000Y-70750000D03*
X44480000Y-66850000D03*
X44480000Y-70750000D03*
X43210000Y-66850000D03*
X43210000Y-70750000D03*
%TD*%
D29*
%TO.C,C5*%
X51230000Y-98750000D03*
X50270000Y-98750000D03*
%TD*%
D49*
%TO.C,C15*%
X69600000Y-114825000D03*
X69600000Y-117775000D03*
%TD*%
D50*
%TO.C,C1*%
X45750000Y-94495000D03*
X45750000Y-96045000D03*
%TD*%
D51*
%TO.C,SW1*%
X39360000Y-79350000D03*
X37150000Y-79350000D03*
D52*
X38250000Y-81500000D03*
X38250000Y-84500000D03*
D51*
X39360000Y-86650000D03*
X37150000Y-86650000D03*
D53*
X40010000Y-80750000D03*
X40010000Y-83750000D03*
X40010000Y-85250000D03*
%TD*%
D54*
%TO.C,D1*%
X69750000Y-99575000D03*
X69750000Y-98000000D03*
%TD*%
D55*
%TO.C,F1*%
X62400000Y-120887500D03*
X59600000Y-120887500D03*
%TD*%
D54*
%TO.C,D4*%
X67500000Y-99575000D03*
X67500000Y-98000000D03*
%TD*%
D56*
%TO.C,R6*%
X43250000Y-94310000D03*
X43250000Y-93290000D03*
%TD*%
D57*
%TO.C,C11*%
X69770000Y-92250000D03*
X70730000Y-92250000D03*
%TD*%
D42*
%TO.C,R9*%
X55925000Y-104750000D03*
X57575000Y-104750000D03*
%TD*%
D58*
%TO.C,J3*%
X34200000Y-69275000D03*
D34*
X34200000Y-70525000D03*
X34200000Y-71775000D03*
X34200000Y-73025000D03*
%TD*%
D56*
%TO.C,R7*%
X66000000Y-89010000D03*
X66000000Y-87990000D03*
%TD*%
D32*
%TO.C,C2*%
X53525000Y-100250000D03*
X51975000Y-100250000D03*
%TD*%
D41*
%TO.C,R5*%
X40700000Y-88490000D03*
X40700000Y-89510000D03*
%TD*%
D59*
%TO.C,U1*%
X51500000Y-96425000D03*
X52000000Y-96425000D03*
X52500000Y-96425000D03*
X53000000Y-96425000D03*
X53500000Y-96425000D03*
X54000000Y-96425000D03*
X54500000Y-96425000D03*
X55000000Y-96425000D03*
X55500000Y-96425000D03*
X56000000Y-96425000D03*
X56500000Y-96425000D03*
X57000000Y-96425000D03*
X57500000Y-96425000D03*
X58000000Y-96425000D03*
X58500000Y-96425000D03*
X59000000Y-96425000D03*
D60*
X60925000Y-94500000D03*
X60925000Y-94000000D03*
X60925000Y-93500000D03*
X60925000Y-93000000D03*
X60925000Y-92500000D03*
X60925000Y-92000000D03*
X60925000Y-91500000D03*
X60925000Y-91000000D03*
X60925000Y-90500000D03*
X60925000Y-90000000D03*
X60925000Y-89500000D03*
X60925000Y-89000000D03*
X60925000Y-88500000D03*
X60925000Y-88000000D03*
X60925000Y-87500000D03*
X60925000Y-87000000D03*
D59*
X59000000Y-85075000D03*
X58500000Y-85075000D03*
X58000000Y-85075000D03*
X57500000Y-85075000D03*
X57000000Y-85075000D03*
X56500000Y-85075000D03*
X56000000Y-85075000D03*
X55500000Y-85075000D03*
X55000000Y-85075000D03*
X54500000Y-85075000D03*
X54000000Y-85075000D03*
X53500000Y-85075000D03*
X53000000Y-85075000D03*
X52500000Y-85075000D03*
X52000000Y-85075000D03*
X51500000Y-85075000D03*
D60*
X49575000Y-87000000D03*
X49575000Y-87500000D03*
X49575000Y-88000000D03*
X49575000Y-88500000D03*
X49575000Y-89000000D03*
X49575000Y-89500000D03*
X49575000Y-90000000D03*
X49575000Y-90500000D03*
X49575000Y-91000000D03*
X49575000Y-91500000D03*
X49575000Y-92000000D03*
X49575000Y-92500000D03*
X49575000Y-93000000D03*
X49575000Y-93500000D03*
X49575000Y-94000000D03*
X49575000Y-94500000D03*
%TD*%
D61*
%TO.C,L1*%
X57250000Y-99735000D03*
X57250000Y-98765000D03*
%TD*%
D33*
%TO.C,C3*%
X63250000Y-93230000D03*
X63250000Y-92270000D03*
%TD*%
D29*
%TO.C,C12*%
X55980000Y-100000000D03*
X55020000Y-100000000D03*
%TD*%
%LPD*%
M02*
