%TF.GenerationSoftware,KiCad,Pcbnew,8.0.5*%
%TF.CreationDate,2024-11-09T23:36:57+01:00*%
%TF.ProjectId,STM32 Development Board,53544d33-3220-4446-9576-656c6f706d65,rev?*%
%TF.SameCoordinates,Original*%
%TF.FileFunction,Paste,Top*%
%TF.FilePolarity,Positive*%
%FSLAX46Y46*%
G04 Gerber Fmt 4.6, Leading zero omitted, Abs format (unit mm)*
G04 Created by KiCad (PCBNEW 8.0.5) date 2024-11-09 23:36:57*
%MOMM*%
%LPD*%
G01*
G04 APERTURE LIST*
G04 Aperture macros list*
%AMRoundRect*
0 Rectangle with rounded corners*
0 $1 Rounding radius*
0 $2 $3 $4 $5 $6 $7 $8 $9 X,Y pos of 4 corners*
0 Add a 4 corners polygon primitive as box body*
4,1,4,$2,$3,$4,$5,$6,$7,$8,$9,$2,$3,0*
0 Add four circle primitives for the rounded corners*
1,1,$1+$1,$2,$3*
1,1,$1+$1,$4,$5*
1,1,$1+$1,$6,$7*
1,1,$1+$1,$8,$9*
0 Add four rect primitives between the rounded corners*
20,1,$1+$1,$2,$3,$4,$5,0*
20,1,$1+$1,$4,$5,$6,$7,0*
20,1,$1+$1,$6,$7,$8,$9,0*
20,1,$1+$1,$8,$9,$2,$3,0*%
G04 Aperture macros list end*
%ADD10R,0.400000X1.350000*%
%ADD11R,1.600000X1.400000*%
%ADD12R,1.900000X1.900000*%
%ADD13RoundRect,0.225000X0.250000X-0.225000X0.250000X0.225000X-0.250000X0.225000X-0.250000X-0.225000X0*%
%ADD14RoundRect,0.250000X0.650000X-0.325000X0.650000X0.325000X-0.650000X0.325000X-0.650000X-0.325000X0*%
%ADD15RoundRect,0.140000X-0.170000X0.140000X-0.170000X-0.140000X0.170000X-0.140000X0.170000X0.140000X0*%
%ADD16R,0.475000X0.250000*%
%ADD17R,0.250000X0.475000*%
%ADD18RoundRect,0.135000X-0.135000X-0.185000X0.135000X-0.185000X0.135000X0.185000X-0.135000X0.185000X0*%
%ADD19RoundRect,0.225000X0.225000X0.375000X-0.225000X0.375000X-0.225000X-0.375000X0.225000X-0.375000X0*%
%ADD20R,1.850000X3.400000*%
%ADD21RoundRect,0.200000X-0.275000X0.200000X-0.275000X-0.200000X0.275000X-0.200000X0.275000X0.200000X0*%
%ADD22RoundRect,0.140000X0.140000X0.170000X-0.140000X0.170000X-0.140000X-0.170000X0.140000X-0.170000X0*%
%ADD23RoundRect,0.225000X-0.375000X0.225000X-0.375000X-0.225000X0.375000X-0.225000X0.375000X0.225000X0*%
%ADD24RoundRect,0.135000X0.135000X0.185000X-0.135000X0.185000X-0.135000X-0.185000X0.135000X-0.185000X0*%
%ADD25RoundRect,0.225000X0.225000X0.250000X-0.225000X0.250000X-0.225000X-0.250000X0.225000X-0.250000X0*%
%ADD26RoundRect,0.140000X0.170000X-0.140000X0.170000X0.140000X-0.170000X0.140000X-0.170000X-0.140000X0*%
%ADD27RoundRect,0.200000X0.275000X-0.200000X0.275000X0.200000X-0.275000X0.200000X-0.275000X-0.200000X0*%
%ADD28R,1.400000X1.200000*%
%ADD29RoundRect,0.218750X-0.218750X-0.381250X0.218750X-0.381250X0.218750X0.381250X-0.218750X0.381250X0*%
%ADD30RoundRect,0.135000X-0.185000X0.135000X-0.185000X-0.135000X0.185000X-0.135000X0.185000X0.135000X0*%
%ADD31RoundRect,0.200000X-0.200000X-0.275000X0.200000X-0.275000X0.200000X0.275000X-0.200000X0.275000X0*%
%ADD32RoundRect,0.150000X-0.150000X0.512500X-0.150000X-0.512500X0.150000X-0.512500X0.150000X0.512500X0*%
%ADD33RoundRect,0.150000X0.587500X0.150000X-0.587500X0.150000X-0.587500X-0.150000X0.587500X-0.150000X0*%
%ADD34RoundRect,0.250000X0.325000X0.650000X-0.325000X0.650000X-0.325000X-0.650000X0.325000X-0.650000X0*%
%ADD35R,0.740000X2.400000*%
%ADD36RoundRect,0.250000X-0.650000X0.325000X-0.650000X-0.325000X0.650000X-0.325000X0.650000X0.325000X0*%
%ADD37RoundRect,0.225000X-0.250000X0.225000X-0.250000X-0.225000X0.250000X-0.225000X0.250000X0.225000X0*%
%ADD38R,0.800000X1.000000*%
%ADD39R,1.500000X0.700000*%
%ADD40RoundRect,0.218750X0.256250X-0.218750X0.256250X0.218750X-0.256250X0.218750X-0.256250X-0.218750X0*%
%ADD41RoundRect,0.250000X0.375000X0.625000X-0.375000X0.625000X-0.375000X-0.625000X0.375000X-0.625000X0*%
%ADD42RoundRect,0.135000X0.185000X-0.135000X0.185000X0.135000X-0.185000X0.135000X-0.185000X-0.135000X0*%
%ADD43RoundRect,0.140000X-0.140000X-0.170000X0.140000X-0.170000X0.140000X0.170000X-0.140000X0.170000X0*%
%ADD44RoundRect,0.075000X0.075000X-0.700000X0.075000X0.700000X-0.075000X0.700000X-0.075000X-0.700000X0*%
%ADD45RoundRect,0.075000X0.700000X-0.075000X0.700000X0.075000X-0.700000X0.075000X-0.700000X-0.075000X0*%
%ADD46RoundRect,0.147500X0.172500X-0.147500X0.172500X0.147500X-0.172500X0.147500X-0.172500X-0.147500X0*%
G04 APERTURE END LIST*
D10*
%TO.C,J2*%
X58800000Y-70675000D03*
X58150000Y-70675000D03*
X57500000Y-70675000D03*
X56850000Y-70675000D03*
X56200000Y-70675000D03*
D11*
X60700000Y-70450000D03*
X54300000Y-70450000D03*
D12*
X56300000Y-68000000D03*
X58700000Y-68000000D03*
%TD*%
D13*
%TO.C,C16*%
X60250000Y-108525000D03*
X60250000Y-106975000D03*
%TD*%
D14*
%TO.C,C14*%
X69600000Y-112475000D03*
X69600000Y-109525000D03*
%TD*%
D15*
%TO.C,C7*%
X47500000Y-94770000D03*
X47500000Y-95730000D03*
%TD*%
D16*
%TO.C,U4*%
X68412500Y-77912500D03*
X68412500Y-77412500D03*
X68412500Y-76912500D03*
X68412500Y-76412500D03*
D17*
X67750000Y-76250000D03*
X67250000Y-76250000D03*
X66750000Y-76250000D03*
D16*
X66087500Y-76412500D03*
X66087500Y-76912500D03*
X66087500Y-77412500D03*
X66087500Y-77912500D03*
D17*
X66750000Y-78075000D03*
X67250000Y-78075000D03*
X67750000Y-78075000D03*
%TD*%
D18*
%TO.C,R13*%
X68240000Y-80750000D03*
X69260000Y-80750000D03*
%TD*%
D19*
%TO.C,D2*%
X57650000Y-123500000D03*
X54350000Y-123500000D03*
%TD*%
D20*
%TO.C,L2*%
X60475000Y-113500000D03*
X66025000Y-113500000D03*
%TD*%
D21*
%TO.C,R3*%
X53500000Y-106675000D03*
X53500000Y-108325000D03*
%TD*%
D22*
%TO.C,C18*%
X67730000Y-74250000D03*
X66770000Y-74250000D03*
%TD*%
D23*
%TO.C,D3*%
X57750000Y-113100000D03*
X57750000Y-116400000D03*
%TD*%
D24*
%TO.C,R12*%
X66260000Y-80750000D03*
X65240000Y-80750000D03*
%TD*%
D21*
%TO.C,R8*%
X59500000Y-101175000D03*
X59500000Y-102825000D03*
%TD*%
D25*
%TO.C,C4*%
X47525000Y-88500000D03*
X45975000Y-88500000D03*
%TD*%
D26*
%TO.C,C17*%
X64250000Y-75480000D03*
X64250000Y-74520000D03*
%TD*%
D22*
%TO.C,C10*%
X55960000Y-98750000D03*
X55000000Y-98750000D03*
%TD*%
%TO.C,C13*%
X70830000Y-86900000D03*
X69870000Y-86900000D03*
%TD*%
D21*
%TO.C,R4*%
X53500000Y-110175000D03*
X53500000Y-111825000D03*
%TD*%
D27*
%TO.C,R1*%
X69770000Y-103150000D03*
X69770000Y-101500000D03*
%TD*%
D28*
%TO.C,Y1*%
X69150000Y-90350000D03*
X71350000Y-90350000D03*
X71350000Y-88650000D03*
X69150000Y-88650000D03*
%TD*%
D29*
%TO.C,FB1*%
X60437500Y-118500000D03*
X62562500Y-118500000D03*
%TD*%
D30*
%TO.C,R2*%
X43500000Y-90490000D03*
X43500000Y-91510000D03*
%TD*%
D31*
%TO.C,R10*%
X59425000Y-104750000D03*
X61075000Y-104750000D03*
%TD*%
D27*
%TO.C,R11*%
X67500000Y-103150000D03*
X67500000Y-101500000D03*
%TD*%
D32*
%TO.C,U3*%
X55950000Y-77612500D03*
X55000000Y-77612500D03*
X54050000Y-77612500D03*
X54050000Y-79887500D03*
X55000000Y-79887500D03*
X55950000Y-79887500D03*
%TD*%
%TO.C,U2*%
X57950000Y-107362500D03*
X57000000Y-107362500D03*
X56050000Y-107362500D03*
X56050000Y-109637500D03*
X57000000Y-109637500D03*
X57950000Y-109637500D03*
%TD*%
D26*
%TO.C,C9*%
X63250000Y-86730000D03*
X63250000Y-85770000D03*
%TD*%
D33*
%TO.C,Q1*%
X54250000Y-119450000D03*
X54250000Y-117550000D03*
X52375000Y-118500000D03*
%TD*%
D34*
%TO.C,C8*%
X54300000Y-114837500D03*
X51350000Y-114837500D03*
%TD*%
D22*
%TO.C,C6*%
X51280000Y-83000000D03*
X50320000Y-83000000D03*
%TD*%
D35*
%TO.C,J4*%
X48290000Y-66850000D03*
X48290000Y-70750000D03*
X47020000Y-66850000D03*
X47020000Y-70750000D03*
X45750000Y-66850000D03*
X45750000Y-70750000D03*
X44480000Y-66850000D03*
X44480000Y-70750000D03*
X43210000Y-66850000D03*
X43210000Y-70750000D03*
%TD*%
D22*
%TO.C,C5*%
X51230000Y-98750000D03*
X50270000Y-98750000D03*
%TD*%
D36*
%TO.C,C15*%
X69600000Y-114825000D03*
X69600000Y-117775000D03*
%TD*%
D37*
%TO.C,C1*%
X45750000Y-94495000D03*
X45750000Y-96045000D03*
%TD*%
D38*
%TO.C,SW1*%
X39360000Y-79350000D03*
X37150000Y-79350000D03*
X39360000Y-86650000D03*
X37150000Y-86650000D03*
D39*
X40010000Y-80750000D03*
X40010000Y-83750000D03*
X40010000Y-85250000D03*
%TD*%
D40*
%TO.C,D1*%
X69750000Y-99575000D03*
X69750000Y-98000000D03*
%TD*%
D41*
%TO.C,F1*%
X62400000Y-120887500D03*
X59600000Y-120887500D03*
%TD*%
D40*
%TO.C,D4*%
X67500000Y-99575000D03*
X67500000Y-98000000D03*
%TD*%
D42*
%TO.C,R6*%
X43250000Y-94310000D03*
X43250000Y-93290000D03*
%TD*%
D43*
%TO.C,C11*%
X69770000Y-92250000D03*
X70730000Y-92250000D03*
%TD*%
D31*
%TO.C,R9*%
X55925000Y-104750000D03*
X57575000Y-104750000D03*
%TD*%
D42*
%TO.C,R7*%
X66000000Y-89010000D03*
X66000000Y-87990000D03*
%TD*%
D25*
%TO.C,C2*%
X53525000Y-100250000D03*
X51975000Y-100250000D03*
%TD*%
D30*
%TO.C,R5*%
X40700000Y-88490000D03*
X40700000Y-89510000D03*
%TD*%
D44*
%TO.C,U1*%
X51500000Y-96425000D03*
X52000000Y-96425000D03*
X52500000Y-96425000D03*
X53000000Y-96425000D03*
X53500000Y-96425000D03*
X54000000Y-96425000D03*
X54500000Y-96425000D03*
X55000000Y-96425000D03*
X55500000Y-96425000D03*
X56000000Y-96425000D03*
X56500000Y-96425000D03*
X57000000Y-96425000D03*
X57500000Y-96425000D03*
X58000000Y-96425000D03*
X58500000Y-96425000D03*
X59000000Y-96425000D03*
D45*
X60925000Y-94500000D03*
X60925000Y-94000000D03*
X60925000Y-93500000D03*
X60925000Y-93000000D03*
X60925000Y-92500000D03*
X60925000Y-92000000D03*
X60925000Y-91500000D03*
X60925000Y-91000000D03*
X60925000Y-90500000D03*
X60925000Y-90000000D03*
X60925000Y-89500000D03*
X60925000Y-89000000D03*
X60925000Y-88500000D03*
X60925000Y-88000000D03*
X60925000Y-87500000D03*
X60925000Y-87000000D03*
D44*
X59000000Y-85075000D03*
X58500000Y-85075000D03*
X58000000Y-85075000D03*
X57500000Y-85075000D03*
X57000000Y-85075000D03*
X56500000Y-85075000D03*
X56000000Y-85075000D03*
X55500000Y-85075000D03*
X55000000Y-85075000D03*
X54500000Y-85075000D03*
X54000000Y-85075000D03*
X53500000Y-85075000D03*
X53000000Y-85075000D03*
X52500000Y-85075000D03*
X52000000Y-85075000D03*
X51500000Y-85075000D03*
D45*
X49575000Y-87000000D03*
X49575000Y-87500000D03*
X49575000Y-88000000D03*
X49575000Y-88500000D03*
X49575000Y-89000000D03*
X49575000Y-89500000D03*
X49575000Y-90000000D03*
X49575000Y-90500000D03*
X49575000Y-91000000D03*
X49575000Y-91500000D03*
X49575000Y-92000000D03*
X49575000Y-92500000D03*
X49575000Y-93000000D03*
X49575000Y-93500000D03*
X49575000Y-94000000D03*
X49575000Y-94500000D03*
%TD*%
D46*
%TO.C,L1*%
X57250000Y-99735000D03*
X57250000Y-98765000D03*
%TD*%
D26*
%TO.C,C3*%
X63250000Y-93230000D03*
X63250000Y-92270000D03*
%TD*%
D22*
%TO.C,C12*%
X55980000Y-100000000D03*
X55020000Y-100000000D03*
%TD*%
M02*
