%TF.GenerationSoftware,KiCad,Pcbnew,8.0.5*%
%TF.CreationDate,2024-11-09T22:33:20+01:00*%
%TF.ProjectId,STM32 Development Board,53544d33-3220-4446-9576-656c6f706d65,rev?*%
%TF.SameCoordinates,Original*%
%TF.FileFunction,Profile,NP*%
%FSLAX46Y46*%
G04 Gerber Fmt 4.6, Leading zero omitted, Abs format (unit mm)*
G04 Created by KiCad (PCBNEW 8.0.5) date 2024-11-09 22:33:20*
%MOMM*%
%LPD*%
G01*
G04 APERTURE LIST*
%TA.AperFunction,Profile*%
%ADD10C,0.050000*%
%TD*%
G04 APERTURE END LIST*
D10*
X28957107Y-66957107D02*
G75*
G02*
X29957107Y-65957107I999999J1D01*
G01*
X79992893Y-66257107D02*
G75*
G02*
X80992893Y-67257107I0J-1000000D01*
G01*
X28000000Y-129500000D02*
X28000000Y-128500000D01*
X29000000Y-129500000D02*
X28000000Y-129500000D01*
X81250000Y-129500000D02*
X82000000Y-129500000D01*
X82000000Y-77000000D02*
X81000000Y-76100000D01*
X80992893Y-67257107D02*
X81000000Y-76100000D01*
X29000000Y-76000000D02*
X28000000Y-77000000D01*
X28957107Y-66957107D02*
X29000000Y-76000000D01*
X40750000Y-66000000D02*
X29957107Y-65957107D01*
X28000000Y-128500000D02*
X28000000Y-77000000D01*
X80250000Y-129500000D02*
X81250000Y-129500000D01*
X29750000Y-129500000D02*
X29000000Y-129500000D01*
X29750000Y-129500000D02*
X30500000Y-129500000D01*
X51250000Y-66250000D02*
X49500000Y-64500000D01*
X82000000Y-77000000D02*
X82000000Y-129500000D01*
X79992893Y-66257107D02*
X51250000Y-66250000D01*
X49500000Y-64500000D02*
X42000000Y-64500000D01*
X80250000Y-129500000D02*
X30500000Y-129500000D01*
X42000000Y-64500000D02*
X40750000Y-66000000D01*
M02*
